<svg width="43" height="43" viewBox="0 0 43 43" fill="none" xmlns="http://www.w3.org/2000/svg">
<rect width="43" height="43" rx="21.5" fill="#0A2342"/>
<path d="M28.8461 21.9329L23.2287 27.5503C23.1141 27.6649 22.9586 27.7293 22.7966 27.7293C22.6345 27.7293 22.4791 27.6649 22.3645 27.5503C22.2499 27.4357 22.1855 27.2803 22.1855 27.1182C22.1855 26.9562 22.2499 26.8007 22.3645 26.6861L26.9389 22.1117L14.5865 22.1123C14.4244 22.1123 14.2688 22.0478 14.1542 21.9332C14.0395 21.8185 13.9751 21.663 13.9751 21.5008C13.9751 21.3387 14.0395 21.1831 14.1542 21.0685C14.2688 20.9538 14.4244 20.8894 14.5865 20.8894L26.9389 20.8899L22.3645 16.3155C22.2499 16.2009 22.1855 16.0455 22.1855 15.8834C22.1855 15.7214 22.2499 15.5659 22.3645 15.4513C22.4791 15.3367 22.6345 15.2723 22.7966 15.2723C22.9586 15.2723 23.1141 15.3367 23.2287 15.4513L28.8461 21.0687C28.9607 21.1833 29.0251 21.3388 29.0251 21.5008C29.0251 21.6629 28.9607 21.8183 28.8461 21.9329Z" fill="white"/>
</svg>
