<svg width="240" height="240" viewBox="0 0 240 240" fill="none" xmlns="http://www.w3.org/2000/svg">
<path d="M218.824 147.24C218.824 157.028 213.601 166.073 205.125 170.967L133.661 212.227C125.185 217.12 114.741 217.12 106.265 212.227L34.8008 170.967C26.3242 166.073 21.1017 157.028 21.1016 147.24V88.252H55.666C56.6815 122.861 85.0546 150.604 119.909 150.604C154.764 150.604 183.137 122.861 184.152 88.252H218.824V147.24Z" fill="#CCD4E0"/>
<path d="M218.824 141.484C218.824 151.272 213.602 160.317 205.125 165.211L133.661 206.471C125.185 211.365 114.741 211.364 106.265 206.471L34.8008 165.211C26.3241 160.317 21.1016 151.272 21.1016 141.484V82.4961H55.666C56.6813 117.105 85.0545 144.85 119.909 144.85C154.764 144.849 183.137 117.105 184.152 82.4961H218.824V141.484Z" fill="#41AFFF"/>
<circle cx="120.388" cy="82.0173" r="50.363" fill="#CCD4E0"/>
<circle cx="120.388" cy="76.2614" r="50.363" fill="#41AFFF"/>
<path fill-rule="evenodd" clip-rule="evenodd" d="M122.833 54.9743H119.862L118.161 61.7752L116.454 62.3028C115.459 62.6093 114.496 63.0085 113.576 63.4952L111.995 64.3315L105.981 60.7226L103.881 62.8251L107.49 68.8399L106.653 70.4175C106.166 71.3373 105.766 72.3009 105.458 73.2956L104.933 75.0024L98.1325 76.704V79.6744L104.933 81.376L105.461 83.0828C105.765 84.0818 106.163 85.0411 106.653 85.961L107.49 87.5411L103.881 93.5559L105.983 95.6558L111.998 92.047L113.576 92.8832C114.495 93.3721 115.455 93.7705 116.454 94.0783L118.161 94.6032L119.862 101.404H122.833L124.534 94.6032L126.241 94.0756C127.236 93.7692 128.199 93.3699 129.119 92.8832L130.699 92.047L136.714 95.6558L138.814 93.5533L135.205 87.5385L136.041 85.961C136.53 85.0411 136.929 84.0818 137.236 83.0828L137.761 81.376L144.562 79.6744V76.704L137.761 75.0024L137.234 73.2956C136.927 72.301 136.528 71.3374 136.041 70.4175L135.205 68.8373L138.814 62.8225L136.711 60.7226L130.697 64.3315L129.119 63.4952C128.199 63.0076 127.236 62.6075 126.241 62.3002L124.534 61.7752L122.833 54.9743ZM130.602 60.6989L135.437 57.797C135.942 57.4946 136.532 57.3693 137.116 57.441C137.699 57.5126 138.242 57.7772 138.658 58.1927L141.344 60.8783C141.759 61.2943 142.024 61.8372 142.096 62.4207C142.167 63.0043 142.042 63.5951 141.74 64.0993L138.838 68.9349C139.418 70.0253 139.893 71.1685 140.262 72.3644L145.731 73.7335C146.302 73.8764 146.808 74.2059 147.17 74.6695C147.532 75.1331 147.728 75.7044 147.728 76.2925V80.086C147.728 80.6741 147.532 81.2453 147.17 81.7089C146.808 82.1726 146.302 82.502 145.731 82.6449L140.262 84.0141C139.893 85.21 139.418 86.3531 138.838 87.4435L141.74 92.2791C142.042 92.7833 142.167 93.3741 142.096 93.9577C142.024 94.5413 141.759 95.0842 141.344 95.5002L138.658 98.1857C138.242 98.6012 137.699 98.8658 137.116 98.9375C136.532 99.0092 135.942 98.8839 135.437 98.5814L130.602 95.6796C129.511 96.2599 128.368 96.7348 127.172 97.1041L125.803 102.573C125.66 103.143 125.331 103.65 124.867 104.011C124.404 104.373 123.832 104.57 123.244 104.57H119.451C118.863 104.57 118.291 104.373 117.828 104.011C117.364 103.65 117.035 103.143 116.892 102.573L115.523 97.1041C114.337 96.7378 113.189 96.2609 112.093 95.6796L107.258 98.5814C106.753 98.8839 106.163 99.0092 105.579 98.9375C104.995 98.8658 104.452 98.6012 104.036 98.1857L101.351 95.5002C100.935 95.0842 100.671 94.5413 100.599 93.9577C100.527 93.3741 100.653 92.7833 100.955 92.2791L103.857 87.4435C103.276 86.3476 102.799 85.1994 102.433 84.0141L96.9638 82.6449C96.3938 82.5021 95.8877 82.1731 95.526 81.71C95.1642 81.2469 94.9674 80.6763 94.9668 80.0886V76.2951C94.9668 75.707 95.1633 75.1358 95.5252 74.6721C95.887 74.2085 96.3933 73.8791 96.9638 73.7362L102.433 72.367C102.802 71.1711 103.277 70.0279 103.857 68.9375L100.955 64.102C100.653 63.5977 100.527 63.007 100.599 62.4234C100.671 61.8398 100.935 61.2969 101.351 60.8809L104.036 58.1927C104.452 57.7772 104.995 57.5126 105.579 57.441C106.163 57.3693 106.753 57.4946 107.258 57.797L112.093 60.6989C113.183 60.1185 114.327 59.6436 115.523 59.2743L116.892 53.8056C117.035 53.2356 117.364 52.7295 117.827 52.3678C118.29 52.006 118.86 51.8092 119.448 51.8086H123.242C123.83 51.8086 124.401 52.0051 124.865 52.367C125.328 52.7288 125.658 53.2351 125.8 53.8056L127.17 59.2743C128.366 59.6436 129.509 60.1185 130.599 60.6989H130.602Z" fill="#E6F7FF"/>
<g clip-path="url(#clip0_1512_5369)">
<path d="M130.413 75.9895L126.87 85.7736C126.749 86.1004 126.419 86.3308 126.03 86.3315H111.863C111.828 86.3315 111.793 86.3294 111.759 86.3253L111.763 86.326L111.737 86.3219C111.714 86.3189 111.69 86.3148 111.668 86.3097L111.64 86.3036C111.617 86.2982 111.594 86.2918 111.57 86.2846L111.544 86.2757C111.521 86.268 111.498 86.2588 111.474 86.2479L111.453 86.2384C111.424 86.2247 111.396 86.2093 111.369 86.1922L111.372 86.1942C111.344 86.1775 111.318 86.1591 111.293 86.1392L111.295 86.1398L111.274 86.1229L111.225 86.0794L111.202 86.0563C111.187 86.0406 111.173 86.0242 111.159 86.0073L111.147 85.9931L111.141 85.9849C111.124 85.9632 111.108 85.9405 111.094 85.917L111.089 85.9095C111.074 85.8843 111.06 85.8582 111.048 85.8313L111.046 85.8259L111.041 85.813C111.031 85.7894 111.022 85.7654 111.014 85.741C111.014 85.7328 111.009 85.7247 111.008 85.7158C111.002 85.6959 110.998 85.6746 110.993 85.652C110.993 85.6418 110.989 85.6316 110.988 85.6214L110.982 85.5636C110.981 85.5446 110.982 85.5405 110.982 85.529V70.8388C110.982 70.6234 111.075 70.4167 111.24 70.2639C111.405 70.1112 111.628 70.0247 111.862 70.0234H118.946C119.181 70.0234 119.406 70.1093 119.573 70.2623C119.739 70.4152 119.832 70.6226 119.832 70.8388V71.6542H126.03C126.265 71.6542 126.49 71.7401 126.657 71.8931C126.823 72.046 126.916 72.2534 126.916 72.4696V74.9158H129.572C129.713 74.916 129.852 74.947 129.977 75.0062C130.102 75.0655 130.21 75.1514 130.292 75.2567C130.373 75.362 130.427 75.4838 130.448 75.612C130.468 75.7401 130.455 75.8709 130.41 75.9935L130.412 75.9881L130.413 75.9895ZM112.749 71.6542V80.4898L114.565 75.4717C114.624 75.3093 114.737 75.1681 114.887 75.0679C115.038 74.9678 115.219 74.9139 115.405 74.9138H125.145V73.285H118.946C118.712 73.285 118.486 73.1991 118.32 73.0462C118.154 72.8933 118.061 72.6859 118.061 72.4696V71.6549L112.749 71.6542ZM128.344 76.5466H116.043L113.091 84.7007H125.392L128.344 76.5466Z" fill="#E6F7FF"/>
</g>
<defs>
<clipPath id="clip0_1512_5369">
<rect width="19.1859" height="16.308" fill="white" transform="matrix(-1 0 0 1 130.463 70.0234)"/>
</clipPath>
</defs>
</svg>
