<svg width="240" height="240" viewBox="0 0 240 240" fill="none" xmlns="http://www.w3.org/2000/svg">
<path d="M218.826 147.25C218.826 157.038 213.604 166.083 205.127 170.977L133.663 212.236C125.186 217.13 114.743 217.13 106.267 212.236L34.8027 170.977C26.326 166.083 21.1035 157.038 21.1035 147.25V88.2617H55.668C56.6799 122.874 85.0553 150.621 119.912 150.621C154.769 150.621 183.144 122.873 184.156 88.2617H218.826V147.25Z" fill="#CCD4E0"/>
<path d="M218.826 141.496C218.826 151.284 213.604 160.329 205.127 165.223L133.663 206.482C125.187 211.376 114.743 211.376 106.267 206.482L34.8027 165.223C26.3262 160.329 21.1037 151.284 21.1035 141.496V82.5078H55.6689C56.6843 117.117 85.0575 144.86 119.912 144.86C154.767 144.86 183.14 117.117 184.155 82.5078H218.826V141.496Z" fill="#41AFFF"/>
<circle cx="120.394" cy="82.029" r="50.363" fill="#CCD4E0"/>
<circle cx="120.394" cy="76.2732" r="50.363" fill="#41AFFF"/>
<path d="M118.955 54.6889C119.591 54.6889 120.201 54.9416 120.651 55.3913C121.101 55.8411 121.353 56.4511 121.353 57.0871C121.353 57.7232 121.101 58.3332 120.651 58.783C120.201 59.2327 119.591 59.4854 118.955 59.4854C115.16 59.4854 111.451 60.6106 108.296 62.7188C105.141 64.827 102.682 67.8234 101.23 71.3292C99.7774 74.8349 99.3975 78.6926 100.138 82.4143C100.878 86.136 102.705 89.5546 105.389 92.2378C108.072 94.921 111.49 96.7482 115.212 97.4885C118.934 98.2288 122.791 97.8489 126.297 96.3968C129.803 94.9446 132.799 92.4855 134.908 89.3304C137.016 86.1753 138.141 82.4659 138.141 78.6713C138.141 78.0352 138.394 77.4252 138.843 76.9755C139.293 76.5257 139.903 76.273 140.539 76.273C141.175 76.273 141.785 76.5257 142.235 76.9755C142.685 77.4252 142.937 78.0352 142.937 78.6713C142.937 91.9168 132.201 102.654 118.955 102.654C105.71 102.654 94.9727 91.9168 94.9727 78.6713C94.9727 65.4258 105.71 54.6889 118.955 54.6889ZM118.955 64.2819C119.591 64.2819 120.201 64.5345 120.651 64.9843C121.101 65.434 121.353 66.044 121.353 66.6801C121.353 67.3161 121.101 67.9261 120.651 68.3759C120.201 68.8257 119.591 69.0783 118.955 69.0783C117.058 69.0783 115.203 69.641 113.625 70.695C112.048 71.7491 110.818 73.2473 110.092 75.0002C109.366 76.7531 109.176 78.6819 109.546 80.5428C109.917 82.4036 110.83 84.1129 112.172 85.4545C113.513 86.7961 115.223 87.7098 117.084 88.0799C118.944 88.4501 120.873 88.2601 122.626 87.534C124.379 86.808 125.877 85.5784 126.931 84.0008C127.985 82.4233 128.548 80.5686 128.548 78.6713C128.548 78.0352 128.801 77.4252 129.25 76.9755C129.7 76.5257 130.31 76.273 130.946 76.273C131.582 76.273 132.192 76.5257 132.642 76.9755C133.092 77.4252 133.344 78.0352 133.344 78.6713C133.344 81.5172 132.501 84.2993 130.919 86.6656C129.338 89.032 127.091 90.8763 124.462 91.9654C121.832 93.0545 118.939 93.3394 116.148 92.7842C113.357 92.229 110.793 90.8586 108.78 88.8462C106.768 86.8338 105.397 84.2698 104.842 81.4785C104.287 78.6872 104.572 75.794 105.661 73.1647C106.75 70.5354 108.594 68.288 110.961 66.7069C113.327 65.1258 116.109 64.2819 118.955 64.2819ZM132.519 54.9287C132.974 54.5006 133.577 54.2664 134.201 54.2757C134.826 54.285 135.422 54.5371 135.863 54.9785C136.305 55.42 136.557 56.016 136.566 56.6403C136.575 57.2645 136.341 57.8678 135.913 58.3222L134.215 60.0154C133.765 60.4651 133.514 61.0751 133.514 61.7113C133.514 62.3475 133.767 62.9577 134.216 63.4077C134.666 63.8577 135.276 64.1106 135.912 64.1109C136.548 64.1111 137.159 63.8586 137.609 63.4089L139.304 61.7133C139.754 61.2633 140.364 61.0104 141 61.0102C141.636 61.0099 142.246 61.2625 142.696 61.7121C143.146 62.1618 143.399 62.7719 143.4 63.408C143.4 64.0442 143.147 64.6544 142.698 65.1045L137.613 70.1935C137.39 70.4161 137.125 70.5925 136.834 70.7126C136.543 70.8328 136.231 70.8944 135.915 70.8938H130.126L120.653 80.3668C120.201 80.8037 119.595 81.0454 118.966 81.04C118.337 81.0345 117.736 80.7823 117.291 80.3376C116.846 79.893 116.594 79.2915 116.589 78.6627C116.583 78.0338 116.825 77.428 117.262 76.9757L126.735 67.5027V61.7157C126.734 61.0801 126.986 60.4702 127.435 60.0202L132.519 54.9287Z" fill="#F0FDFA"/>
</svg>
