<svg width="240" height="240" viewBox="0 0 240 240" fill="none" xmlns="http://www.w3.org/2000/svg">
<path d="M218.827 147.25C218.827 157.038 213.605 166.083 205.129 170.977L133.665 212.236C125.188 217.13 114.744 217.13 106.268 212.236L34.8037 170.977C26.3274 166.083 21.1058 157.038 21.1055 147.25V88.2617H55.6699C56.6828 122.873 85.0571 150.619 119.913 150.619C154.769 150.619 183.144 122.873 184.157 88.2617H218.827V147.25Z" fill="#CCD4E0"/>
<path d="M218.827 141.494C218.827 151.282 213.606 160.327 205.129 165.221L133.665 206.48C125.188 211.374 114.744 211.374 106.268 206.48L34.8037 165.221C26.3274 160.327 21.1055 151.282 21.1055 141.494V82.5059H55.6699C56.6851 117.115 85.0586 144.859 119.913 144.859C154.768 144.859 183.142 117.115 184.157 82.5059H218.827V141.494Z" fill="#41AFFF"/>
<circle cx="120.388" cy="82.0271" r="50.363" fill="#CCD4E0"/>
<circle cx="120.388" cy="76.2732" r="50.363" fill="#41AFFF"/>
<path d="M119.145 90.4578C118.912 90.2713 118.748 90.0381 118.655 89.7584C118.002 87.7998 117.21 86.1677 116.277 84.8619C115.344 83.5562 114.412 82.2972 113.479 81.0847C112.546 79.8723 111.766 78.6132 111.137 77.3075C110.509 76.0018 110.193 74.4163 110.191 72.551C110.191 69.8463 111.147 67.538 113.059 65.6261C114.971 63.7142 117.28 62.7582 119.984 62.7582C122.689 62.7582 124.997 63.7142 126.909 65.6261C128.821 67.538 129.777 69.8463 129.777 72.551C129.777 74.4163 129.463 76.0018 128.834 77.3075C128.206 78.6132 127.424 79.8723 126.489 81.0847C125.555 82.2972 124.622 83.5562 123.692 84.8619C122.761 86.1677 121.968 87.7998 121.313 89.7584C121.22 90.0381 121.057 90.2713 120.824 90.4578C120.59 90.6444 120.311 90.7376 119.984 90.7376C119.658 90.7376 119.378 90.6444 119.145 90.4578ZM119.984 82.9034C120.404 82.2505 120.824 81.6443 121.243 81.0847C121.663 80.5251 122.059 79.9889 122.432 79.4759C123.505 78.0769 124.298 76.9111 124.811 75.9785C125.324 75.0458 125.58 73.9033 125.58 72.551C125.58 71.0121 125.033 69.6952 123.938 68.6003C122.843 67.5054 121.525 66.957 119.984 66.9551C118.444 66.9532 117.127 67.5016 116.034 68.6003C114.94 69.699 114.392 71.0159 114.388 72.551C114.388 73.9033 114.645 75.0458 115.158 75.9785C115.671 76.9111 116.463 78.0769 117.536 79.4759C117.909 79.9889 118.305 80.5251 118.725 81.0847C119.145 81.6443 119.565 82.2505 119.984 82.9034ZM122.469 75.0356C123.144 74.3585 123.482 73.5303 123.482 72.551C123.482 71.5717 123.143 70.7435 122.466 70.0664C121.789 69.3893 120.962 69.0517 119.984 69.0536C119.007 69.0554 118.179 69.394 117.5 70.0692C116.821 70.7445 116.483 71.5717 116.487 72.551C116.491 73.5303 116.829 74.3585 117.502 75.0356C118.176 75.7127 119.003 76.0503 119.984 76.0484C120.965 76.0466 121.794 75.7108 122.469 75.0356ZM119.984 101.929C112.989 101.929 107.044 99.4812 102.147 94.5848C97.2509 89.6884 94.8027 83.7428 94.8027 76.7479C94.8027 73.2505 95.4677 69.975 96.7977 66.9215C98.1276 63.868 99.922 61.21 102.181 58.9474C104.44 56.6848 107.098 54.8894 110.155 53.5613C113.212 52.2333 116.489 51.5683 119.984 51.5664C123.48 51.5645 126.756 52.2295 129.813 53.5613C132.871 54.8932 135.529 56.6876 137.788 58.9446C140.046 61.2016 141.842 63.8596 143.174 66.9187C144.505 69.9778 145.169 73.2542 145.166 76.7479V77.3075L148.873 73.5303L152.86 77.4474L142.368 87.9397L131.876 77.4474L135.863 73.5303L139.57 77.2376V76.7479C139.57 71.3386 137.658 66.7219 133.834 62.8981C130.01 59.0742 125.394 57.1623 119.984 57.1623C114.575 57.1623 109.958 59.0742 106.134 62.8981C102.311 66.7219 100.399 71.3386 100.399 76.7479C100.445 82.1573 102.368 86.7739 106.168 90.5977C109.968 94.4216 114.573 96.3335 119.984 96.3335C122.642 96.3335 125.137 95.8327 127.469 94.831C129.8 93.8294 131.852 92.4649 133.624 90.7376L137.611 94.7247C135.326 96.9631 132.679 98.7239 129.671 100.007C126.662 101.291 123.433 101.931 119.984 101.929Z" fill="#F0FDFA"/>
</svg>
