<svg width="240" height="240" viewBox="0 0 240 240" fill="none" xmlns="http://www.w3.org/2000/svg">
<path d="M218.817 147.25C218.817 157.038 213.595 166.082 205.119 170.977L133.655 212.236C125.179 217.13 114.734 217.13 106.258 212.236L34.7939 170.977C26.3175 166.082 21.0957 157.038 21.0957 147.25V88.2617H55.6621C56.6741 122.873 85.0494 150.621 119.906 150.621C154.763 150.621 183.137 122.873 184.149 88.2617H218.817V147.25Z" fill="#CCD4E0"/>
<path d="M218.817 141.496C218.817 151.284 213.596 160.329 205.119 165.223L133.655 206.482C125.179 211.376 114.734 211.376 106.258 206.482L34.7939 165.223C26.3175 160.329 21.0959 151.284 21.0957 141.496V82.5078H55.6621C56.6774 117.117 85.0516 144.86 119.906 144.86C154.761 144.86 183.134 117.116 184.149 82.5078H218.817V141.496Z" fill="#41AFFF"/>
<circle cx="120.386" cy="82.029" r="50.363" fill="#CCD4E0"/>
<circle cx="120.386" cy="76.2732" r="50.363" fill="#41AFFF"/>
<g clip-path="url(#clip0_1512_5437)">
<path d="M100.604 73.8693C100.604 61.6179 110.536 51.6855 122.787 51.6855C135.039 51.6855 144.971 61.6179 144.971 73.8693C144.971 86.1207 135.039 96.053 122.787 96.053V81.2642C124.25 81.2642 125.68 80.8305 126.896 80.0179C128.112 79.2054 129.06 78.0504 129.619 76.6992C130.179 75.3479 130.325 73.861 130.04 72.4266C129.755 70.9921 129.05 69.6744 128.016 68.6402C126.982 67.606 125.664 66.9017 124.23 66.6164C122.795 66.331 121.309 66.4775 119.957 67.0372C118.606 67.5969 117.451 68.5447 116.639 69.7608C115.826 70.9769 115.392 72.4067 115.392 73.8693V81.2642C115.392 89.4326 108.771 96.053 100.604 96.053V73.8693Z" stroke="#F0FDFA" stroke-width="3.83718" stroke-linecap="round" stroke-linejoin="round"/>
</g>
<defs>
<clipPath id="clip0_1512_5437">
<rect width="57.5577" height="57.5577" fill="white" transform="translate(89.2109 43.1758)"/>
</clipPath>
</defs>
</svg>
