<svg width="26" height="26" viewBox="0 0 26 26" fill="none" xmlns="http://www.w3.org/2000/svg">
<path d="M16.5428 10.063C16.4508 10.6087 16.3259 11.1543 16.1878 11.6736C15.9906 12.4297 15.6619 13.1791 15.0966 13.7182C14.6101 14.1849 13.9921 14.461 13.3676 14.678C12.651 14.9212 12.1449 14.9475 11.4151 14.6911C10.7249 14.4413 10.0346 14.1323 9.52185 13.5998C8.84473 12.8964 8.59492 11.9235 8.45029 10.99C8.28594 9.92496 8.13474 8.87312 8.23993 7.78841L8.38455 6.30926C8.45029 5.62557 8.83816 5.00104 9.41009 4.62632C9.96887 4.26475 10.646 4.17929 11.2837 4.02808C12.4144 3.76512 13.7423 3.93605 14.8467 4.2779C15.3727 4.44225 15.8723 4.71835 16.2141 5.14566C16.6612 5.71103 16.7861 6.47361 16.7729 7.19675C16.7532 8.13683 16.694 9.12951 16.5363 10.063H16.5428Z" stroke="#0A2342" stroke-width="1.02756" stroke-miterlimit="10"/>
<path d="M8.07422 9.06493C8.07422 9.06493 9.55336 8.91373 9.64539 7.94078C9.73743 6.96783 10.6512 6.19867 11.3349 6.87579C12.0186 7.55291 13.4057 7.40828 13.8461 7.02699C14.2866 6.6457 16.2325 6.79033 16.7847 8.44698" stroke="#0A2342" stroke-width="1.02756" stroke-miterlimit="10"/>
<path d="M11.4164 14.7025C11.4164 14.7025 11.2323 15.6755 7.20909 16.8588C3.18583 18.0421 3.97471 21.0398 3.97471 21.0398" stroke="#0A2342" stroke-width="1.02756" stroke-miterlimit="10"/>
<path d="M13.5332 14.7025C13.5332 14.7025 13.7173 15.6755 17.7405 16.8588C21.7638 18.0421 20.9749 21.0398 20.9749 21.0398" stroke="#0A2342" stroke-width="1.02756" stroke-miterlimit="10"/>
<path d="M9.66699 15.8715C9.66699 15.8715 11.9613 18.1789 14.604 15.8715" stroke="#0A2342" stroke-width="1.02756" stroke-miterlimit="10"/>
</svg>
