<svg width="167" height="54" viewBox="0 0 167 54" fill="none" xmlns="http://www.w3.org/2000/svg">
<rect width="167" height="54" rx="5" fill="#0A2342"/>
<path d="M43.141 27.2093C43.114 23.9567 45.598 22.3743 45.7116 22.3006C44.3048 20.0773 42.1242 19.7736 41.358 19.7493C39.5266 19.5404 37.7501 20.9372 36.8172 20.9372C35.8657 20.9372 34.429 19.7695 32.8807 19.8038C30.8882 19.8371 29.0242 21.0875 28.0019 23.0292C25.8921 26.9883 27.4656 32.8063 29.487 36.0064C30.4981 37.5737 31.6796 39.3236 33.2261 39.2621C34.7391 39.1945 35.3042 38.2166 37.13 38.2166C38.9391 38.2166 39.4698 39.2621 41.047 39.2227C42.6708 39.1945 43.6931 37.6484 44.6688 36.067C45.8373 34.2706 46.3066 32.5015 46.3252 32.4107C46.287 32.3965 43.1717 31.1078 43.141 27.2093Z" fill="white"/>
<path d="M40.1616 17.6442C40.9753 16.5411 41.5321 15.0404 41.3775 13.5176C40.1997 13.5741 38.7268 14.4006 37.8786 15.4794C37.1282 16.4301 36.4578 17.9883 36.631 19.4536C37.954 19.5606 39.3124 18.7301 40.1616 17.6442Z" fill="white"/>
<path d="M60.7613 15.485C60.7613 16.6729 60.4327 17.567 59.7763 18.1675C59.1683 18.7215 58.3043 18.9991 57.1851 18.9991C56.6302 18.9991 56.1554 18.9728 55.7578 18.9203V12.4302C56.2764 12.3394 56.8351 12.293 57.4384 12.293C58.5044 12.293 59.308 12.5443 59.8498 13.0468C60.4569 13.615 60.7613 14.4274 60.7613 15.485ZM59.7325 15.5143C59.7325 14.7443 59.5444 14.1539 59.1683 13.7422C58.7921 13.3314 58.2428 13.1256 57.5194 13.1256C57.2121 13.1256 56.9505 13.1478 56.7336 13.1942V18.1281C56.8537 18.1483 57.0734 18.1574 57.3928 18.1574C58.1395 18.1574 58.7158 17.9323 59.1217 17.4822C59.5277 17.0321 59.7325 16.3762 59.7325 15.5143Z" fill="white"/>
<path d="M66.2167 16.5221C66.2167 17.2538 66.024 17.8533 65.6385 18.3235C65.2344 18.8069 64.6991 19.0481 64.0305 19.0481C63.3863 19.0481 62.8732 18.817 62.4906 18.3528C62.1088 17.8896 61.918 17.3053 61.918 16.6008C61.918 15.8641 62.1144 15.2596 62.5092 14.7904C62.904 14.3211 63.4347 14.0859 64.1032 14.0859C64.7475 14.0859 65.2651 14.317 65.6571 14.7803C66.0295 15.2304 66.2167 15.8117 66.2167 16.5221ZM65.2046 16.5564C65.2046 16.1174 65.1171 15.741 64.943 15.4272C64.7382 15.0477 64.4467 14.858 64.0678 14.858C63.6758 14.858 63.3779 15.0477 63.173 15.4272C62.998 15.741 62.9114 16.1235 62.9114 16.5756C62.9114 17.0146 62.9989 17.391 63.173 17.7049C63.3844 18.0844 63.6786 18.2741 64.0585 18.2741C64.4309 18.2741 64.7233 18.0813 64.9337 17.6948C65.1143 17.3749 65.2046 16.9954 65.2046 16.5564Z" fill="white"/>
<path d="M73.531 14.1836L72.1577 18.9409H71.2639L70.695 16.8751C70.5507 16.3594 70.4334 15.8467 70.3421 15.3381H70.3244C70.2397 15.8609 70.1224 16.3725 69.9716 16.8751L69.3673 18.9409H68.4633L67.1719 14.1836H68.1746L68.6709 16.4452C68.791 16.9801 68.8897 17.4897 68.9688 17.9721H68.9865C69.0591 17.5745 69.1792 17.0679 69.3487 16.4553L69.9716 14.1846H70.7667L71.3635 16.4068C71.5078 16.9488 71.6251 17.4705 71.7154 17.9731H71.7425C71.8086 17.4837 71.9082 16.9619 72.0404 16.4068L72.573 14.1846H73.531V14.1836Z" fill="white"/>
<path d="M78.5893 18.9393H77.6136V16.2145C77.6136 15.3748 77.3194 14.955 76.7291 14.955C76.4395 14.955 76.2058 15.07 76.0243 15.3011C75.8446 15.5322 75.7533 15.8047 75.7533 16.1166V18.9383H74.7776V15.5413C74.7776 15.1235 74.7655 14.6704 74.7422 14.1799H75.5997L75.6453 14.9237H75.6723C75.7859 14.6926 75.9554 14.5019 76.1779 14.3495C76.4423 14.1718 76.7384 14.082 77.0624 14.082C77.472 14.082 77.8128 14.2253 78.0838 14.513C78.4208 14.8652 78.5893 15.391 78.5893 16.0893V18.9393Z" fill="white"/>
<path d="M81.2795 18.9402H80.3047V12H81.2795V18.9402Z" fill="white"/>
<path d="M87.0214 16.5221C87.0214 17.2538 86.8286 17.8533 86.4432 18.3235C86.0391 18.8069 85.5028 19.0481 84.8352 19.0481C84.19 19.0481 83.677 18.817 83.2953 18.3528C82.9135 17.8896 82.7227 17.3053 82.7227 16.6008C82.7227 15.8641 82.9191 15.2596 83.3139 14.7904C83.7087 14.3211 84.2394 14.0859 84.9069 14.0859C85.5522 14.0859 86.0689 14.317 86.4618 14.7803C86.8342 15.2304 87.0214 15.8117 87.0214 16.5221ZM86.0084 16.5564C86.0084 16.1174 85.9209 15.741 85.7467 15.4272C85.5428 15.0477 85.2505 14.858 84.8725 14.858C84.4796 14.858 84.1816 15.0477 83.9777 15.4272C83.8027 15.741 83.7161 16.1235 83.7161 16.5756C83.7161 17.0146 83.8036 17.391 83.9777 17.7049C84.1891 18.0844 84.4833 18.2741 84.8632 18.2741C85.2356 18.2741 85.527 18.0813 85.7374 17.6948C85.919 17.3749 86.0084 16.9954 86.0084 16.5564Z" fill="white"/>
<path d="M91.7438 18.9402H90.8677L90.7951 18.3922H90.7681C90.4683 18.8291 90.0409 19.0481 89.486 19.0481C89.0717 19.0481 88.7365 18.9038 88.4842 18.6172C88.2551 18.3568 88.1406 18.0329 88.1406 17.6484C88.1406 17.0671 88.3641 16.6241 88.8138 16.3173C89.2626 16.0105 89.8938 15.8601 90.7066 15.8672V15.7784C90.7066 15.1516 90.4031 14.8388 89.7951 14.8388C89.3622 14.8388 88.9804 14.9569 88.6508 15.191L88.4525 14.4967C88.8603 14.2232 89.364 14.0859 89.9581 14.0859C91.1051 14.0859 91.6805 14.7419 91.6805 16.0539V17.8058C91.6805 18.2811 91.7019 18.6596 91.7438 18.9402ZM90.7308 17.3053V16.5716C89.6545 16.5514 89.1164 16.8713 89.1164 17.5303C89.1164 17.7786 89.1778 17.9643 89.3035 18.0884C89.4292 18.2125 89.5894 18.2741 89.7802 18.2741C89.9944 18.2741 90.1945 18.2004 90.377 18.0541C90.5604 17.9067 90.6731 17.72 90.715 17.491C90.7252 17.4395 90.7308 17.3769 90.7308 17.3053Z" fill="white"/>
<path d="M97.2913 18.9402H96.4254L96.3798 18.1763H96.3528C96.0763 18.7576 95.6052 19.0482 94.9432 19.0482C94.4144 19.0482 93.974 18.8232 93.6248 18.3731C93.2757 17.923 93.1016 17.3386 93.1016 16.6211C93.1016 15.8511 93.2906 15.2274 93.6704 14.7511C94.0382 14.307 94.4888 14.085 95.0251 14.085C95.6145 14.085 96.027 14.2999 96.2616 14.7309H96.2802V12H97.2569V17.6585C97.2569 18.1218 97.2681 18.5487 97.2913 18.9402ZM96.2802 16.9339V16.1407C96.2802 16.0035 96.2709 15.8925 96.2532 15.8077C96.1983 15.5534 96.08 15.3394 95.9003 15.1668C95.7188 14.9943 95.5 14.9075 95.2476 14.9075C94.8836 14.9075 94.5987 15.0639 94.3892 15.3778C94.1816 15.6916 94.0764 16.0923 94.0764 16.5817C94.0764 17.052 94.176 17.4335 94.3762 17.7272C94.5875 18.04 94.8724 18.1964 95.229 18.1964C95.5493 18.1964 95.8054 18.0663 96 17.8049C96.188 17.5637 96.2802 17.273 96.2802 16.9339Z" fill="white"/>
<path d="M105.635 16.5221C105.635 17.2538 105.442 17.8533 105.056 18.3235C104.652 18.8069 104.118 19.0481 103.449 19.0481C102.805 19.0481 102.292 18.817 101.909 18.3528C101.527 17.8896 101.336 17.3053 101.336 16.6008C101.336 15.8641 101.532 15.2596 101.927 14.7904C102.322 14.3211 102.853 14.0859 103.522 14.0859C104.165 14.0859 104.684 14.317 105.075 14.7803C105.448 15.2304 105.635 15.8117 105.635 16.5221ZM104.624 16.5564C104.624 16.1174 104.536 15.741 104.362 15.4272C104.156 15.0477 103.866 14.858 103.486 14.858C103.095 14.858 102.797 15.0477 102.591 15.4272C102.416 15.741 102.329 16.1235 102.329 16.5756C102.329 17.0146 102.417 17.391 102.591 17.7049C102.802 18.0844 103.097 18.2741 103.476 18.2741C103.849 18.2741 104.142 18.0813 104.353 17.6948C104.532 17.3749 104.624 16.9954 104.624 16.5564Z" fill="white"/>
<path d="M110.881 18.9393H109.907V16.2145C109.907 15.3748 109.612 14.955 109.021 14.955C108.732 14.955 108.498 15.07 108.317 15.3011C108.137 15.5322 108.046 15.8047 108.046 16.1166V18.9383H107.07V15.5413C107.07 15.1235 107.058 14.6704 107.035 14.1799H107.892L107.937 14.9237H107.964C108.079 14.6926 108.248 14.5019 108.47 14.3495C108.735 14.1718 109.03 14.082 109.355 14.082C109.764 14.082 110.105 14.2253 110.376 14.513C110.714 14.8652 110.881 15.391 110.881 16.0893V18.9393Z" fill="white"/>
<path d="M117.454 14.9751H116.38V17.2861C116.38 17.8735 116.571 18.1671 116.949 18.1671C117.124 18.1671 117.269 18.151 117.384 18.1177L117.409 18.92C117.216 18.9987 116.963 19.0381 116.651 19.0381C116.265 19.0381 115.966 18.9109 115.749 18.6566C115.531 18.4023 115.423 17.9744 115.423 17.3739V14.9751H114.781V14.1828H115.423V13.3109L116.379 12.998V14.1818H117.453V14.9751H117.454Z" fill="white"/>
<path d="M122.613 18.9402H121.636V16.2356C121.636 15.3828 121.342 14.9559 120.752 14.9559C120.3 14.9559 119.991 15.2032 119.821 15.6977C119.792 15.8016 119.776 15.9288 119.776 16.0781V18.9392H118.801V12H119.776V14.8671H119.794C120.101 14.3454 120.542 14.085 121.113 14.085C121.517 14.085 121.851 14.2283 122.116 14.5159C122.447 14.8742 122.613 15.407 122.613 16.1115V18.9402Z" fill="white"/>
<path d="M127.941 16.3377C127.941 16.5274 127.928 16.6869 127.905 16.8171H124.979C124.992 17.2874 125.131 17.6456 125.402 17.8939C125.65 18.1159 125.969 18.2269 126.36 18.2269C126.793 18.2269 127.188 18.1522 127.544 18.0019L127.696 18.7366C127.28 18.9323 126.79 19.0302 126.223 19.0302C125.544 19.0302 125.008 18.8133 124.621 18.3793C124.232 17.9454 124.039 17.363 124.039 16.6324C124.039 15.9149 124.219 15.3174 124.581 14.8411C124.959 14.3324 125.47 14.0781 126.115 14.0781C126.747 14.0781 127.226 14.3324 127.55 14.8411C127.812 15.2448 127.941 15.7443 127.941 16.3377ZM127.01 16.0642C127.018 15.7504 126.953 15.4799 126.821 15.2518C126.652 14.9581 126.394 14.8108 126.045 14.8108C125.726 14.8108 125.466 14.9541 125.268 15.2417C125.106 15.4708 125.01 15.7443 124.979 16.0642H127.01Z" fill="white"/>
<path d="M65.0386 37.1784H62.9242L61.7659 33.2334H57.74L56.6367 37.1784H54.5781L58.5668 23.748H61.0304L65.0386 37.1784ZM61.4168 31.5784L60.3693 28.0714C60.2585 27.7132 60.0509 26.8695 59.7446 25.5414H59.7073C59.5854 26.1126 59.3889 26.9563 59.1189 28.0714L58.0901 31.5784H61.4168Z" fill="white"/>
<path d="M75.2953 32.2168C75.2953 33.8638 74.8847 35.1656 74.0635 36.1213C73.328 36.9721 72.4146 37.3969 71.3244 37.3969C70.1475 37.3969 69.3021 36.9388 68.7872 36.0224H68.75V41.1239H66.765V30.6818C66.765 29.6463 66.7398 28.5837 66.6914 27.4937H68.4371L68.5479 29.0287H68.5852C69.2472 27.8722 70.2518 27.2949 71.6 27.2949C72.6539 27.2949 73.5338 27.746 74.2377 28.6493C74.9434 29.5535 75.2953 30.7423 75.2953 32.2168ZM73.2731 32.2955C73.2731 31.3529 73.0776 30.5758 72.6846 29.9642C72.2554 29.3264 71.6791 29.0075 70.9566 29.0075C70.4669 29.0075 70.0218 29.1851 69.6242 29.5353C69.2258 29.8885 68.9651 30.3497 68.8431 30.921C68.7816 31.1874 68.7509 31.4054 68.7509 31.5769V33.1916C68.7509 33.8961 68.9502 34.4905 69.3487 34.9759C69.7471 35.4613 70.2648 35.7035 70.9017 35.7035C71.6493 35.7035 72.2312 35.3907 72.6474 34.767C73.0645 34.1423 73.2731 33.3188 73.2731 32.2955Z" fill="white"/>
<path d="M85.5718 32.2168C85.5718 33.8638 85.1612 35.1656 84.339 36.1213C83.6044 36.9721 82.6911 37.3969 81.6008 37.3969C80.4239 37.3969 79.5785 36.9388 79.0646 36.0224H79.0273V41.1239H77.0423V30.6818C77.0423 29.6463 77.0172 28.5837 76.9688 27.4937H78.7145L78.8253 29.0287H78.8625C79.5236 27.8722 80.5282 27.2949 81.8773 27.2949C82.9303 27.2949 83.8102 27.746 84.5159 28.6493C85.2189 29.5535 85.5718 30.7423 85.5718 32.2168ZM83.5495 32.2955C83.5495 31.3529 83.353 30.5758 82.9601 29.9642C82.5309 29.3264 81.9564 29.0075 81.233 29.0075C80.7423 29.0075 80.2982 29.1851 79.8997 29.5353C79.5012 29.8885 79.2415 30.3497 79.1195 30.921C79.059 31.1874 79.0273 31.4054 79.0273 31.5769V33.1916C79.0273 33.8961 79.2266 34.4905 79.6232 34.9759C80.0217 35.4603 80.5394 35.7035 81.1781 35.7035C81.9257 35.7035 82.5076 35.3907 82.9238 34.767C83.3409 34.1423 83.5495 33.3188 83.5495 32.2955Z" fill="white"/>
<path d="M97.0618 33.4116C97.0618 34.554 96.6959 35.4835 95.9613 36.201C95.1541 36.9852 94.0303 37.3767 92.5862 37.3767C91.253 37.3767 90.1841 37.0982 89.375 36.5401L89.8349 34.7468C90.7064 35.318 91.6626 35.6046 92.7045 35.6046C93.4521 35.6046 94.034 35.4209 94.4521 35.0556C94.8683 34.6903 95.0759 34.1998 95.0759 33.5882C95.0759 33.0432 94.9046 32.5841 94.561 32.2117C94.2193 31.8393 93.6486 31.4931 92.8516 31.1732C90.6822 30.2962 89.5985 29.0115 89.5985 27.3221C89.5985 26.2181 89.9783 25.3128 90.739 24.6084C91.4969 23.903 92.508 23.5508 93.7724 23.5508C94.8999 23.5508 95.8366 23.7637 96.5842 24.1886L96.0879 25.9426C95.3897 25.5308 94.6001 25.3249 93.7165 25.3249C93.0182 25.3249 92.4726 25.5116 92.0816 25.883C91.7511 26.2151 91.5853 26.6197 91.5853 27.0991C91.5853 27.6299 91.7743 28.0689 92.1542 28.4141C92.4847 28.733 93.0853 29.0781 93.9568 29.4505C95.0228 29.9158 95.8058 30.4597 96.3095 31.0834C96.8114 31.7051 97.0618 32.4831 97.0618 33.4116Z" fill="white"/>
<path d="M103.625 29.1078H101.437V33.8096C101.437 35.0055 101.822 35.6029 102.595 35.6029C102.95 35.6029 103.244 35.5696 103.477 35.503L103.532 37.1369C103.141 37.2953 102.626 37.3751 101.988 37.3751C101.204 37.3751 100.591 37.1157 100.149 36.598C99.7087 36.0793 99.4871 35.2093 99.4871 33.9872V29.1057H98.1836V27.491H99.4871V25.7179L101.437 25.0801V27.491H103.625V29.1078Z" fill="white"/>
<path d="M113.493 32.2571C113.493 33.7456 113.1 34.9677 112.316 35.9235C111.494 36.9074 110.403 37.3979 109.043 37.3979C107.732 37.3979 106.688 36.9266 105.91 35.984C105.131 35.0414 104.742 33.8516 104.742 32.4175C104.742 30.9168 105.143 29.6877 105.946 28.7319C106.748 27.7752 107.83 27.2969 109.19 27.2969C110.501 27.2969 111.556 27.7682 112.352 28.7118C113.113 29.6271 113.493 30.8089 113.493 32.2571ZM111.434 32.3267C111.434 31.4336 111.258 30.6676 110.901 30.0288C110.485 29.2557 109.89 28.8702 109.119 28.8702C108.321 28.8702 107.715 29.2567 107.299 30.0288C106.942 30.6686 106.766 31.4467 106.766 32.3671C106.766 33.2602 106.942 34.0262 107.299 34.664C107.728 35.437 108.328 35.8225 109.101 35.8225C109.859 35.8225 110.454 35.4289 110.883 34.6438C111.249 33.9929 111.434 33.2188 111.434 32.3267Z" fill="white"/>
<path d="M119.948 29.386C119.752 29.3466 119.542 29.3264 119.322 29.3264C118.624 29.3264 118.084 29.612 117.704 30.1842C117.374 30.6888 117.208 31.3266 117.208 32.0967V37.1779H115.224L115.242 30.5435C115.242 29.4273 115.217 28.4111 115.168 27.4947H116.897L116.97 29.3476H117.025C117.234 28.7108 117.565 28.1981 118.017 27.8136C118.459 27.4675 118.937 27.2949 119.452 27.2949C119.635 27.2949 119.801 27.3091 119.948 27.3343V29.386Z" fill="white"/>
<path d="M128.827 31.8783C128.827 32.2638 128.804 32.5887 128.754 32.8541H122.799C122.822 33.8109 123.11 34.5425 123.663 35.0471C124.165 35.4982 124.814 35.7243 125.611 35.7243C126.493 35.7243 127.297 35.5719 128.021 35.2661L128.331 36.7597C127.486 37.1594 126.488 37.3582 125.336 37.3582C123.951 37.3582 122.863 36.9161 122.072 36.0331C121.282 35.1501 120.887 33.9643 120.887 32.4767C120.887 31.0164 121.254 29.8003 121.991 28.8305C122.762 27.7951 123.804 27.2773 125.115 27.2773C126.402 27.2773 127.377 27.7951 128.039 28.8305C128.563 29.653 128.827 30.6702 128.827 31.8783ZM126.934 31.3202C126.947 30.6824 126.818 30.1313 126.548 29.6661C126.205 29.0676 125.677 28.7689 124.967 28.7689C124.318 28.7689 123.79 29.0606 123.387 29.6459C123.056 30.1112 122.86 30.6692 122.799 31.3192H126.934V31.3202Z" fill="white"/>
</svg>
