<svg width="26" height="26" viewBox="0 0 26 26" fill="none" xmlns="http://www.w3.org/2000/svg">
<path d="M12.4374 4.35712C12.2157 4.16679 12.3398 3.90267 12.5527 3.72788C12.9785 3.37441 13.626 3.46375 13.9852 3.77837C14.1936 3.96481 14.3089 4.32604 14.2868 4.59794C14.2646 4.89702 14.0207 5.13785 13.7235 5.26214C13.4486 5.37867 13.0672 5.44858 12.7612 5.48354" stroke="#0A2342" stroke-miterlimit="10" stroke-linecap="round"/>
<path d="M10.8369 9.85773C10.8369 9.85773 11.4301 9.29364 12.2606 9.85773" stroke="#0A2342" stroke-miterlimit="10" stroke-linecap="round"/>
<path d="M14.8877 9.85773C14.8877 9.85773 15.4809 9.29364 16.3114 9.85773" stroke="#0A2342" stroke-miterlimit="10" stroke-linecap="round"/>
<path d="M12.4473 11.5846C12.4473 11.5846 13.3851 12.4802 14.7015 11.5846" stroke="#0A2342" stroke-miterlimit="10" stroke-linecap="round"/>
<path d="M13.3059 14.1725C16.0486 14.1725 18.272 12.2252 18.272 9.8231C18.272 7.42097 16.0486 5.47366 13.3059 5.47366C10.5632 5.47366 8.33984 7.42097 8.33984 9.8231C8.33984 12.2252 10.5632 14.1725 13.3059 14.1725Z" stroke="#0A2342" stroke-miterlimit="10" stroke-linecap="round"/>
<path d="M13.7126 19.0762H8.69564V17.948C8.69564 17.948 8.59394 16.9683 10.1872 16.998C11.69 17.0276 13.1985 17.0128 14.7013 16.9881C15.368 16.9782 16.0346 16.9584 16.6956 17.0375C17.2098 17.1019 17.8708 17.2454 17.9103 17.7996V18.898" stroke="#0A2342" stroke-miterlimit="10" stroke-linecap="round"/>
<path d="M9.49805 16.9782V16.2409" stroke="#0A2342" stroke-miterlimit="10" stroke-linecap="round"/>
<path d="M17.2266 16.9782V16.2409" stroke="#0A2342" stroke-miterlimit="10" stroke-linecap="round"/>
<path d="M15.501 19.0762C15.501 19.135 15.4722 19.1736 15.4541 19.1895C15.4376 19.2039 15.4262 19.2051 15.4248 19.2051C15.4241 19.2051 15.4116 19.2044 15.3945 19.1895C15.381 19.1774 15.3622 19.1525 15.3535 19.1162L15.3486 19.0762C15.3486 19.0178 15.3764 18.9789 15.3945 18.9629C15.4116 18.9479 15.4241 18.9473 15.4248 18.9473L15.4541 18.9629C15.4722 18.9787 15.501 19.0174 15.501 19.0762Z" fill="#0A2342" stroke="#0A2342"/>
<path d="M11.9561 23.1733H14.6566" stroke="#0A2342" stroke-miterlimit="10" stroke-linecap="round"/>
<path d="M11.4697 22.6339L11.9556 23.1238" stroke="#0A2342" stroke-miterlimit="10" stroke-linecap="round"/>
<path d="M14.6562 23.1238L15.1421 22.6339" stroke="#0A2342" stroke-miterlimit="10" stroke-linecap="round"/>
<path d="M9.87081 13.2124C9.87081 13.2124 5.75782 14.7265 6.57138 17.9626C6.81997 18.9423 8.59398 19.0759 8.59398 19.0759" stroke="#0A2342" stroke-miterlimit="10" stroke-linecap="round"/>
<path d="M16.7695 13.0293C16.7695 13.0293 20.8769 14.5434 20.0633 17.7795C19.8147 18.7593 18.0407 18.8929 18.0407 18.8929" stroke="#0A2342" stroke-miterlimit="10" stroke-linecap="round"/>
<path d="M9.70148 23.1193C9.58284 23.1935 9.45289 23.2529 9.32295 23.3024C8.89357 23.4755 8.40769 23.5448 7.96137 23.3667C7.70148 23.2628 7.52634 23.0945 7.35685 22.9016C6.53199 21.9812 5.10826 20.2444 6.76928 19.4181C7.66758 18.8094 8.98397 19.0469 9.48679 20.0514C9.67323 20.4225 9.88792 20.7887 10.0574 21.1648C10.2269 21.5408 10.3907 21.9763 10.306 22.387C10.2439 22.6987 9.99526 22.9362 9.70148 23.1143V23.1193Z" stroke="#0A2342" stroke-miterlimit="10"/>
<path d="M16.735 23.1193C16.8536 23.1935 16.9836 23.2529 17.1135 23.3024C17.5429 23.4755 18.0288 23.5448 18.4751 23.3667C18.735 23.2628 18.9101 23.0945 19.0796 22.9016C19.9045 21.9812 21.3282 20.2444 19.6672 19.4181C18.7689 18.8094 17.4525 19.0469 16.9497 20.0514C16.7632 20.4225 16.5486 20.7887 16.3791 21.1648C16.2096 21.5408 16.0457 21.9763 16.1305 22.387C16.1926 22.6987 16.4412 22.9362 16.735 23.1143V23.1193Z" stroke="#0A2342" stroke-miterlimit="10"/>
</svg>
