<svg width="26" height="26" viewBox="0 0 26 26" fill="none" xmlns="http://www.w3.org/2000/svg">
<path d="M6.67478 17.4611C7.24485 17.4611 7.70698 17.0168 7.70698 16.4688C7.70698 15.9208 7.24485 15.4766 6.67478 15.4766C6.10471 15.4766 5.64258 15.9208 5.64258 16.4688C5.64258 17.0168 6.10471 17.4611 6.67478 17.4611Z" fill="#0A2342"/>
<path d="M6.67375 20.0007C8.7027 20.0007 10.3475 18.4195 10.3475 16.4691C10.3475 14.5186 8.7027 12.9375 6.67375 12.9375C4.64479 12.9375 3 14.5186 3 16.4691C3 18.4195 4.64479 20.0007 6.67375 20.0007Z" stroke="#0A2342" stroke-width="1.2" stroke-miterlimit="10"/>
<path d="M19.3261 20.0007C21.355 20.0007 22.9998 18.4195 22.9998 16.4691C22.9998 14.5186 21.355 12.9375 19.3261 12.9375C17.2971 12.9375 15.6523 14.5186 15.6523 16.4691C15.6523 18.4195 17.2971 20.0007 19.3261 20.0007Z" stroke="#0A2342" stroke-width="1.2" stroke-miterlimit="10"/>
<path d="M9.17676 8.24359V8.24457C9.36862 8.2564 9.49406 8.40305 9.49805 8.54828V8.61176C9.50155 8.74132 9.41427 8.87137 9.2627 8.91449L9.19434 8.92816L5.83203 9.2475C5.61073 9.26892 5.45703 9.10599 5.45703 8.93988V8.35883C5.45703 8.19602 5.60521 8.03608 5.81641 8.0473L9.17676 8.24359Z" fill="#0A2342" stroke="#0A2342"/>
<path d="M12.0469 6L13.1255 6.11203C13.7657 6.18138 14.3252 6.55481 14.5847 7.10429L19.1759 16.6908" stroke="#0A2342" stroke-miterlimit="10" stroke-linecap="round"/>
<path d="M7.47852 9.04208L13.0156 15.9239V17.9084" stroke="#0A2342" stroke-miterlimit="10" stroke-linecap="round"/>
<path d="M5.60938 16.468L12.8076 16.1479L15.6108 10.2477C15.7204 10.0236 15.5243 9.77287 15.259 9.78888L8.45292 10.2583L5.81125 16.468" stroke="#0A2342" stroke-miterlimit="10" stroke-linecap="round"/>
</svg>
