<svg width="26" height="26" viewBox="0 0 26 26" fill="none" xmlns="http://www.w3.org/2000/svg">
<path d="M7.79395 16.8698H8.87643" stroke="#0A2342" stroke-miterlimit="10" stroke-linecap="round"/>
<path d="M4.06946 16.8698H2.71635C2.31838 16.8698 2 16.5514 2 16.1534V7.59961C2 7.27062 2.26532 7 2.59961 7H21.7024C22.0261 7 22.302 7.22287 22.3763 7.53594L23.4004 11.9349V15.6387C23.4004 16.3179 22.8485 16.8698 22.1693 16.8698H21.453" stroke="#0A2342" stroke-miterlimit="10" stroke-linecap="round"/>
<path d="M17.7278 16.8698H10.1504" stroke="#0A2342" stroke-miterlimit="10" stroke-linecap="round"/>
<path d="M18.4282 14.0043H17.5049" stroke="#0A2342" stroke-miterlimit="10" stroke-linecap="round"/>
<path d="M6.26562 8.18329V12.1949" stroke="#0A2342" stroke-miterlimit="10" stroke-linecap="round"/>
<path d="M8.75447 8.1037H3.84082C3.59758 8.1037 3.40039 8.30088 3.40039 8.54412V11.834C3.40039 12.0773 3.59758 12.2745 3.84082 12.2745H8.75447C8.99771 12.2745 9.19489 12.0773 9.19489 11.834V8.54412C9.19489 8.30088 8.99771 8.1037 8.75447 8.1037Z" stroke="#0A2342" stroke-miterlimit="10" stroke-linecap="round"/>
<path d="M13.334 8.14615V9.13312" stroke="#0A2342" stroke-miterlimit="10" stroke-linecap="round"/>
<path d="M13.334 10.6613V12.1577" stroke="#0A2342" stroke-miterlimit="10" stroke-linecap="round"/>
<path d="M15.7906 8.1037H10.8769C10.6337 8.1037 10.4365 8.30088 10.4365 8.54412V11.834C10.4365 12.0773 10.6337 12.2745 10.8769 12.2745H15.7906C16.0338 12.2745 16.231 12.0773 16.231 11.834V8.54412C16.231 8.30088 16.0338 8.1037 15.7906 8.1037Z" stroke="#0A2342" stroke-miterlimit="10" stroke-linecap="round"/>
<path d="M5.89963 18.6527C6.92827 18.6527 7.76215 17.8188 7.76215 16.7902C7.76215 15.7615 6.92827 14.9276 5.89963 14.9276C4.87099 14.9276 4.03711 15.7615 4.03711 16.7902C4.03711 17.8188 4.87099 18.6527 5.89963 18.6527Z" stroke="#0A2342" stroke-miterlimit="10" stroke-linecap="round"/>
<path d="M19.5901 18.6527C20.6187 18.6527 21.4526 17.8188 21.4526 16.7902C21.4526 15.7615 20.6187 14.9276 19.5901 14.9276C18.5614 14.9276 17.7275 15.7615 17.7275 16.7902C17.7275 17.8188 18.5614 18.6527 19.5901 18.6527Z" stroke="#0A2342" stroke-miterlimit="10" stroke-linecap="round"/>
<path d="M22.5245 8.18332H18.3484C18.0035 8.18332 17.7275 8.45925 17.7275 8.80416V11.6112C17.7275 11.9614 17.9398 12.2798 18.2688 12.4125C19.9031 13.0811 21.6383 13.479 23.3947 13.6064" stroke="#0A2342" stroke-miterlimit="10" stroke-linecap="round"/>
</svg>
