<svg width="26" height="26" viewBox="0 0 26 26" fill="none" xmlns="http://www.w3.org/2000/svg">
<path d="M8.83008 20.1461H17.3907" stroke="#0A2342" stroke-width="0.9" stroke-miterlimit="10"/>
<path d="M21.4342 19.3003C22.3978 19.2899 23.8631 19.5501 24.3308 18.5301C24.4322 18.3063 24.4604 18.0618 24.4886 17.8172C24.652 16.4434 24.3759 14.5284 22.6007 14.2369C22.0146 14.1433 21.4398 14.1381 20.8931 13.9091C19.8788 13.4928 19.2532 12.4781 18.6164 11.6819C18.2388 11.2135 17.8274 10.7556 17.3202 10.4069C16.1875 9.62635 14.6997 9.24647 13.3303 9.02791L13.2063 9.0175C12.9584 9.02791 12.7104 8.99148 12.4568 9.00189C11.403 9.05393 10.5182 9.24127 9.53764 9.59513C8.77121 9.87093 7.73992 10.3393 7.17637 10.9117C6.4832 11.6246 5.89147 12.4312 5.3392 13.2326C5.07433 13.6125 4.66857 13.8831 4.18956 13.982C3.54148 14.1173 2.6567 14.3514 2.3862 14.6949C2.31857 14.7781 2.27349 14.877 2.23404 14.9811C2.01426 15.5535 2.00862 16.2144 2.00299 16.818C1.99735 17.4217 1.96917 18.0201 2.3073 18.5457C2.48764 18.8371 2.76941 19.0817 3.10754 19.2066C3.47385 19.3419 3.89088 19.2899 4.291 19.2586C4.57841 19.2326 4.85454 19.1806 5.15323 19.2586" stroke="#0A2342" stroke-width="0.719909" stroke-miterlimit="10"/>
<path d="M7.23399 21.9999C8.45485 21.9999 9.44455 20.9873 9.44455 19.7381C9.44455 18.4889 8.45485 17.4762 7.23399 17.4762C6.01314 17.4762 5.02344 18.4889 5.02344 19.7381C5.02344 20.9873 6.01314 21.9999 7.23399 21.9999Z" stroke="#0A2342" stroke-miterlimit="10"/>
<path d="M7.23364 20.6944C7.74992 20.6944 8.16845 20.2662 8.16845 19.7379C8.16845 19.2096 7.74992 18.7814 7.23364 18.7814C6.71736 18.7814 6.29883 19.2096 6.29883 19.7379C6.29883 20.2662 6.71736 20.6944 7.23364 20.6944Z" stroke="#0A2342" stroke-miterlimit="10"/>
<path d="M19.3297 21.9999C20.5506 21.9999 21.5403 20.9873 21.5403 19.7381C21.5403 18.4889 20.5506 17.4762 19.3297 17.4762C18.1088 17.4762 17.1191 18.4889 17.1191 19.7381C17.1191 20.9873 18.1088 21.9999 19.3297 21.9999Z" stroke="#0A2342" stroke-miterlimit="10"/>
<path d="M19.3293 20.6944C19.8456 20.6944 20.2642 20.2662 20.2642 19.7379C20.2642 19.2096 19.8456 18.7814 19.3293 18.7814C18.8131 18.7814 18.3945 19.2096 18.3945 19.7379C18.3945 20.2662 18.8131 20.6944 19.3293 20.6944Z" stroke="#0A2342" stroke-miterlimit="10"/>
<path d="M2.28125 15.9151H3.54599C3.73296 15.9151 3.85943 16.1064 3.79345 16.2864L3.46901 17.1585C3.43052 17.2654 3.33154 17.333 3.22156 17.333H2.28125" stroke="#0A2342" stroke-miterlimit="10"/>
<path d="M6.43359 15.3249H7.49488" stroke="#0A2342" stroke-miterlimit="10" stroke-linecap="round"/>
<path d="M13.1367 15.3249H14.2035" stroke="#0A2342" stroke-miterlimit="10" stroke-linecap="round"/>
<path d="M23.7227 15.5745L21.9238 15.5703C21.7526 15.5703 21.6499 15.7547 21.7458 15.893L22.355 16.7754C22.6426 17.1969 23.1354 17.4471 23.6557 17.4471L24.2227 17.1991" stroke="#0A2342" stroke-width="0.9" stroke-miterlimit="10" stroke-linecap="round"/>
<path d="M7.44673 14.3402H11.3839C11.6974 14.3402 11.9558 14.0813 11.9558 13.7606V11.3412C11.9558 10.8686 11.5544 10.5085 11.098 10.5648C10.0147 10.6998 8.16158 11.3243 7.14429 13.8619C7.05081 14.0926 7.21028 14.3402 7.45223 14.3402H7.44673Z" stroke="#0A2342" stroke-miterlimit="10"/>
<path d="M16.739 11.7512C17.2669 12.2407 17.7563 12.9159 18.1358 13.8555C18.2292 14.0862 18.0698 14.3338 17.8278 14.3338H13.8961C13.5772 14.3338 13.3242 14.075 13.3242 13.7543V11.3349C13.3242 10.8679 13.7256 10.5021 14.182 10.5584C14.6714 10.6203 15.3203 10.7835 15.9747 11.1773" stroke="#0A2342" stroke-miterlimit="10" stroke-linecap="round"/>
</svg>
