<svg width="1129" height="215" viewBox="0 0 1129 215" fill="none" xmlns="http://www.w3.org/2000/svg">
<path d="M193.282 113.471C220.615 118.804 242.633 136.024 255.055 158.749L255.082 158.754L272.808 67.2231C252.807 83.6318 225.953 91.3348 198.602 85.9984C171.251 80.6621 148.438 62.7868 136.155 39.4369L136.137 39.4333L118.201 132.048L119.108 132.225C139.108 115.825 165.949 108.139 193.282 113.471Z" fill="#E6F7FF"/>
<path d="M443.895 135.604C471.714 136.801 496.032 150.545 511.675 171.165L511.703 171.166L515.71 78.008C498.354 97.2176 472.935 108.84 445.098 107.643C417.261 106.445 392.058 92.1715 376.462 70.913L376.443 70.9122L372.388 165.173L373.312 165.213C390.667 146.012 416.076 134.408 443.895 135.604Z" fill="#E6F7FF"/>
<path d="M685.076 135.589C712.917 135.141 738.005 147.425 754.837 167.086L754.865 167.085L753.365 73.8528C737.173 94.0538 712.485 107.157 684.626 107.606C656.766 108.054 630.765 95.2934 613.94 74.993L613.922 74.9933L615.44 169.329L616.364 169.314C632.556 149.122 657.235 136.038 685.076 135.589Z" fill="#E6F7FF"/>
<path d="M935.753 112.918C963.085 107.585 989.927 115.271 1009.93 131.671L1009.95 131.666L992.228 40.1344C979.807 62.8688 957.783 80.1082 930.432 85.4445C903.081 90.7809 875.258 82.7853 855.155 65.754L855.137 65.7576L873.072 158.372L873.979 158.195C886.402 135.47 908.42 118.25 935.753 112.918Z" fill="#E6F7FF"/>
<path d="M985.012 72.2097C985.012 32.3432 1017.22 0.0345459 1056.94 0.0345459C1096.66 0.0345459 1128.86 32.3525 1128.86 72.2097C1128.86 112.067 1096.66 144.385 1056.94 144.385C1017.22 144.385 985.012 112.067 985.012 72.2097Z" fill="#00AA87"/>
<path d="M985.012 72.2097C985.012 32.3432 1017.22 0.0345459 1056.94 0.0345459C1096.66 0.0345459 1128.86 32.3525 1128.86 72.2097C1128.86 112.067 1096.66 144.385 1056.94 144.385C1017.22 144.385 985.012 112.067 985.012 72.2097Z" fill="#0A62A5"/>
<path d="M824.054 192.109C862.865 183.611 887.461 145.151 878.992 106.206C870.523 67.2612 832.195 42.5796 793.385 51.078C754.575 59.5765 729.979 98.0368 738.448 136.982C746.917 175.926 785.244 200.608 824.054 192.109Z" fill="#00AAB4"/>
<path d="M808.616 193.758C848.345 193.758 880.599 161.449 880.657 121.594C880.714 81.7388 848.553 49.43 808.824 49.43C769.094 49.43 736.84 81.7388 736.783 121.594C736.725 161.449 768.886 193.758 808.616 193.758Z" fill="#0A62A5"/>
<path d="M345.724 189.071C382.863 174.929 401.546 133.253 387.453 95.9849C373.36 58.7167 331.828 39.9691 294.688 54.1111C257.549 68.2531 238.866 109.929 252.959 147.198C267.052 184.466 308.584 203.213 345.724 189.071Z" fill="#008CB4"/>
<path d="M345.724 189.071C382.863 174.929 401.546 133.253 387.453 95.9849C373.36 58.7167 331.828 39.9691 294.688 54.1111C257.549 68.2531 238.866 109.929 252.959 147.198C267.052 184.466 308.584 203.213 345.724 189.071Z" fill="#0A62A5"/>
<path d="M589.954 189.071C627.094 174.929 645.776 133.253 631.683 95.9849C617.59 58.7167 576.058 39.9691 538.919 54.1111C501.779 68.2531 483.097 109.929 497.19 147.198C511.283 184.466 552.815 203.213 589.954 189.071Z" fill="#008CB4"/>
<path d="M589.954 189.071C627.094 174.929 645.776 133.253 631.683 95.9849C617.59 58.7167 576.058 39.9691 538.919 54.1111C501.779 68.2531 483.097 109.929 497.19 147.198C511.283 184.466 552.815 203.213 589.954 189.071Z" fill="#0A62A5"/>
<path d="M143.832 72.1848C143.832 32.3183 111.634 0.00867083 71.916 0.019359C32.1979 0.0300471 -4.87968e-06 32.357 -3.14355e-06 72.2235C-1.40741e-06 112.09 32.1979 144.4 71.916 144.389C111.634 144.378 143.832 112.051 143.832 72.1848Z" fill="#0A62A5"/>
<path d="M125.485 84.1579C132.066 54.4664 113.415 25.043 83.8264 18.4388C54.2376 11.8347 24.9159 30.5506 18.3346 60.242C11.7532 89.9334 30.4044 119.357 59.9932 125.961C89.582 132.565 118.904 113.849 125.485 84.1579Z" fill="#0A2342"/>
<path d="M80.0346 70.218C83.4358 70.218 86.1609 67.4725 86.1609 64.0713C86.1609 60.6701 83.4358 57.9245 80.0346 57.9245C76.6334 57.9245 73.8879 60.6701 73.8879 64.0713C73.8879 67.4725 76.6334 70.218 80.0346 70.218ZM63.6432 70.218C67.0445 70.218 69.7695 67.4725 69.7695 64.0713C69.7695 60.6701 67.0445 57.9245 63.6432 57.9245C60.242 57.9245 57.4965 60.6701 57.4965 64.0713C57.4965 67.4725 60.242 70.218 63.6432 70.218ZM63.6432 74.3159C58.8692 74.3159 49.3008 76.7131 49.3008 81.4871V86.6094H77.9857V81.4871C77.9857 76.7131 68.4172 74.3159 63.6432 74.3159ZM80.0346 74.3159C79.4404 74.3159 78.7643 74.3569 78.0472 74.4183C80.4239 76.1394 82.0835 78.4547 82.0835 81.4871V86.6094H94.3771V81.4871C94.3771 76.7131 84.8086 74.3159 80.0346 74.3159Z" fill="white"/>
<path d="M753.84 121.568C753.84 91.1509 778.413 66.4929 808.724 66.4929C839.036 66.4929 863.609 91.1509 863.609 121.568C863.609 151.985 839.036 176.643 808.724 176.643C778.413 176.643 753.84 151.985 753.84 121.568Z" fill="#00D7E1"/>
<path d="M753.84 121.568C753.84 91.1509 778.413 66.4929 808.724 66.4929C839.036 66.4929 863.609 91.1509 863.609 121.568C863.609 151.985 839.036 176.643 808.724 176.643C778.413 176.643 753.84 151.985 753.84 121.568Z" fill="#0A2342"/>
<path d="M816.923 99.1919C817.467 99.1919 817.988 99.4078 818.372 99.792C818.756 100.176 818.972 100.697 818.972 101.241V103.29H829.217V115.583H825.08L830.706 131.042C831.107 132.082 831.292 133.193 831.249 134.307C831.206 135.421 830.936 136.514 830.456 137.52C829.976 138.526 829.296 139.424 828.457 140.158C827.619 140.892 826.639 141.447 825.578 141.79C824.518 142.133 823.398 142.255 822.289 142.15C821.179 142.046 820.102 141.715 819.124 141.18C818.147 140.645 817.288 139.916 816.602 139.038C815.916 138.16 815.416 137.151 815.132 136.073H806.42C805.955 137.871 804.892 139.458 803.407 140.573C801.922 141.689 800.102 142.267 798.245 142.213C796.388 142.159 794.605 141.477 793.187 140.277C791.768 139.077 790.8 137.432 790.439 135.609C789.775 135.263 789.219 134.74 788.831 134.1C788.443 133.459 788.238 132.724 788.238 131.975V111.485C788.238 110.942 788.454 110.421 788.838 110.037C789.223 109.652 789.744 109.437 790.287 109.437H804.63C805.173 109.437 805.694 109.652 806.078 110.037C806.463 110.421 806.679 110.942 806.679 111.485V121.73C806.679 122.273 806.894 122.795 807.279 123.179C807.663 123.563 808.184 123.779 808.728 123.779H812.825C813.369 123.779 813.89 123.563 814.274 123.179C814.658 122.795 814.874 122.273 814.874 121.73V103.29H808.728V99.1919H816.923ZM823.07 129.926C822.199 129.926 821.35 130.204 820.647 130.72C819.945 131.235 819.425 131.961 819.163 132.792C818.901 133.623 818.911 134.516 819.191 135.341C819.471 136.167 820.007 136.881 820.721 137.381C821.435 137.88 822.29 138.14 823.161 138.12C824.032 138.101 824.875 137.805 825.566 137.274C826.257 136.744 826.762 136.007 827.005 135.17C827.249 134.334 827.22 133.441 826.922 132.622L826.887 132.532C826.587 131.764 826.062 131.104 825.381 130.639C824.7 130.174 823.895 129.926 823.07 129.926ZM798.483 129.926C797.396 129.926 796.354 130.357 795.585 131.126C794.817 131.894 794.385 132.937 794.385 134.024C794.385 135.11 794.817 136.153 795.585 136.921C796.354 137.69 797.396 138.121 798.483 138.121C799.57 138.121 800.612 137.69 801.381 136.921C802.149 136.153 802.581 135.11 802.581 134.024C802.581 132.937 802.149 131.894 801.381 131.126C800.612 130.357 799.57 129.926 798.483 129.926ZM802.581 113.534H792.336V117.632H802.581V113.534ZM825.119 107.388H818.972V111.485H825.119V107.388Z" fill="white"/>
<path d="M1002.06 72.2098C1002.06 41.793 1026.64 17.1349 1056.95 17.1349C1087.26 17.1349 1111.83 41.793 1111.83 72.2098C1111.83 102.627 1087.26 127.285 1056.95 127.285C1026.64 127.285 1002.06 102.627 1002.06 72.2098Z" fill="#0A2342"/>
<path d="M1056.95 95.0848C1044.5 95.0848 1034.41 84.9938 1034.41 72.5466C1034.41 60.0994 1044.5 50.0085 1056.95 50.0085C1069.4 50.0085 1079.49 60.0994 1079.49 72.5466C1079.49 84.9938 1069.4 95.0848 1056.95 95.0848ZM1059 59.2286H1054.9V73.3949L1063.1 81.5906L1065.99 78.6934L1059 71.6984V59.2286Z" fill="white"/>
<path d="M373.782 133.505C380.363 103.813 361.712 74.39 332.123 67.7858C302.534 61.1816 273.213 79.8976 266.631 109.589C260.05 139.28 278.701 168.704 308.29 175.308C337.879 181.912 367.201 163.196 373.782 133.505Z" fill="#00AAE1"/>
<path d="M373.782 133.505C380.363 103.813 361.712 74.39 332.123 67.7858C302.534 61.1816 273.213 79.8976 266.631 109.589C260.05 139.28 278.701 168.704 308.29 175.308C337.879 181.912 367.201 163.196 373.782 133.505Z" fill="#0A2342"/>
<path d="M618.012 133.505C624.594 103.813 605.943 74.3898 576.354 67.7856C546.765 61.1814 517.443 79.8973 510.862 109.589C504.281 139.28 522.932 168.704 552.521 175.308C582.109 181.912 611.431 163.196 618.012 133.505Z" fill="#00AAE1"/>
<path d="M618.012 133.505C624.594 103.813 605.943 74.3898 576.354 67.7856C546.765 61.1814 517.443 79.8973 510.862 109.589C504.281 139.28 522.932 168.704 552.521 175.308C582.109 181.912 611.431 163.196 618.012 133.505Z" fill="#0A2342"/>
<g clip-path="url(#clip0_3195_2199)">
<path d="M309.336 109.97L307.046 116.524H316.489V109.148H310.504C309.981 109.148 309.513 109.478 309.344 109.97H309.336ZM301.775 116.67L304.687 108.348C305.556 105.882 307.884 104.23 310.496 104.23H325.702C327.638 104.23 329.459 105.144 330.619 106.689L338.011 116.547C343.151 116.869 347.215 121.141 347.215 126.358V127.588C347.215 130.3 345.01 132.505 342.298 132.505H341.038C340.73 135.955 337.834 138.652 334.307 138.652C330.78 138.652 327.884 135.955 327.576 132.505H316.458C316.151 135.955 313.254 138.652 309.728 138.652C306.201 138.652 303.304 135.955 302.997 132.505H302.966C300.254 132.505 298.049 130.3 298.049 127.588V121.441C298.049 119.128 299.639 117.192 301.783 116.67H301.775ZM331.848 116.524L326.685 109.639C326.455 109.332 326.086 109.148 325.702 109.148H320.17V116.524H331.848ZM309.72 134.964C311.418 134.964 312.793 133.589 312.793 131.891C312.793 130.193 311.418 128.817 309.72 128.817C308.022 128.817 306.647 130.193 306.647 131.891C306.647 133.589 308.022 134.964 309.72 134.964ZM337.38 131.891C337.38 130.193 336.005 128.817 334.307 128.817C332.609 128.817 331.234 130.193 331.234 131.891C331.234 133.589 332.609 134.964 334.307 134.964C336.005 134.964 337.38 133.589 337.38 131.891Z" fill="white"/>
</g>
<path d="M545.508 123.813C545.508 128.786 547.483 133.555 551 137.072C554.516 140.588 559.285 142.563 564.258 142.563C564.258 132.147 555.862 123.813 545.508 123.813ZM564.258 108.188C565.639 108.188 566.964 108.737 567.941 109.714C568.917 110.691 569.466 112.015 569.466 113.397C569.466 114.778 568.917 116.103 567.941 117.08C566.964 118.056 565.639 118.605 564.258 118.605C562.876 118.605 561.552 118.056 560.575 117.08C559.598 116.103 559.049 114.778 559.049 113.397C559.049 112.015 559.598 110.691 560.575 109.714C561.552 108.737 562.876 108.188 564.258 108.188ZM550.924 118.084C550.924 119.466 551.473 120.79 552.45 121.767C553.427 122.744 554.751 123.293 556.133 123.293C557.237 123.293 558.258 122.938 559.049 122.376V122.772C559.049 124.153 559.598 125.478 560.575 126.455C561.552 127.431 562.876 127.98 564.258 127.98C565.639 127.98 566.964 127.431 567.941 126.455C568.917 125.478 569.466 124.153 569.466 122.772V122.376C570.258 122.938 571.279 123.293 572.383 123.293C573.764 123.293 575.089 122.744 576.066 121.767C577.042 120.79 577.591 119.466 577.591 118.084C577.591 116.001 576.362 114.23 574.612 113.397C576.362 112.563 577.591 110.772 577.591 108.709C577.591 107.328 577.042 106.003 576.066 105.026C575.089 104.05 573.764 103.501 572.383 103.501C571.279 103.501 570.258 103.834 569.466 104.418V104.022C569.466 102.64 568.917 101.316 567.941 100.339C566.964 99.3621 565.639 98.8134 564.258 98.8134C562.876 98.8134 561.552 99.3621 560.575 100.339C559.598 101.316 559.049 102.64 559.049 104.022V104.418C558.258 103.834 557.237 103.501 556.133 103.501C554.751 103.501 553.427 104.05 552.45 105.026C551.473 106.003 550.924 107.328 550.924 108.709C550.924 110.772 552.154 112.563 553.904 113.397C552.154 114.23 550.924 116.001 550.924 118.084ZM564.258 142.563C569.231 142.563 574 140.588 577.516 137.072C581.032 133.555 583.008 128.786 583.008 123.813C572.591 123.813 564.258 132.147 564.258 142.563Z" fill="white"/>
<defs>
<clipPath id="clip0_3195_2199">
<rect width="49.1741" height="49.1741" fill="white" transform="translate(298.043 96.8541)"/>
</clipPath>
</defs>
</svg>
