<svg width="26" height="26" viewBox="0 0 26 26" fill="none" xmlns="http://www.w3.org/2000/svg">
<g clip-path="url(#clip0_3367_7027)">
<path d="M19.6836 15.9112C19.9181 15.9113 20.1084 16.1015 20.1084 16.336C20.1084 16.5705 19.9181 16.7608 19.6836 16.7608C19.4491 16.7608 19.2588 16.5706 19.2588 16.336C19.2588 16.1015 19.449 15.9112 19.6836 15.9112Z" fill="#231F20" stroke="#0A2342"/>
<path d="M19.6838 19.6271C21.5014 19.6271 22.975 18.1536 22.975 16.3359C22.975 14.5183 21.5014 13.0447 19.6838 13.0447C17.8661 13.0447 16.3926 14.5183 16.3926 16.3359C16.3926 18.1536 17.8661 19.6271 19.6838 19.6271Z" stroke="#0A2342" stroke-miterlimit="10"/>
<path d="M8.43342 17.4048C8.15004 18.7024 7.01651 19.6271 5.66424 19.6271C3.84464 19.6271 2.37305 18.1555 2.37305 16.3359C2.37305 14.5163 3.84464 13.0447 5.66424 13.0447C6.68839 13.0447 7.76225 13.691 8.20969 14.5114" stroke="#0A2342" stroke-miterlimit="10" stroke-linecap="round"/>
<path d="M13.5391 6.37286L14.4688 6.47727C15.0206 6.5419 15.5028 6.88991 15.7266 7.40198L19.6839 16.3359" stroke="#0A2342" stroke-miterlimit="10" stroke-linecap="round"/>
<path d="M5.41544 16.6392C5.15194 16.4652 4.96799 16.2116 4.96302 15.8288C4.95308 15.1477 5.51487 14.8146 6.11643 14.7102C6.90194 14.576 7.70734 14.6406 8.49285 14.7401C9.27836 14.8395 10.0042 14.9886 10.7599 14.8793C11.3963 14.7898 11.8089 14.4268 12.2116 13.9496C12.4105 13.7159 12.6441 13.4574 12.9474 13.4723C13.2159 13.4822 13.4197 13.706 13.6235 13.8849C13.7975 14.0341 13.9964 14.1584 14.1306 14.3423C14.6725 15.0731 14.0511 16.2116 13.37 16.6143C12.6093 17.0618 11.5554 17.0121 10.7002 17.0668C9.43248 17.1463 8.14484 17.201 6.88205 17.0419C6.42467 16.9822 5.82311 16.9126 5.41046 16.6442L5.41544 16.6392Z" stroke="#0A2342" stroke-miterlimit="10"/>
<path d="M10.8739 11.8168C10.4563 11.7919 10.2127 11.3246 10.4364 10.9766C11.1076 9.93751 12.6239 8.35655 15.2788 9.39064C16.0195 9.67899 16.3477 11.8466 13.2454 11.9212C12.7532 11.9311 11.6545 11.8715 10.8739 11.8217V11.8168Z" stroke="#0A2342" stroke-miterlimit="10"/>
<path d="M9.98411 11.6626L5.68368 11.1108C5.27601 11.0561 4.96777 10.7081 4.96777 10.2955V10.1264C4.96777 9.62429 5.41025 9.24148 5.90243 9.30611L10.7796 9.95242C10.9486 9.9723 11.0132 10.1811 10.8889 10.2955C10.6354 10.544 10.3321 10.9268 10.3321 11.3693C10.3321 11.5483 10.1581 11.6776 9.97914 11.6577L9.98411 11.6626Z" stroke="#0A2342" stroke-miterlimit="10"/>
<path d="M2.59668 12.7862C2.59668 12.7862 3.02921 11.0909 5.14711 10.8075" stroke="#0A2342" stroke-miterlimit="10" stroke-linecap="round"/>
<path d="M8.20934 11.3544L6.43945 14.6655" stroke="#0A2342" stroke-miterlimit="10"/>
<path d="M13.832 14.049C13.832 14.049 14.5877 13.1392 14.8114 11.6676" stroke="#0A2342" stroke-miterlimit="10"/>
<path d="M15.458 9.64417C15.458 9.64417 16.7755 7.90411 18.0731 7.79474C18.5553 7.75496 18.9779 8.14275 19.0425 8.66476L19.2116 10.1364C19.2563 10.5391 18.953 10.8871 18.5802 10.8572L17.377 10.7578" stroke="#0A2342" stroke-miterlimit="10"/>
</g>
<defs>
<clipPath id="clip0_3367_7027">
<rect width="21.348" height="14" fill="white" transform="translate(2 6)"/>
</clipPath>
</defs>
</svg>
