<svg width="26" height="26" viewBox="0 0 26 26" fill="none" xmlns="http://www.w3.org/2000/svg">
<g clip-path="url(#clip0_3367_6993)">
<path d="M6.84766 8.98511C7.55672 8.98537 8.19421 9.61684 8.19434 10.4763C8.19434 11.3359 7.55679 11.9682 6.84766 11.9685C6.13835 11.9685 5.5 11.3361 5.5 10.4763C5.50013 9.61667 6.13842 8.98511 6.84766 8.98511Z" stroke="#0A2342"/>
<path d="M10.4355 5.5C11.1446 5.50026 11.7821 6.13173 11.7822 6.99121C11.7822 7.85082 11.1447 8.48314 10.4355 8.4834C9.72624 8.4834 9.08789 7.851 9.08789 6.99121C9.08802 6.13156 9.72631 5.5 10.4355 5.5Z" stroke="#0A2342"/>
<path d="M15.6484 5.5C16.3575 5.50026 16.995 6.13173 16.9951 6.99121C16.9951 7.85082 16.3576 8.48314 15.6484 8.4834C14.9391 8.4834 14.3008 7.851 14.3008 6.99121C14.3009 6.13156 14.9392 5.5 15.6484 5.5Z" stroke="#0A2342"/>
<path d="M19.1543 8.98511C19.8634 8.98537 20.5008 9.61684 20.501 10.4763C20.501 11.3359 19.8634 11.9682 19.1543 11.9685C18.445 11.9685 17.8066 11.3361 17.8066 10.4763C17.8068 9.61666 18.4451 8.98511 19.1543 8.98511Z" stroke="#0A2342"/>
<path d="M13.0605 10.5089C13.5482 10.6052 14.2456 10.9514 14.998 11.5226C15.7428 12.0881 16.5003 12.8436 17.1104 13.7043C18.3426 15.4429 18.8935 17.4768 17.793 19.2736C17.3528 19.9923 16.9552 20.3052 16.6348 20.4279C16.3258 20.546 16.0116 20.5169 15.6631 20.3771C15.3024 20.2323 14.9449 19.9856 14.5752 19.714C14.2384 19.4666 13.8421 19.1579 13.4863 19.007L13.4814 19.005L13.3545 18.964C13.2247 18.9328 13.0911 18.928 12.9941 18.9298C12.8613 18.9324 12.6792 18.9504 12.5273 19.0128L12.5176 19.0168C12.1689 19.1685 11.7744 19.4697 11.4375 19.7091C11.0683 19.9714 10.71 20.2071 10.3496 20.341C10.002 20.4701 9.68387 20.4931 9.36816 20.3664C9.04086 20.235 8.63969 19.9118 8.19922 19.1925C7.10033 17.3972 7.66112 15.2547 8.90332 13.4689C9.51689 12.587 10.2746 11.8303 11.0107 11.3009C11.7656 10.7581 12.4261 10.5053 12.8545 10.5128H12.8643C12.8894 10.5128 12.9178 10.5115 12.9414 10.5109C12.9676 10.5102 12.9913 10.5104 13.0156 10.5099C13.0325 10.5096 13.0478 10.5089 13.0605 10.5089ZM12.6875 10.2043C12.6845 10.197 12.6804 10.1902 12.6777 10.1828C12.6804 10.1902 12.6845 10.197 12.6875 10.2043ZM12.6553 10.0968C12.6562 10.1021 12.6581 10.1072 12.6592 10.1125C12.6585 10.1091 12.6569 10.106 12.6562 10.1027L12.6553 10.0968Z" stroke="#0A2342"/>
</g>
<defs>
<clipPath id="clip0_3367_6993">
<rect width="16" height="16" fill="white" transform="translate(5 5)"/>
</clipPath>
</defs>
</svg>
