<svg width="167" height="54" viewBox="0 0 167 54" fill="none" xmlns="http://www.w3.org/2000/svg">
<rect width="167" height="54" rx="5" fill="#0A2342"/>
<path d="M27.4553 14.1528C27.1669 14.4629 27 14.9458 27 15.5712V37.8768C27 38.5022 27.1669 38.985 27.4553 39.2952L27.5264 39.3633L39.6924 26.869V26.574L27.5264 14.0797L27.4553 14.1528Z" fill="url(#paint0_linear_585_4629)"/>
<path d="M43.7461 31.0352L39.6953 26.8683V26.5733L43.7511 22.4064L43.8419 22.4606L48.6449 25.2684C50.0157 26.0652 50.0157 27.3764 48.6449 28.1782L43.8419 30.9809L43.7461 31.0352Z" fill="url(#paint1_linear_585_4629)"/>
<path d="M43.8408 30.982L39.6942 26.7219L27.457 39.2956C27.9123 39.7873 28.6547 39.8465 29.499 39.3548L43.8408 30.982Z" fill="url(#paint2_linear_585_4629)"/>
<path d="M43.8408 22.4625L29.499 14.0897C28.6547 13.603 27.9123 13.6623 27.457 14.154L39.6942 26.7227L43.8408 22.4625Z" fill="url(#paint3_linear_585_4629)"/>
<path d="M63.7588 16.4079C63.7588 17.2501 63.5134 17.9246 63.0299 18.4276C62.474 19.024 61.75 19.3241 60.8628 19.3241C60.0148 19.3241 59.2908 19.0189 58.6968 18.4176C58.1017 17.8073 57.8047 17.0584 57.8047 16.162C57.8047 15.2656 58.1017 14.5167 58.6968 13.9115C59.2908 13.3051 60.0148 13 60.8628 13C61.2849 13 61.6874 13.0895 62.0715 13.2559C62.4544 13.4236 62.7661 13.6506 62.9919 13.9305L62.4789 14.4625C62.085 13.9847 61.5487 13.7489 60.8628 13.7489C60.2443 13.7489 59.708 13.9708 59.2527 14.4184C58.8024 14.8672 58.5766 15.4484 58.5766 16.162C58.5766 16.8756 58.8024 17.4619 59.2527 17.9107C59.708 18.3533 60.2443 18.5802 60.8628 18.5802C61.5193 18.5802 62.0715 18.3533 62.5071 17.9057C62.7943 17.6094 62.9575 17.2009 63.0005 16.6789H60.8628V15.9502H63.7147C63.749 16.1078 63.7588 16.2604 63.7588 16.4079Z" fill="white" stroke="white" stroke-width="0.0868528" stroke-miterlimit="10"/>
<path d="M68.2849 13.8813H65.606V15.7976H68.0211V16.5264H65.606V18.4428H68.2849V19.1854H64.8477V13.1387H68.2849V13.8813Z" fill="white" stroke="white" stroke-width="0.0868528" stroke-miterlimit="10"/>
<path d="M71.4797 19.1854H70.7213V13.8813H69.0781V13.1387H73.124V13.8813H71.4797V19.1854Z" fill="white" stroke="white" stroke-width="0.0868528" stroke-miterlimit="10"/>
<path d="M76.0547 19.1854V13.1387H76.8118V19.1854H76.0547Z" fill="white" stroke="white" stroke-width="0.0868528" stroke-miterlimit="10"/>
<path d="M80.1632 19.1854H79.411V13.8813H77.7617V13.1387H81.8125V13.8813H80.1632V19.1854Z" fill="white" stroke="white" stroke-width="0.0868528" stroke-miterlimit="10"/>
<path d="M89.4723 18.4075C88.8919 19.0189 88.1728 19.3241 87.315 19.3241C86.4523 19.3241 85.7332 19.0189 85.1528 18.4075C84.5735 17.7973 84.2852 17.0484 84.2852 16.162C84.2852 15.2757 84.5735 14.5268 85.1528 13.9166C85.7332 13.3051 86.4523 13 87.315 13C88.1679 13 88.887 13.3051 89.4674 13.9216C90.0516 14.5369 90.3399 15.2807 90.3399 16.162C90.3399 17.0484 90.0516 17.7973 89.4723 18.4075ZM85.7136 17.9006C86.1504 18.3533 86.6818 18.5802 87.315 18.5802C87.9433 18.5802 88.4796 18.3533 88.9115 17.9006C89.3472 17.448 89.568 16.8668 89.568 16.162C89.568 15.4573 89.3472 14.876 88.9115 14.4234C88.4796 13.9708 87.9433 13.7439 87.315 13.7439C86.6818 13.7439 86.1504 13.9708 85.7136 14.4234C85.2779 14.876 85.057 15.4573 85.057 16.162C85.057 16.8668 85.2779 17.448 85.7136 17.9006Z" fill="white" stroke="white" stroke-width="0.0868528" stroke-miterlimit="10"/>
<path d="M91.4023 19.1854V13.1387H92.3227L95.1844 17.8414H95.2176L95.1844 16.6789V13.1387H95.9416V19.1854H95.1513L92.1546 14.2507H92.1215L92.1546 15.4182V19.1854H91.4023Z" fill="white" stroke="white" stroke-width="0.0868528" stroke-miterlimit="10"/>
<path d="M84.0998 28.016C81.7939 28.016 79.9103 29.8189 79.9103 32.3064C79.9103 34.7738 81.7939 36.5956 84.0998 36.5956C86.4105 36.5956 88.2942 34.7738 88.2942 32.3064C88.2942 29.8189 86.4105 28.016 84.0998 28.016ZM84.0998 34.9062C82.8346 34.9062 81.7461 33.8332 81.7461 32.3064C81.7461 30.7595 82.8346 29.7055 84.0998 29.7055C85.365 29.7055 86.4584 30.7595 86.4584 32.3064C86.4584 33.8332 85.365 34.9062 84.0998 34.9062ZM74.9587 28.016C72.648 28.016 70.7692 29.8189 70.7692 32.3064C70.7692 34.7738 72.648 36.5956 74.9587 36.5956C77.2682 36.5956 79.1482 34.7738 79.1482 32.3064C79.1482 29.8189 77.2682 28.016 74.9587 28.016ZM74.9587 34.9062C73.6923 34.9062 72.6001 33.8332 72.6001 32.3064C72.6001 30.7595 73.6923 29.7055 74.9587 29.7055C76.2239 29.7055 77.3124 30.7595 77.3124 32.3064C77.3124 33.8332 76.2239 34.9062 74.9587 34.9062ZM64.0812 29.331V31.1541H68.3186C68.1946 32.1728 67.8633 32.9217 67.3553 33.4437C66.7368 34.074 65.7735 34.7738 64.0812 34.7738C61.4735 34.7738 59.4315 32.6115 59.4315 29.9324C59.4315 27.2532 61.4735 25.091 64.0812 25.091C65.4912 25.091 66.5171 25.6571 67.2743 26.3909L68.5247 25.1061C67.4657 24.0673 66.0569 23.2692 64.0812 23.2692C60.5053 23.2692 57.5 26.2585 57.5 29.9324C57.5 33.6063 60.5053 36.5956 64.0812 36.5956C66.014 36.5956 67.4657 35.945 68.607 34.7246C69.7764 33.5231 70.1409 31.8336 70.1409 30.4695C70.1409 30.0459 70.1065 29.6563 70.0452 29.331H64.0812ZM108.561 30.7443C108.216 29.7849 107.152 28.016 104.985 28.016C102.837 28.016 101.049 29.7546 101.049 32.3064C101.049 34.7095 102.819 36.5956 105.191 36.5956C107.109 36.5956 108.216 35.3941 108.671 34.6943L107.248 33.7198C106.773 34.4334 106.126 34.9062 105.191 34.9062C104.262 34.9062 103.596 34.4687 103.168 33.6063L108.753 31.2323L108.561 30.7443ZM102.867 32.1728C102.819 30.5187 104.117 29.6714 105.047 29.6714C105.776 29.6714 106.395 30.0459 106.601 30.5817L102.867 32.1728ZM98.3274 36.3346H100.163V23.7269H98.3274V36.3346ZM95.3209 28.9717H95.2595C94.8472 28.4699 94.0606 28.016 93.0641 28.016C90.9731 28.016 89.0611 29.9021 89.0611 32.3203C89.0611 34.7246 90.9731 36.5956 93.0641 36.5956C94.0606 36.5956 94.8472 36.1379 95.2595 35.621H95.3209V36.2363C95.3209 37.8765 94.468 38.7578 93.0923 38.7578C91.9707 38.7578 91.2749 37.9257 90.9878 37.226L89.3912 37.9106C89.8514 39.0478 91.07 40.4473 93.0923 40.4473C95.2448 40.4473 97.061 39.1461 97.061 35.9803V28.277H95.3209V28.9717ZM93.2212 34.9062C91.956 34.9062 90.897 33.8181 90.897 32.3203C90.897 30.8086 91.956 29.7055 93.2212 29.7055C94.468 29.7055 95.4509 30.8086 95.4509 32.3203C95.4509 33.8181 94.468 34.9062 93.2212 34.9062ZM117.156 23.7269H112.765V36.3346H114.596V31.5575H117.156C119.189 31.5575 121.183 30.0459 121.183 27.6416C121.183 25.2385 119.184 23.7269 117.156 23.7269ZM117.203 29.8038H114.596V25.4806H117.203C118.57 25.4806 119.351 26.6468 119.351 27.6416C119.351 28.6174 118.57 29.8038 117.203 29.8038ZM128.521 27.9921C127.199 27.9921 125.823 28.5922 125.257 29.9223L126.882 30.622C127.232 29.9223 127.875 29.6954 128.555 29.6954C129.504 29.6954 130.468 30.2816 130.482 31.3167V31.4491C130.151 31.2524 129.442 30.9612 128.569 30.9612C126.819 30.9612 125.036 31.9509 125.036 33.7979C125.036 35.4874 126.47 36.5754 128.081 36.5754C129.313 36.5754 129.993 36.0043 130.42 35.3399H130.482V36.3144H132.251V31.4781C132.251 29.2428 130.626 27.9921 128.521 27.9921ZM128.301 34.9011C127.702 34.9011 126.867 34.596 126.867 33.8332C126.867 32.8574 127.908 32.4829 128.809 32.4829C129.615 32.4829 129.993 32.6658 130.482 32.9066C130.339 34.074 129.361 34.9011 128.301 34.9011ZM138.693 28.2682L136.589 33.7336H136.526L134.35 28.2682H132.376L135.645 35.906L133.78 40.156H135.693L140.73 28.2682H138.693ZM122.189 36.3346H124.025V23.7269H122.189V36.3346Z" fill="white"/>
<defs>
<linearGradient id="paint0_linear_585_4629" x1="38.6123" y1="38.1091" x2="21.6914" y2="21.6395" gradientUnits="userSpaceOnUse">
<stop stop-color="#00A0FF"/>
<stop offset="0.0066" stop-color="#00A1FF"/>
<stop offset="0.2601" stop-color="#00BEFF"/>
<stop offset="0.5122" stop-color="#00D2FF"/>
<stop offset="0.7604" stop-color="#00DFFF"/>
<stop offset="1" stop-color="#00E3FF"/>
</linearGradient>
<linearGradient id="paint1_linear_585_4629" x1="50.4299" y1="26.7194" x2="26.6752" y2="26.7194" gradientUnits="userSpaceOnUse">
<stop stop-color="#FFE000"/>
<stop offset="0.4087" stop-color="#FFBD00"/>
<stop offset="0.7754" stop-color="#FFA500"/>
<stop offset="1" stop-color="#FF9C00"/>
</linearGradient>
<linearGradient id="paint2_linear_585_4629" x1="41.586" y1="24.406" x2="18.6399" y2="2.07178" gradientUnits="userSpaceOnUse">
<stop stop-color="#FF3A44"/>
<stop offset="1" stop-color="#C31162"/>
</linearGradient>
<linearGradient id="paint3_linear_585_4629" x1="24.3767" y1="46.7174" x2="34.6231" y2="36.7442" gradientUnits="userSpaceOnUse">
<stop stop-color="#32A071"/>
<stop offset="0.0685" stop-color="#2DA771"/>
<stop offset="0.4762" stop-color="#15CF74"/>
<stop offset="0.8009" stop-color="#06E775"/>
<stop offset="1" stop-color="#00F076"/>
</linearGradient>
</defs>
</svg>
