<svg width="50" height="50" viewBox="0 0 50 50" fill="none" xmlns="http://www.w3.org/2000/svg">
<path d="M30.8974 20.9303C30.7631 21.7269 30.5807 22.5234 30.3792 23.2815C30.0913 24.3851 29.6115 25.4792 28.7863 26.2661C28.0761 26.9475 27.1741 27.3505 26.2625 27.6672C25.2165 28.0223 24.4776 28.0607 23.4124 27.6864C22.4048 27.3217 21.3972 26.8707 20.6487 26.0934C19.6603 25.0665 19.2956 23.6462 19.0845 22.2835C18.8446 20.7288 18.6239 19.1933 18.7774 17.6099L18.9885 15.4506C19.0845 14.4526 19.6507 13.5409 20.4856 12.9939C21.3012 12.4661 22.2896 12.3413 23.2205 12.1206C24.871 11.7367 26.8094 11.9862 28.4216 12.4853C29.1893 12.7252 29.9186 13.1282 30.4176 13.752C31.0702 14.5773 31.2525 15.6905 31.2333 16.7462C31.2045 18.1185 31.1181 19.5676 30.8878 20.9303H30.8974Z" stroke="#137DC5" stroke-width="1.5" stroke-miterlimit="10"/>
<path d="M18.5352 19.4728C18.5352 19.4728 20.6943 19.2521 20.8286 17.8318C20.963 16.4115 22.2969 15.2887 23.2949 16.2771C24.2929 17.2656 26.3177 17.0545 26.9606 16.4979C27.6036 15.9413 30.444 16.1524 31.2501 18.5707" stroke="#137DC5" stroke-width="1.5" stroke-miterlimit="10"/>
<path d="M23.4132 27.7031C23.4132 27.7031 23.1446 29.1234 17.2717 30.8508C11.3988 32.5782 12.5504 36.9543 12.5504 36.9543" stroke="#137DC5" stroke-width="1.5" stroke-miterlimit="10"/>
<path d="M26.5039 27.7031C26.5039 27.7031 26.7726 29.1234 32.6455 30.8508C38.5183 32.5782 37.3668 36.9543 37.3668 36.9543" stroke="#137DC5" stroke-width="1.5" stroke-miterlimit="10"/>
<path d="M20.8613 29.4102C20.8613 29.4102 24.2104 32.7786 28.0681 29.4102" stroke="#137DC5" stroke-width="1.5" stroke-miterlimit="10"/>
</svg>
