<svg width="50" height="50" viewBox="0 0 50 50" fill="none" xmlns="http://www.w3.org/2000/svg">
<path d="M13.6871 33.2117C14.7267 33.2117 15.5695 32.3874 15.5695 31.3705C15.5695 30.3536 14.7267 29.5293 13.6871 29.5293C12.6475 29.5293 11.8047 30.3536 11.8047 31.3705C11.8047 32.3874 12.6475 33.2117 13.6871 33.2117Z" fill="#137DC5"/>
<path d="M13.6795 37.895C17.3685 37.895 20.3591 34.9699 20.3591 31.3616C20.3591 27.7532 17.3685 24.8281 13.6795 24.8281C9.99053 24.8281 7 27.7532 7 31.3616C7 34.9699 9.99053 37.895 13.6795 37.895Z" stroke="#137DC5" stroke-width="1.5" stroke-miterlimit="10"/>
<path d="M36.6834 37.8931C40.3725 37.8931 43.363 34.9679 43.363 31.3596C43.363 27.7513 40.3725 24.8262 36.6834 24.8262C32.9944 24.8262 30.0039 27.7513 30.0039 31.3596C30.0039 34.9679 32.9944 37.8931 36.6834 37.8931Z" stroke="#137DC5" stroke-width="1.5" stroke-miterlimit="10"/>
<path d="M18.374 18.3308L12.2416 18.9247C11.337 19.0138 10.5586 18.3209 10.5586 17.4299V16.3509C10.5586 15.4798 11.3054 14.7968 12.1785 14.8463L18.3109 15.2125C19.0998 15.262 19.7309 15.8956 19.7519 16.6776V16.7964C19.773 17.5883 19.1734 18.2516 18.374 18.3308Z" fill="#137DC5"/>
<path d="M23.4492 12L25.4103 12.2073C26.5743 12.3356 27.5916 13.0264 28.0635 14.0429L36.4111 31.778" stroke="#137DC5" stroke-width="1.5" stroke-miterlimit="10" stroke-linecap="round"/>
<path d="M15.1445 17.625L25.212 30.3563V34.0277" stroke="#137DC5" stroke-width="1.5" stroke-miterlimit="10" stroke-linecap="round"/>
<path d="M11.7422 31.3674L24.8299 30.7753L29.9266 19.8599C30.1259 19.4454 29.7693 18.9815 29.2869 19.0111L16.9123 19.8796L12.1092 31.3674" stroke="#137DC5" stroke-width="1.5" stroke-miterlimit="10" stroke-linecap="round"/>
</svg>
