<svg width="50" height="50" viewBox="0 0 50 50" fill="none" xmlns="http://www.w3.org/2000/svg">
<path d="M17.0098 31.6875H18.8194" stroke="#137DC5" stroke-width="1.5" stroke-miterlimit="10" stroke-linecap="round"/>
<path d="M10.7968 31.6742H8.54158C7.87829 31.6742 7.34766 31.1436 7.34766 30.4803V16.224C7.34766 15.6756 7.78985 15.2246 8.34701 15.2246H40.1849C40.7244 15.2246 41.1843 15.5961 41.3081 16.1178L43.015 23.4494V29.6224C43.015 30.7544 42.0952 31.6742 40.9632 31.6742H39.7693" stroke="#137DC5" stroke-width="1.5" stroke-miterlimit="10" stroke-linecap="round"/>
<path d="M33.5626 31.6875H20.9336" stroke="#137DC5" stroke-width="1.5" stroke-miterlimit="10" stroke-linecap="round"/>
<path d="M34.7388 26.8965H33.1953" stroke="#137DC5" stroke-width="1.5" stroke-miterlimit="10" stroke-linecap="round"/>
<path d="M14.4609 17.1875V23.8937" stroke="#137DC5" stroke-width="1.5" stroke-miterlimit="10" stroke-linecap="round"/>
<path d="M18.609 17.0605H10.4196C10.0142 17.0605 9.68555 17.3892 9.68555 17.7946V23.2778C9.68555 23.6832 10.0142 24.0118 10.4196 24.0118H18.609C19.0144 24.0118 19.343 23.6832 19.343 23.2778V17.7946C19.343 17.3892 19.0144 17.0605 18.609 17.0605Z" stroke="#137DC5" stroke-width="1.5" stroke-miterlimit="10" stroke-linecap="round"/>
<path d="M26.2441 17.1426V18.7925" stroke="#137DC5" stroke-width="1.5" stroke-miterlimit="10" stroke-linecap="round"/>
<path d="M26.2441 21.3203V23.8218" stroke="#137DC5" stroke-width="1.5" stroke-miterlimit="10" stroke-linecap="round"/>
<path d="M30.3356 17.0605H22.1462C21.7408 17.0605 21.4121 17.3892 21.4121 17.7946V23.2778C21.4121 23.6832 21.7408 24.0118 22.1462 24.0118H30.3356C30.741 24.0118 31.0696 23.6832 31.0696 23.2778V17.7946C31.0696 17.3892 30.741 17.0605 30.3356 17.0605Z" stroke="#137DC5" stroke-width="1.5" stroke-miterlimit="10" stroke-linecap="round"/>
<path d="M13.8597 34.6705C15.5792 34.6705 16.9732 33.2765 16.9732 31.5569C16.9732 29.8374 15.5792 28.4434 13.8597 28.4434C12.1401 28.4434 10.7461 29.8374 10.7461 31.5569C10.7461 33.2765 12.1401 34.6705 13.8597 34.6705Z" stroke="#137DC5" stroke-width="1.5" stroke-miterlimit="10" stroke-linecap="round"/>
<path d="M36.6741 34.6705C38.3937 34.6705 39.7877 33.2765 39.7877 31.5569C39.7877 29.8374 38.3937 28.4434 36.6741 28.4434C34.9545 28.4434 33.5605 29.8374 33.5605 31.5569C33.5605 33.2765 34.9545 34.6705 36.6741 34.6705Z" stroke="#137DC5" stroke-width="1.5" stroke-miterlimit="10" stroke-linecap="round"/>
<path d="M41.5554 17.1992H34.5953C34.0204 17.1992 33.5605 17.6591 33.5605 18.234V22.9124C33.5605 23.4961 33.9143 24.0267 34.4626 24.2478C37.1865 25.3621 40.0785 26.0254 43.0058 26.2376" stroke="#137DC5" stroke-width="1.5" stroke-miterlimit="10" stroke-linecap="round"/>
</svg>
