<svg width="50" height="50" viewBox="0 0 50 50" fill="none" xmlns="http://www.w3.org/2000/svg">
<path d="M16.6016 33.2734H31.3152" stroke="#137DC5" stroke-width="1.5" stroke-miterlimit="10"/>
<path d="M39.5342 32.3863C41.2486 32.3677 43.8554 32.8321 44.6876 31.0115C44.8681 30.6121 44.9182 30.1755 44.9683 29.7389C45.2591 27.2866 44.7678 23.8683 41.6096 23.3481C40.5669 23.1809 39.5442 23.1716 38.5717 22.7629C36.767 22.0198 35.6541 20.2084 34.5212 18.7872C33.8494 17.9512 33.1175 17.1338 32.2152 16.5114C30.1999 15.1181 27.553 14.44 25.1167 14.0498L24.8961 14.0312C24.455 14.0498 24.0138 13.9848 23.5627 14.0034C21.6878 14.0963 20.1137 14.4307 18.3692 15.0623C17.0056 15.5546 15.1708 16.3906 14.1682 17.4124C12.935 18.685 11.8823 20.1248 10.8997 21.5553C10.4285 22.2334 9.70663 22.7164 8.85441 22.8929C7.70142 23.1344 6.12732 23.5524 5.64607 24.1655C5.52576 24.3141 5.44555 24.4906 5.37537 24.6764C4.98435 25.6982 4.97432 26.8779 4.9643 27.9554C4.95427 29.0329 4.90414 30.1012 5.50571 31.0394C5.82654 31.5595 6.32784 31.9961 6.92941 32.2191C7.5811 32.4606 8.32303 32.3677 9.03488 32.3119C9.54621 32.2655 10.0375 32.1726 10.5689 32.3119" stroke="#137DC5" stroke-width="1.5" stroke-miterlimit="10"/>
<path d="M13.2647 35.835C15.5434 35.835 17.3907 33.9385 17.3907 31.5991C17.3907 29.2597 15.5434 27.3633 13.2647 27.3633C10.9859 27.3633 9.13867 29.2597 9.13867 31.5991C9.13867 33.9385 10.9859 35.835 13.2647 35.835Z" stroke="#137DC5" stroke-width="1.5" stroke-miterlimit="10"/>
<path d="M13.2644 33.6073C14.241 33.6073 15.0327 32.7945 15.0327 31.7919C15.0327 30.7893 14.241 29.9766 13.2644 29.9766C12.2878 29.9766 11.4961 30.7893 11.4961 31.7919C11.4961 32.7945 12.2878 33.6073 13.2644 33.6073Z" stroke="#137DC5" stroke-width="1.5" stroke-miterlimit="10"/>
<path d="M36.1186 35.4235C38.0718 35.4235 39.6552 33.798 39.6552 31.7928C39.6552 29.7876 38.0718 28.1621 36.1186 28.1621C34.1654 28.1621 32.582 29.7876 32.582 31.7928C32.582 33.798 34.1654 35.4235 36.1186 35.4235Z" stroke="#137DC5" stroke-width="1.5" stroke-miterlimit="10"/>
<path d="M36.1183 33.0025C36.7694 33.0025 37.2972 32.4607 37.2972 31.7923C37.2972 31.1239 36.7694 30.582 36.1183 30.582C35.4672 30.582 34.9395 31.1239 34.9395 31.7923C34.9395 32.4607 35.4672 33.0025 36.1183 33.0025Z" stroke="#137DC5" stroke-width="1.5" stroke-miterlimit="10"/>
<path d="M4 25.1953H5.94909C6.23722 25.1953 6.43213 25.4911 6.33044 25.7695L5.83045 27.118C5.77113 27.2833 5.6186 27.3877 5.44911 27.3877H4" stroke="#137DC5" stroke-width="1.5" stroke-miterlimit="10"/>
<path d="M11.4121 24.6836H13.8827" stroke="#137DC5" stroke-width="1.5" stroke-miterlimit="10" stroke-linecap="round"/>
<path d="M25 24.6836H26.2353" stroke="#137DC5" stroke-width="1.5" stroke-miterlimit="10" stroke-linecap="round"/>
<path d="M45.0626 25.0334L41.6881 25.0254C41.367 25.0254 41.1744 25.3724 41.3542 25.6327L42.4971 27.2937C43.0364 28.0869 43.9611 28.5579 44.937 28.5579L46.0006 28.0911" stroke="#137DC5" stroke-width="1.5" stroke-miterlimit="10" stroke-linecap="round"/>
<path d="M13.5153 23.9901H21.1893C21.8002 23.9901 22.3039 23.484 22.3039 22.8568V18.1255C22.3039 17.2012 21.5215 16.497 20.6319 16.607C18.5205 16.8711 14.9087 18.0925 12.9259 23.0548C12.7437 23.506 13.0545 23.9901 13.5261 23.9901H13.5153Z" stroke="#137DC5" stroke-width="1.5" stroke-miterlimit="10"/>
<path d="M31.021 19.1075C31.9213 19.9451 32.756 21.1004 33.4031 22.7083C33.5625 23.103 33.2905 23.5266 32.8779 23.5266H26.1726C25.6287 23.5266 25.1973 23.0837 25.1973 22.535V18.3951C25.1973 17.596 25.8819 16.9702 26.6602 17.0664C27.4949 17.1723 28.6015 17.4515 29.7175 18.1255" stroke="#137DC5" stroke-width="1.5" stroke-miterlimit="10" stroke-linecap="round"/>
</svg>
