<svg width="50" height="50" viewBox="0 0 50 50" fill="none" xmlns="http://www.w3.org/2000/svg">
<path d="M23.9962 11.3306C23.652 11.0352 23.8448 10.6252 24.1752 10.3539C24.8361 9.80525 25.8411 9.94392 26.3987 10.4323C26.7223 10.7217 26.9012 11.2824 26.8668 11.7044C26.8324 12.1687 26.4538 12.5425 25.9926 12.7354C25.5658 12.9163 24.9737 13.0248 24.4987 13.0791" stroke="#137DC5" stroke-miterlimit="10" stroke-linecap="round"/>
<path d="M21.5098 19.8696C21.5098 19.8696 22.4306 18.994 23.7197 19.8696" stroke="#137DC5" stroke-miterlimit="10" stroke-linecap="round"/>
<path d="M27.7969 19.8696C27.7969 19.8696 28.7177 18.994 30.0068 19.8696" stroke="#137DC5" stroke-miterlimit="10" stroke-linecap="round"/>
<path d="M24.0078 22.5508C24.0078 22.5508 25.4636 23.941 27.5069 22.5508" stroke="#137DC5" stroke-miterlimit="10" stroke-linecap="round"/>
<path d="M25.3413 26.567C29.5985 26.567 33.0497 23.5443 33.0497 19.8157C33.0497 16.0871 29.5985 13.0645 25.3413 13.0645C21.084 13.0645 17.6328 16.0871 17.6328 19.8157C17.6328 23.5443 21.084 26.567 25.3413 26.567Z" stroke="#137DC5" stroke-miterlimit="10" stroke-linecap="round"/>
<path d="M25.973 34.1781H18.1856V32.4269C18.1856 32.4269 18.0278 30.9062 20.5008 30.9522C22.8335 30.9983 25.175 30.9753 27.5077 30.9369C28.5425 30.9215 29.5773 30.8908 30.6034 31.0137C31.4014 31.1135 32.4274 31.3363 32.4888 32.1965V33.9016" stroke="#137DC5" stroke-miterlimit="10" stroke-linecap="round"/>
<path d="M19.4297 30.9198V29.7754" stroke="#137DC5" stroke-miterlimit="10" stroke-linecap="round"/>
<path d="M31.4297 30.9198V29.7754" stroke="#137DC5" stroke-miterlimit="10" stroke-linecap="round"/>
<path d="M28.6304 34.7537C28.9936 34.7537 29.2881 34.4958 29.2881 34.1776C29.2881 33.8595 28.9936 33.6016 28.6304 33.6016C28.2671 33.6016 27.9727 33.8595 27.9727 34.1776C27.9727 34.4958 28.2671 34.7537 28.6304 34.7537Z" fill="#137DC5"/>
<path d="M23.248 40.5352H27.4399" stroke="#137DC5" stroke-miterlimit="10" stroke-linecap="round"/>
<path d="M22.4922 39.6992L23.2464 40.4596" stroke="#137DC5" stroke-miterlimit="10" stroke-linecap="round"/>
<path d="M27.4355 40.4596L28.1897 39.6992" stroke="#137DC5" stroke-miterlimit="10" stroke-linecap="round"/>
<path d="M20.0095 25.0762C20.0095 25.0762 13.6252 27.4264 14.888 32.4496C15.2739 33.9703 18.0275 34.1777 18.0275 34.1777" stroke="#137DC5" stroke-miterlimit="10" stroke-linecap="round"/>
<path d="M30.7168 24.793C30.7168 24.793 37.0923 27.1432 35.8295 32.1664C35.4436 33.6871 32.69 33.8945 32.69 33.8945" stroke="#137DC5" stroke-miterlimit="10" stroke-linecap="round"/>
<path d="M19.7455 40.454C19.5613 40.5692 19.3596 40.6614 19.1579 40.7382C18.4914 41.007 17.7373 41.1145 17.0445 40.838C16.6411 40.6767 16.3692 40.4156 16.1061 40.116C14.8258 38.6874 12.6158 35.9915 15.1941 34.7089C16.5884 33.7642 18.6318 34.1328 19.4123 35.692C19.7017 36.268 20.0349 36.8364 20.298 37.4201C20.5611 38.0039 20.8154 38.6798 20.6838 39.3172C20.5874 39.8011 20.2015 40.1698 19.7455 40.4463V40.454Z" stroke="#137DC5" stroke-miterlimit="10"/>
<path d="M30.6636 40.454C30.8477 40.5692 31.0494 40.6614 31.2511 40.7382C31.9176 41.007 32.6718 41.1145 33.3646 40.838C33.768 40.6767 34.0399 40.4156 34.303 40.116C35.5833 38.6874 37.7933 35.9915 35.215 34.7089C33.8206 33.7642 31.7773 34.1328 30.9968 35.692C30.7074 36.268 30.3742 36.8364 30.1111 37.4201C29.848 38.0039 29.5937 38.6798 29.7252 39.3172C29.8217 39.8011 30.2076 40.1698 30.6636 40.4463V40.454Z" stroke="#137DC5" stroke-miterlimit="10"/>
</svg>
