<svg width="50" height="50" viewBox="0 0 50 50" fill="none" xmlns="http://www.w3.org/2000/svg">
<g clip-path="url(#clip0_2072_9340)">
<path d="M38.1406 28.4824C38.5563 28.4826 38.8779 28.8145 38.8779 29.2051C38.8779 29.5956 38.5563 29.9275 38.1406 29.9277C37.7248 29.9277 37.4024 29.5957 37.4023 29.2051C37.4023 28.8144 37.7247 28.4824 38.1406 28.4824Z" fill="#231F20" stroke="#137DC5" stroke-width="2"/>
<path d="M38.1316 35.3201C41.5374 35.3201 44.2983 32.5836 44.2983 29.2079C44.2983 25.8322 41.5374 23.0957 38.1316 23.0957C34.7258 23.0957 31.9648 25.8322 31.9648 29.2079C31.9648 32.5836 34.7258 35.3201 38.1316 35.3201Z" stroke="#137DC5" stroke-width="2" stroke-miterlimit="10"/>
<path d="M17.0566 31.193C16.5256 33.6028 14.4017 35.3201 11.8679 35.3201C8.45851 35.3201 5.70117 32.5872 5.70117 29.2079C5.70117 25.8287 8.45851 23.0957 11.8679 23.0957C13.7869 23.0957 15.799 24.296 16.6374 25.8194" stroke="#137DC5" stroke-width="2" stroke-miterlimit="10" stroke-linecap="round"/>
<path d="M26.625 10.6953L28.367 10.8892C29.401 11.0092 30.3046 11.6555 30.7237 12.6065L38.1387 29.1982" stroke="#137DC5" stroke-width="2" stroke-miterlimit="10" stroke-linecap="round"/>
<path d="M11.4007 29.7634C10.907 29.4402 10.5623 28.9694 10.553 28.2584C10.5343 26.9935 11.587 26.3749 12.7141 26.181C14.186 25.9317 15.695 26.0517 17.1669 26.2364C18.6387 26.4211 19.9987 26.6981 21.4146 26.4949C22.607 26.3287 23.3802 25.6547 24.1347 24.7684C24.5073 24.3344 24.9452 23.8543 25.5134 23.882C26.0164 23.9005 26.3983 24.316 26.7803 24.6483C27.1063 24.9253 27.4789 25.1562 27.7304 25.4978C28.7458 26.855 27.5814 28.9694 26.3052 29.7172C24.8799 30.5482 22.9051 30.4559 21.3029 30.5574C18.9275 30.7052 16.5148 30.8067 14.1487 30.5113C13.2917 30.4005 12.1645 30.2712 11.3914 29.7726L11.4007 29.7634Z" stroke="#137DC5" stroke-width="2" stroke-miterlimit="10"/>
<path d="M21.6272 20.8052C20.8447 20.7591 20.3883 19.8912 20.8075 19.2449C22.0651 17.3152 24.9062 14.3791 29.8806 16.2995C31.2686 16.8351 31.8834 20.8606 26.0706 20.9991C25.1484 21.0176 23.0897 20.9068 21.6272 20.8145V20.8052Z" stroke="#137DC5" stroke-width="2" stroke-miterlimit="10"/>
<path d="M19.9617 20.5264L11.9039 19.5015C11.1401 19.4 10.5625 18.7537 10.5625 17.9873V17.6734C10.5625 16.7409 11.3916 16.0299 12.3138 16.15L21.4521 17.3502C21.7688 17.3872 21.8899 17.775 21.6571 17.9873C21.182 18.449 20.6137 19.1599 20.6137 19.9816C20.6137 20.314 20.2877 20.5541 19.9523 20.5171L19.9617 20.5264Z" stroke="#137DC5" stroke-width="2" stroke-miterlimit="10"/>
<path d="M6.12109 22.6136C6.12109 22.6136 6.93398 19.4556 10.9143 18.9277" stroke="#137DC5" stroke-width="2" stroke-miterlimit="10" stroke-linecap="round"/>
<path d="M16.6466 19.9453L13.3203 26.113" stroke="#137DC5" stroke-width="2" stroke-miterlimit="10"/>
<path d="M27.1738 24.9594C27.1738 24.9594 28.594 23.2646 29.0145 20.5234" stroke="#137DC5" stroke-width="2" stroke-miterlimit="10"/>
<path d="M30.2188 16.7823C30.2188 16.7823 32.6948 13.541 35.1334 13.3373C36.0397 13.2632 36.8339 13.9855 36.9554 14.9579L37.2731 17.6991C37.3572 18.4492 36.7872 19.0975 36.0864 19.0419L33.8253 18.8567" stroke="#137DC5" stroke-width="2" stroke-miterlimit="10"/>
</g>
<defs>
<clipPath id="clip0_2072_9340">
<rect width="40" height="26" fill="white" transform="translate(5 10)"/>
</clipPath>
</defs>
</svg>
