<svg width="50" height="50" viewBox="0 0 50 50" fill="none" xmlns="http://www.w3.org/2000/svg">
<g clip-path="url(#clip0_2072_9431)">
<path d="M13.4756 17.5312C14.7724 17.5312 15.9501 18.6881 15.9502 20.2764C15.9502 21.8647 14.7725 23.0215 13.4756 23.0215C12.1789 23.0213 11.002 21.8645 11.002 20.2764C11.002 18.6883 12.1789 17.5315 13.4756 17.5312Z" stroke="#137DC5" stroke-width="2"/>
<path d="M20.2041 10.998C21.5009 10.998 22.6786 12.1549 22.6787 13.7432C22.6787 15.3315 21.501 16.4883 20.2041 16.4883C18.9074 16.4881 17.7305 15.3313 17.7305 13.7432C17.7306 12.1551 18.9074 10.9983 20.2041 10.998Z" stroke="#137DC5" stroke-width="2"/>
<path d="M29.9736 10.998C31.2705 10.998 32.4482 12.1549 32.4482 13.7432C32.4482 15.3315 31.2705 16.4883 29.9736 16.4883C28.6769 16.4881 27.5 15.3313 27.5 13.7432C27.5001 12.1551 28.677 10.9983 29.9736 10.998Z" stroke="#137DC5" stroke-width="2"/>
<path d="M36.5479 17.5312C37.8447 17.5312 39.0224 18.6881 39.0225 20.2764C39.0225 21.8647 37.8447 23.0215 36.5479 23.0215C35.2511 23.0213 34.0742 21.8645 34.0742 20.2764C34.0743 18.6883 35.2512 17.5315 36.5479 17.5312Z" stroke="#137DC5" stroke-width="2"/>
<path d="M25.1055 20.4023C26.0062 20.5813 27.3027 21.2232 28.708 22.29C30.1 23.3468 31.5162 24.7587 32.6562 26.3672C34.9604 29.6181 35.9789 33.4035 33.9346 36.7412H33.9336C33.1123 38.0823 32.3763 38.6567 31.793 38.8799C31.2325 39.0942 30.6596 39.0427 30.0156 38.7842C29.3476 38.5159 28.6836 38.0581 27.9902 37.5488C27.3624 37.0877 26.6114 36.5013 25.9355 36.2148L25.9268 36.2119L25.8047 36.167C25.5155 36.0752 25.2025 36.0622 24.9883 36.0664C24.736 36.0713 24.3845 36.1057 24.0889 36.2275L24.0713 36.2354C23.4098 36.5232 22.6619 37.093 22.0342 37.5391C21.3422 38.0307 20.6769 38.4679 20.0098 38.7158C19.3678 38.9544 18.7877 38.994 18.2139 38.7637C17.6545 38.539 16.9669 38.0044 16.2061 36.833L16.0527 36.5898C14.0107 33.2546 15.046 29.2667 17.3691 25.9268C18.5157 24.2784 19.9311 22.8635 21.3057 21.875C22.7178 20.8594 23.9436 20.3951 24.7266 20.4092H24.7451C24.7934 20.4092 24.8481 20.4084 24.8926 20.4072C24.9419 20.4059 24.9859 20.4042 25.0312 20.4033C25.0591 20.4028 25.084 20.4024 25.1055 20.4023ZM24.4727 20.002C24.4506 19.9717 24.4297 19.9407 24.4111 19.9082C24.4294 19.9407 24.4507 19.9714 24.4727 20.002ZM24.3896 19.8682C24.37 19.8299 24.3525 19.7905 24.3379 19.75C24.3523 19.7904 24.3702 19.8296 24.3896 19.8682ZM24.2803 19.4355C24.2825 19.5306 24.2986 19.6257 24.3281 19.7178C24.2987 19.6268 24.2815 19.5319 24.2793 19.4355H24.2803Z" stroke="#137DC5" stroke-width="2"/>
</g>
<defs>
<clipPath id="clip0_2072_9431">
<rect width="30" height="30" fill="white" transform="translate(10 10)"/>
</clipPath>
</defs>
</svg>
