<svg width="16" height="16" viewBox="0 0 16 16" fill="none" xmlns="http://www.w3.org/2000/svg">
<g clip-path="url(#clip0_585_4620)">
<path d="M7 11.5C7.13261 11.5 7.25979 11.4473 7.35355 11.3536C7.44732 11.2598 7.5 11.1326 7.5 11C7.5 10.8674 7.44732 10.7402 7.35355 10.6464C7.25979 10.5527 7.13261 10.5 7 10.5H2C1.86742 10.4999 1.74029 10.4472 1.64653 10.3535C1.55278 10.2597 1.50008 10.1326 1.5 10V3.8704L6.2427 6.6377C6.47241 6.77039 6.73302 6.84026 6.9983 6.84026C7.26358 6.84026 7.52419 6.77039 7.7539 6.6377L12.5 3.8684V6C12.5 6.13261 12.5527 6.25979 12.6464 6.35355C12.7402 6.44732 12.8674 6.5 13 6.5C13.1326 6.5 13.2598 6.44732 13.3536 6.35355C13.4473 6.25979 13.5 6.13261 13.5 6V3C13.4996 2.60231 13.3414 2.22103 13.0602 1.93982C12.779 1.65861 12.3977 1.50044 12 1.5H2C1.75947 1.50109 1.52271 1.5599 1.30962 1.67147C1.09652 1.78305 0.913321 1.94413 0.7754 2.1412C0.599955 2.39357 0.504041 2.69266 0.5 3V10C0.500437 10.3977 0.658612 10.779 0.939822 11.0602C1.22103 11.3414 1.60231 11.4996 2 11.5H7ZM2 2.5H12C12.0871 2.50098 12.1725 2.52501 12.2473 2.56966C12.3222 2.61431 12.3838 2.67798 12.4261 2.7542L7.25 5.7744C7.17342 5.81843 7.08663 5.8416 6.9983 5.8416C6.90997 5.8416 6.82318 5.81843 6.7466 5.7744L1.57295 2.75565C1.6151 2.67902 1.67685 2.61497 1.75189 2.57005C1.82693 2.52513 1.91255 2.50096 2 2.5Z" fill="white"/>
<path d="M12 7.5C11.0717 7.5 10.1815 7.86875 9.52513 8.52513C8.86875 9.1815 8.5 10.0717 8.5 11C8.5 11.9283 8.86875 12.8185 9.52513 13.4749C10.1815 14.1313 11.0717 14.5 12 14.5C12.1326 14.5 12.2598 14.4473 12.3536 14.3536C12.4473 14.2598 12.5 14.1326 12.5 14C12.5 13.8674 12.4473 13.7402 12.3536 13.6464C12.2598 13.5527 12.1326 13.5 12 13.5C11.5055 13.5 11.0222 13.3534 10.6111 13.0787C10.2 12.804 9.87952 12.4135 9.6903 11.9567C9.50108 11.4999 9.45157 10.9972 9.54804 10.5123C9.6445 10.0273 9.8826 9.58186 10.2322 9.23223C10.5819 8.8826 11.0273 8.6445 11.5123 8.54804C11.9972 8.45157 12.4999 8.50108 12.9567 8.6903C13.4135 8.87952 13.804 9.19995 14.0787 9.61107C14.3534 10.0222 14.5 10.5055 14.5 11V11.5C14.5 11.6326 14.4473 11.7598 14.3536 11.8536C14.2598 11.9473 14.1326 12 14 12C13.8674 12 13.7402 11.9473 13.6464 11.8536C13.5527 11.7598 13.5 11.6326 13.5 11.5V11C13.5 10.7033 13.412 10.4133 13.2472 10.1666C13.0824 9.91997 12.8481 9.72771 12.574 9.61418C12.2999 9.50065 11.9983 9.47094 11.7074 9.52882C11.4164 9.5867 11.1491 9.72956 10.9393 9.93934C10.7296 10.1491 10.5867 10.4164 10.5288 10.7074C10.4709 10.9983 10.5006 11.2999 10.6142 11.574C10.7277 11.8481 10.92 12.0824 11.1666 12.2472C11.4133 12.412 11.7033 12.5 12 12.5C12.2584 12.4984 12.512 12.4292 12.7354 12.2993C12.9083 12.5745 13.166 12.786 13.4697 12.9018C13.7734 13.0176 14.1066 13.0314 14.4188 12.9412C14.7311 12.8509 15.0054 12.6614 15.2005 12.4014C15.3955 12.1414 15.5007 11.825 15.5 11.5V11C15.4989 10.0721 15.1298 9.1825 14.4736 8.52637C13.8175 7.87023 12.9279 7.50112 12 7.5ZM12 11.5C11.9011 11.5 11.8044 11.4707 11.7222 11.4157C11.64 11.3608 11.5759 11.2827 11.5381 11.1913C11.5002 11.1 11.4903 10.9994 11.5096 10.9025C11.5289 10.8055 11.5765 10.7164 11.6464 10.6464C11.7164 10.5765 11.8055 10.5289 11.9025 10.5096C11.9994 10.4903 12.1 10.5002 12.1913 10.5381C12.2827 10.5759 12.3608 10.64 12.4157 10.7222C12.4707 10.8044 12.5 10.9011 12.5 11C12.4999 11.1326 12.4472 11.2597 12.3535 11.3535C12.2597 11.4472 12.1326 11.4999 12 11.5Z" fill="white"/>
</g>
<defs>
<clipPath id="clip0_585_4620">
<rect width="16" height="16" fill="white"/>
</clipPath>
</defs>
</svg>
