<svg width="24" height="24" viewBox="0 0 24 24" fill="none" xmlns="http://www.w3.org/2000/svg">
<rect width="24" height="24" rx="4" fill="url(#paint0_linear_585_4577)"/>
<path d="M12 6C14.3966 6 15.5949 6.00025 16.458 6.57129C16.8435 6.82633 17.1737 7.15655 17.4287 7.54199C17.9998 8.40514 18 9.60336 18 12C18 14.3966 17.9998 15.5949 17.4287 16.458C17.1737 16.8435 16.8435 17.1737 16.458 17.4287C15.5949 17.9998 14.3966 18 12 18C9.60336 18 8.40514 17.9998 7.54199 17.4287C7.15655 17.1737 6.82633 16.8435 6.57129 16.458C6.00025 15.5949 6 14.3966 6 12C6 9.60336 6.00025 8.40514 6.57129 7.54199C6.82633 7.15655 7.15655 6.82633 7.54199 6.57129C8.40514 6.00025 9.60336 6 12 6ZM12.001 8.89355C10.2854 8.89355 8.89455 10.2845 8.89453 12C8.89453 13.7155 10.2854 15.1064 12.001 15.1064C13.7164 15.1063 15.1074 13.7155 15.1074 12C15.1074 10.2845 13.7164 8.89366 12.001 8.89355ZM12.001 9.94434C13.136 9.94444 14.0556 10.8649 14.0557 12C14.0557 13.1351 13.136 14.0556 12.001 14.0557C10.8658 14.0557 9.94531 13.1351 9.94531 12C9.94533 10.8649 10.8659 9.94434 12.001 9.94434ZM15.2295 8.00781C14.8266 8.00795 14.5002 8.33446 14.5 8.7373C14.5 9.14032 14.8265 9.46764 15.2295 9.46777C15.6326 9.46777 15.96 9.14041 15.96 8.7373C15.9598 8.33438 15.6325 8.00781 15.2295 8.00781Z" fill="white"/>
<defs>
<linearGradient id="paint0_linear_585_4577" x1="12" y1="0" x2="12" y2="24" gradientUnits="userSpaceOnUse">
<stop stop-color="#00CFC8"/>
<stop offset="1" stop-color="#137DC5"/>
</linearGradient>
</defs>
</svg>
