<svg width="24" height="24" viewBox="0 0 24 24" fill="none" xmlns="http://www.w3.org/2000/svg">
<rect width="24" height="24" rx="4" fill="url(#paint0_linear_585_4588)"/>
<path d="M12.2909 16.6528L9.58275 16.6022C8.70592 16.5845 7.8269 16.6198 6.96726 16.437C5.65955 16.164 5.56691 14.8254 5.46997 13.7026C5.33639 12.124 5.3881 10.5168 5.64018 8.95144C5.78248 8.07309 6.3425 7.54898 7.20856 7.49194C10.1321 7.28496 13.0751 7.30949 15.9922 7.40606C16.3003 7.41491 16.6105 7.46329 16.9143 7.51837C18.4138 7.78698 18.4504 9.30391 18.5476 10.5809C18.6445 11.871 18.6036 13.1678 18.4183 14.4492C18.2697 15.5101 17.9853 16.3998 16.785 16.4857C15.2812 16.598 13.8118 16.6884 12.3038 16.6596C12.3038 16.6528 12.2952 16.6528 12.2909 16.6528ZM10.6988 13.9668C11.832 13.3019 12.9437 12.648 14.0705 11.9875C12.9351 11.3226 11.8255 10.6687 10.6988 10.0082V13.9668Z" fill="white"/>
<defs>
<linearGradient id="paint0_linear_585_4588" x1="12" y1="0" x2="12" y2="24" gradientUnits="userSpaceOnUse">
<stop stop-color="#00CFC8"/>
<stop offset="1" stop-color="#137DC5"/>
</linearGradient>
</defs>
</svg>
