<svg width="1256" height="387" viewBox="0 0 1256 387" fill="none" xmlns="http://www.w3.org/2000/svg">
<g clip-path="url(#clip0_3195_2013)">
<rect width="1256" height="387" rx="12" fill="#0A2342"/>
<path d="M3035.17 318.133C3008.14 338.035 2953.06 338.035 2926.04 318.133C2894.13 294.627 2831.46 294.627 2799.55 318.133C2772.52 338.035 2717.44 338.035 2690.41 318.133C2658.5 294.627 2595.83 294.627 2563.91 318.133C2536.88 338.035 2481.82 338.035 2454.79 318.133C2422.86 294.622 2360.21 294.622 2328.28 318.133C2301.25 338.035 2246.18 338.035 2219.15 318.133C2187.24 294.627 2124.57 294.627 2092.66 318.133C2065.63 338.035 2010.55 338.035 1983.52 318.133C1951.61 294.627 1888.94 294.627 1857.02 318.133C1829.99 338.035 1774.93 338.035 1747.9 318.133C1715.97 294.622 1653.31 294.622 1621.39 318.133C1594.36 338.035 1539.29 338.035 1512.26 318.133C1480.35 294.627 1417.68 294.627 1385.77 318.133C1358.74 338.035 1303.66 338.035 1276.63 318.133C1244.72 294.627 1182.05 294.627 1150.13 318.133C1123.1 338.035 1068.04 338.035 1041.01 318.133C1009.08 294.627 946.424 294.627 914.498 318.133C887.468 338.035 832.404 338.035 805.374 318.133C773.458 294.627 710.791 294.627 678.864 318.133C651.834 338.035 596.77 338.035 569.74 318.133C537.825 294.627 475.157 294.622 443.242 318.133C416.211 338.035 361.136 338.035 334.105 318.133C318.142 306.38 294.497 300.504 270.851 300.504C247.205 300.504 223.559 306.38 207.596 318.133C180.566 338.035 125.49 338.035 98.4716 318.133C66.5566 294.627 3.88867 294.627 -28.0376 318.133C-55.0677 338.035 -110.143 338.035 -137.162 318.133C-169.077 294.627 -231.745 294.622 -263.66 318.133C-290.691 338.035 -345.766 338.035 -372.796 318.133C-388.759 306.38 -412.405 300.504 -436.051 300.504C-459.697 300.504 -483.342 306.38 -499.306 318.133C-526.336 338.035 -581.4 338.035 -608.43 318.133C-640.356 294.622 -703.013 294.622 -734.939 318.133C-761.97 338.035 -817.045 338.035 -844.064 318.133C-875.979 294.622 -938.647 294.627 -970.562 318.133C-997.592 338.035 -1052.67 338.035 -1079.7 318.133C-1111.62 294.622 -1174.28 294.627 -1206.2 318.133C-1233.23 338.035 -1288.29 338.035 -1315.32 318.133C-1347.25 294.622 -1409.9 294.622 -1441.83 318.133V329.573C-1409.9 306.063 -1347.25 306.063 -1315.32 329.573C-1288.29 349.476 -1233.23 349.476 -1206.2 329.573C-1174.27 306.068 -1111.61 306.063 -1079.7 329.573C-1052.67 349.476 -997.592 349.476 -970.562 329.573C-938.636 306.068 -875.979 306.063 -844.064 329.573C-817.034 349.476 -761.97 349.476 -734.939 329.573C-703.013 306.063 -640.356 306.063 -608.43 329.573C-581.4 349.476 -526.336 349.476 -499.306 329.573C-483.342 317.821 -459.697 311.939 -436.051 311.944C-412.405 311.944 -388.759 317.821 -372.796 329.573C-345.766 349.476 -290.691 349.476 -263.66 329.573C-231.734 306.063 -169.077 306.068 -137.162 329.573C-110.132 349.476 -55.0677 349.476 -28.0376 329.573C3.88867 306.068 66.5453 306.068 98.4716 329.573C125.502 349.476 180.566 349.476 207.596 329.573C223.559 317.821 247.205 311.939 270.851 311.944C294.497 311.944 318.142 317.821 334.105 329.573C361.136 349.476 416.211 349.476 443.242 329.573C475.168 306.063 537.825 306.068 569.74 329.573C596.77 349.476 651.834 349.476 678.864 329.573C710.791 306.068 773.458 306.068 805.374 329.573C832.404 349.476 887.468 349.476 914.498 329.573C946.413 306.068 1009.08 306.068 1041.01 329.573C1068.04 349.476 1123.1 349.476 1150.13 329.573C1182.06 306.068 1244.72 306.068 1276.63 329.573C1303.66 349.476 1358.74 349.476 1385.77 329.573C1417.68 306.068 1480.35 306.068 1512.26 329.573C1539.29 349.476 1594.36 349.476 1621.39 329.573C1653.31 306.063 1715.97 306.063 1747.9 329.573C1774.93 349.476 1829.99 349.476 1857.02 329.573C1888.94 306.068 1951.61 306.068 1983.52 329.573C2010.55 349.476 2065.63 349.476 2092.66 329.573C2124.57 306.068 2187.24 306.068 2219.15 329.573C2246.18 349.476 2301.25 349.476 2328.28 329.573C2360.21 306.063 2422.86 306.063 2454.79 329.573C2481.82 349.476 2536.88 349.476 2563.91 329.573C2595.84 306.068 2658.5 306.068 2690.41 329.573C2717.44 349.476 2772.52 349.476 2799.55 329.573C2831.46 306.068 2894.13 306.068 2926.04 329.573C2953.08 349.476 3008.14 349.476 3035.17 329.573V318.133Z" fill="#E6F7FF"/>
<path d="M2917.35 337.103C2890.32 316.301 2835.25 316.301 2808.22 337.103C2776.3 361.676 2713.64 361.676 2681.71 337.103C2654.68 316.301 2599.62 316.301 2572.59 337.103C2540.67 361.671 2478.01 361.671 2446.09 337.103C2419.06 316.301 2363.98 316.301 2336.95 337.103C2305.04 361.671 2242.37 361.671 2210.46 337.103C2183.43 316.301 2128.36 316.301 2101.33 337.103C2069.41 361.676 2006.75 361.676 1974.82 337.103C1947.79 316.301 1892.73 316.301 1865.7 337.103C1833.78 361.671 1771.11 361.671 1739.2 337.103C1712.17 316.301 1657.09 316.301 1630.06 337.103C1598.15 361.671 1535.48 361.671 1503.57 337.103C1476.54 316.301 1421.47 316.301 1394.44 337.103C1362.52 361.671 1299.85 361.671 1267.93 337.103C1240.9 316.301 1185.83 316.301 1158.81 337.103C1126.89 361.671 1064.22 361.671 1032.31 337.103C1005.28 316.301 950.204 316.301 923.174 337.103C891.259 361.671 828.591 361.671 796.676 337.103C769.645 316.301 714.57 316.301 687.54 337.103C655.625 361.671 592.957 361.671 561.042 337.103C534.011 316.301 478.947 316.301 451.917 337.103C420.002 361.671 357.334 361.671 325.408 337.103C298.377 316.301 243.313 316.301 216.283 337.103C184.357 361.671 121.7 361.671 89.785 337.103C62.7661 316.301 7.69043 316.301 -19.351 337.103C-51.2772 361.671 -113.934 361.671 -145.849 337.103C-172.879 316.301 -227.943 316.301 -254.974 337.103C-286.889 361.671 -349.557 361.671 -381.483 337.103C-408.513 316.301 -463.577 316.301 -490.608 337.103C-522.523 361.671 -585.191 361.671 -617.106 337.103C-644.136 316.296 -699.211 316.301 -726.242 337.103C-758.157 361.671 -820.825 361.671 -852.74 337.103C-879.77 316.301 -934.834 316.301 -961.864 337.103C-993.791 361.676 -1056.45 361.676 -1088.37 337.103C-1115.4 316.301 -1170.47 316.301 -1197.5 337.103C-1229.42 361.671 -1292.08 361.671 -1324 337.103C-1351.03 316.301 -1406.1 316.301 -1433.13 337.103C-1435.82 339.172 -1438.74 341.05 -1441.83 342.768V350.899C-1409.9 326.326 -1347.25 326.326 -1315.32 350.899C-1288.29 371.7 -1233.23 371.7 -1206.2 350.899C-1174.27 326.331 -1111.61 326.326 -1079.7 350.899C-1052.67 371.7 -997.592 371.7 -970.562 350.899C-938.636 326.331 -875.979 326.326 -844.064 350.899C-817.034 371.7 -761.97 371.7 -734.939 350.899C-703.013 326.326 -640.357 326.326 -608.43 350.899C-581.4 371.7 -526.336 371.7 -499.306 350.899C-483.342 338.615 -459.697 332.468 -436.051 332.473C-412.405 332.473 -388.759 338.615 -372.796 350.899C-345.766 371.7 -290.691 371.7 -263.66 350.899C-231.734 326.326 -169.077 326.331 -137.162 350.899C-110.132 371.7 -55.0679 371.7 -28.0377 350.899C3.88855 326.331 66.5453 326.331 98.4716 350.899C125.502 371.7 180.566 371.7 207.596 350.899C223.559 338.615 247.205 332.468 270.851 332.473C294.497 332.473 318.142 338.615 334.105 350.899C361.136 371.7 416.211 371.7 443.241 350.899C475.168 326.326 537.824 326.331 569.74 350.899C596.77 371.7 651.834 371.7 678.864 350.899C710.791 326.331 773.458 326.331 805.373 350.899C832.404 371.7 887.468 371.7 914.498 350.899C946.413 326.331 1009.08 326.331 1041.01 350.899C1068.04 371.7 1123.1 371.7 1150.13 350.899C1182.06 326.331 1244.72 326.331 1276.63 350.899C1303.66 371.7 1358.74 371.7 1385.77 350.899C1417.68 326.331 1480.35 326.331 1512.26 350.899C1539.29 371.7 1594.36 371.7 1621.39 350.899C1653.31 326.326 1715.97 326.326 1747.9 350.899C1774.93 371.7 1829.99 371.7 1857.02 350.899C1888.94 326.331 1951.61 326.331 1983.52 350.899C2010.55 371.7 2065.63 371.7 2092.66 350.899C2124.57 326.331 2187.24 326.331 2219.15 350.899C2246.18 371.7 2301.25 371.7 2328.28 350.899C2360.21 326.326 2422.86 326.326 2454.79 350.899C2481.82 371.7 2536.88 371.7 2563.91 350.899C2595.84 326.331 2658.5 326.331 2690.41 350.899C2717.44 371.7 2772.52 371.7 2799.55 350.899C2831.46 326.331 2894.13 326.331 2926.04 350.899C2953.08 371.7 3008.14 371.7 3035.17 350.899V342.768C3001.6 361.485 2946.59 359.607 2917.36 337.103H2917.35Z" fill="#E6F7FF"/>
<path d="M2917.34 357.653C2890.31 337.451 2835.24 337.451 2808.21 357.653C2776.29 381.519 2713.63 381.519 2681.7 357.653C2654.67 337.451 2599.61 337.451 2572.58 357.653C2540.66 381.514 2478 381.514 2446.08 357.653C2419.05 337.451 2363.98 337.451 2336.95 357.653C2305.03 381.514 2242.36 381.514 2210.45 357.653C2183.42 337.451 2128.35 337.451 2101.32 357.653C2069.4 381.519 2006.74 381.519 1974.81 357.653C1947.78 337.451 1892.72 337.451 1865.69 357.653C1833.77 381.514 1771.11 381.514 1739.19 357.653C1712.16 337.451 1657.09 337.451 1630.06 357.653C1598.14 381.514 1535.47 381.514 1503.56 357.653C1476.53 337.451 1421.46 337.451 1394.43 357.653C1362.51 381.514 1299.84 381.514 1267.93 357.653C1240.9 337.451 1185.82 337.451 1158.8 357.653C1126.89 381.514 1064.22 381.514 1032.3 357.653C1005.27 337.451 950.198 337.451 923.168 357.653C891.253 381.514 828.585 381.514 796.67 357.653C769.64 337.451 714.564 337.451 687.534 357.653C655.619 381.514 592.951 381.514 561.036 357.653C534.006 337.451 478.942 337.451 451.912 357.653C419.997 381.514 357.329 381.514 325.403 357.653C298.373 337.451 243.309 337.451 216.279 357.653C184.353 381.514 121.696 381.514 89.7811 357.653C62.7623 337.451 7.68677 337.451 -19.3546 357.653C-51.2808 381.514 -113.937 381.514 -145.852 357.653C-172.882 337.451 -227.947 337.451 -254.977 357.653C-286.892 381.514 -349.559 381.514 -381.486 357.653C-408.516 337.451 -463.58 337.451 -490.61 357.653C-522.525 381.514 -585.193 381.514 -617.108 357.653C-644.138 337.446 -699.213 337.451 -726.243 357.653C-758.158 381.514 -820.826 381.514 -852.741 357.653C-879.771 337.451 -934.835 337.451 -961.865 357.653C-993.792 381.519 -1056.45 381.519 -1088.37 357.653C-1115.4 337.451 -1170.47 337.451 -1197.5 357.653C-1229.43 381.514 -1292.08 381.514 -1324 357.653C-1351.03 337.451 -1406.1 337.451 -1433.13 357.653C-1435.82 359.663 -1438.74 361.487 -1441.83 363.155V410.5H3035.17V363.15C3001.6 381.328 2946.59 379.504 2917.36 357.649L2917.34 357.653Z" fill="white"/>
</g>
<defs>
<clipPath id="clip0_3195_2013">
<rect width="1256" height="387" rx="12" fill="white"/>
</clipPath>
</defs>
</svg>
