<svg width="346" height="85" viewBox="0 0 346 85" fill="none" xmlns="http://www.w3.org/2000/svg">
<path d="M-0.000651121 79.5255C-0.000651121 80.9982 1.19326 82.1921 2.66602 82.1921C4.13877 82.1921 5.33268 80.9982 5.33268 79.5255C5.33268 78.0527 4.13877 76.8588 2.66602 76.8588C1.19326 76.8588 -0.000651121 78.0527 -0.000651121 79.5255ZM339.805 5.05596C339.805 6.52872 340.999 7.72263 342.471 7.72263C343.944 7.72263 345.138 6.52872 345.138 5.05596C345.138 3.5832 343.944 2.3893 342.471 2.3893C340.999 2.3893 339.805 3.5832 339.805 5.05596ZM2.66602 79.5255L2.57613 80.0173C2.91714 80.0796 3.2573 80.1412 3.59664 80.2021L3.6849 79.7099L3.77315 79.2178C3.4349 79.1571 3.09582 79.0957 2.7559 79.0336L2.66602 79.5255ZM5.70774 80.0657L5.62278 80.5584C6.29486 80.6743 6.96367 80.7873 7.62923 80.8974L7.71084 80.4041L7.79245 79.9108C7.12914 79.8011 6.46257 79.6885 5.79269 79.573L5.70774 80.0657ZM9.6944 80.7253L9.61618 81.2192C10.2753 81.3236 10.9311 81.4251 11.5838 81.5238L11.6586 81.0295L11.7334 80.5351C11.083 80.4367 10.4294 80.3355 9.77262 80.2315L9.6944 80.7253ZM13.6036 81.3167L13.5323 81.8116C14.1787 81.9047 14.8219 81.995 15.4619 82.0825L15.5297 81.5871L15.5974 81.0918C14.9597 81.0045 14.3189 80.9146 13.6749 80.8218L13.6036 81.3167ZM17.4543 81.8432L17.3902 82.3391C18.0763 82.4278 18.7588 82.5133 19.4378 82.5957L19.498 82.0993L19.5582 81.6029C18.8819 81.5209 18.202 81.4358 17.5184 81.3474L17.4543 81.8432ZM21.5201 82.3363L21.4639 82.8331C22.1357 82.9091 22.8039 82.9819 23.4687 83.0516L23.5208 82.5543L23.573 82.057C22.9109 81.9876 22.2454 81.9151 21.5762 81.8394L21.5201 82.3363ZM25.5005 82.7536L25.4525 83.2513C26.1103 83.3148 26.7646 83.3752 27.4155 83.4325L27.4594 82.9344L27.5032 82.4363C26.8551 82.3793 26.2036 82.3192 25.5485 82.256L25.5005 82.7536ZM29.3976 83.0968L29.358 83.5953C30.0166 83.6476 30.6718 83.6968 31.3234 83.7429L31.3586 83.2441L31.3939 82.7454C30.7452 82.6995 30.093 82.6506 29.4372 82.5984L29.3976 83.0968ZM33.4054 83.3792L33.3749 83.8783C34.0548 83.92 34.7309 83.9582 35.4033 83.993L35.4291 83.4936L35.455 82.9943C34.7858 82.9597 34.1128 82.9216 33.436 82.8802L33.4054 83.3792ZM37.43 83.5876L37.4089 84.0871C38.0737 84.1151 38.7347 84.1398 39.3921 84.161L39.4083 83.6613L39.4245 83.1616C38.7704 83.1404 38.1126 83.1159 37.451 83.088L37.43 83.5876ZM41.3644 83.7151L41.3531 84.2149C42.0031 84.2296 42.6495 84.2409 43.2922 84.249L43.2985 83.7491L43.3048 83.2491C42.6654 83.2411 42.0224 83.2298 41.3756 83.2152L41.3644 83.7151ZM45.3471 83.7639L45.3462 84.2639C46.0286 84.2651 46.7069 84.2626 47.3812 84.2565L47.3766 83.7565L47.3721 83.2566C46.7015 83.2627 46.0268 83.2651 45.348 83.2639L45.3471 83.7639ZM49.382 83.7273L49.392 84.2272C50.0583 84.2138 50.7206 84.1967 51.3791 84.1761L51.3634 83.6764L51.3478 83.1766C50.6931 83.1971 50.0345 83.214 49.3719 83.2274L49.382 83.7273ZM53.3215 83.6042L53.3427 84.1037C53.9967 84.0759 54.6468 84.0445 55.2932 84.0096L55.2662 83.5104L55.2393 83.0111C54.5968 83.0458 53.9504 83.077 53.3002 83.1046L53.3215 83.6042ZM57.3078 83.3877L57.3408 83.8866C58.0191 83.8417 58.6932 83.7929 59.3631 83.7403L59.3239 83.2418L59.2848 82.7433C58.619 82.7957 57.949 82.8442 57.2748 82.8888L57.3078 83.3877ZM61.3151 83.0729L61.3604 83.5709C62.0221 83.5106 62.6796 83.4466 63.3332 83.3788L63.2816 82.8815L63.2301 82.3841C62.5807 82.4515 61.9272 82.5151 61.2697 82.575L61.3151 83.0729ZM65.2241 82.6678L65.2819 83.1644C65.9496 83.0867 66.613 83.0051 67.2723 82.9197L67.2081 82.4238L67.1438 81.928C66.4888 82.0129 65.8297 82.0939 65.1663 82.1711L65.2241 82.6678ZM69.2169 82.1497L69.2878 82.6447C69.9553 82.549 70.6186 82.4494 71.2778 82.3459L71.2002 81.852L71.1226 81.358C70.4679 81.4608 69.8091 81.5598 69.146 81.6548L69.2169 82.1497ZM73.1585 81.5308L73.2427 82.0237C73.8936 81.9124 74.5405 81.7973 75.1833 81.6785L75.0924 81.1868L75.0015 80.6952C74.3631 80.8132 73.7207 80.9275 73.0743 81.038L73.1585 81.5308ZM77.0386 80.8132L77.1363 81.3036C77.804 81.1706 78.4674 81.0335 79.1266 80.8925L79.022 80.4036L78.9174 79.9146C78.2628 80.0547 77.604 80.1908 76.941 80.3228L77.0386 80.8132ZM80.9801 79.9701L81.0917 80.4575C81.7426 80.3085 82.3894 80.1557 83.0322 79.999L82.9138 79.5132L82.7954 79.0274C82.1571 79.183 81.5149 79.3348 80.8686 79.4827L80.9801 79.9701ZM84.8235 79.0335L84.9487 79.5176C85.5952 79.3504 86.2376 79.1792 86.8761 79.0043L86.7441 78.5221L86.612 78.0399C85.978 78.2135 85.3401 78.3834 84.6983 78.5495L84.8235 79.0335ZM88.6862 77.975L88.8252 78.4553C89.4709 78.2684 90.1125 78.0776 90.7503 77.883L90.6044 77.4048L90.4585 76.9265C89.8253 77.1197 89.1882 77.3092 88.5471 77.4948L88.6862 77.975ZM92.4995 76.8119L92.6522 77.288C93.2823 77.086 93.9087 76.8802 94.5314 76.6709L94.3721 76.197L94.2128 75.723C93.5945 75.9309 92.9725 76.1351 92.3468 76.3358L92.4995 76.8119ZM96.2651 75.5457L96.4311 76.0174C97.0669 75.7936 97.699 75.5661 98.3274 75.335L98.1548 74.8658L97.9823 74.3965C97.3582 74.626 96.7305 74.8519 96.0991 75.0741L96.2651 75.5457ZM100.023 74.1641L100.202 74.631C100.823 74.3927 101.441 74.1509 102.056 73.9058L101.87 73.4414L101.685 72.977C101.075 73.2205 100.461 73.4606 99.8439 73.6972L100.023 74.1641ZM103.702 72.6963L103.893 73.1582C104.516 72.9002 105.135 72.6387 105.751 72.3738L105.554 71.9145L105.356 71.4551C104.744 71.7183 104.129 71.9781 103.511 72.2344L103.702 72.6963ZM107.386 71.1125L107.589 71.5693C108.199 71.2978 108.805 71.0231 109.409 70.7453L109.2 70.2911L108.991 69.8369C108.391 70.113 107.788 70.386 107.183 70.6558L107.386 71.1125ZM110.996 69.4509L111.21 69.9025C111.814 69.6157 112.415 69.3257 113.013 69.0328L112.793 68.5838L112.573 68.1347C111.979 68.4259 111.381 68.7142 110.781 68.9993L110.996 69.4509ZM114.585 67.6934L114.81 68.1399C115.407 67.8394 116 67.536 116.592 67.2298L116.362 66.7858L116.132 66.3418C115.544 66.6463 114.953 66.9481 114.36 67.2469L114.585 67.6934ZM118.123 65.8615L118.358 66.3031C118.945 65.9909 119.531 65.676 120.114 65.3586L119.875 64.9194L119.636 64.4803C119.055 64.7961 118.473 65.1094 117.889 65.42L118.123 65.8615ZM121.626 63.955L121.869 64.3918C122.452 64.067 123.033 63.7398 123.612 63.4103L123.365 62.9758L123.118 62.5412C122.541 62.8692 121.963 63.1949 121.383 63.5182L121.626 63.955ZM125.093 61.9825L125.344 62.4149C125.919 62.0809 126.493 61.7446 127.065 61.4063L126.81 60.976L126.555 60.5456C125.986 60.8826 125.415 61.2175 124.842 61.5501L125.093 61.9825ZM128.523 59.9536L128.781 60.382C129.352 60.0383 129.922 59.6927 130.49 59.3452L130.229 58.9187L129.968 58.4921C129.402 58.8384 128.834 59.1828 128.266 59.5252L128.523 59.9536ZM131.927 57.8726L132.191 58.2974C132.756 57.9464 133.321 57.5936 133.884 57.2393L133.618 56.816L133.352 56.3927C132.79 56.7461 132.227 57.0978 131.663 57.4477L131.927 57.8726ZM135.303 55.7502L135.571 56.172C136.132 55.8149 136.692 55.4564 137.252 55.0965L136.981 54.676L136.711 54.2554C136.153 54.6145 135.594 54.9722 135.034 55.3284L135.303 55.7502ZM138.656 53.5934L138.928 54.0128C139.487 53.6503 140.044 53.2865 140.602 52.9217L140.328 52.5034L140.054 52.085C139.498 52.4493 138.941 52.8123 138.384 53.1741L138.656 53.5934ZM141.996 51.4074L142.271 51.8248C142.825 51.4597 143.379 51.0936 143.933 50.7266L143.656 50.3099L143.38 49.8931C142.827 50.2597 142.274 50.6253 141.721 50.9899L141.996 51.4074ZM145.316 49.2071L145.593 49.6233C146.147 49.2548 146.701 48.8855 147.255 48.5156L146.977 48.0998L146.699 47.684C146.146 48.0537 145.592 48.4227 145.039 48.7909L145.316 49.2071ZM148.639 46.9886L148.917 47.4041C149.468 47.0356 150.019 46.6665 150.571 46.297L150.293 45.8816L150.014 45.4661C149.463 45.8355 148.912 46.2046 148.361 46.573L148.639 46.9886ZM151.947 44.7742L152.225 45.1897C152.777 44.8203 153.329 44.4507 153.882 44.0809L153.605 43.6652L153.327 43.2495C152.773 43.6194 152.22 43.9892 151.668 44.3587L151.947 44.7742ZM155.268 42.5552L155.545 42.9713C156.098 42.6029 156.651 42.2346 157.206 41.8663L156.93 41.4498L156.653 41.0332C156.098 41.4018 155.544 41.7705 154.991 42.1391L155.268 42.5552ZM158.586 40.3529L158.862 40.7701C159.415 40.4049 159.969 40.0398 160.524 39.6751L160.25 39.2571L159.975 38.8391C159.419 39.2044 158.864 39.57 158.31 39.9357L158.586 40.3529ZM161.922 38.1631L162.195 38.582C162.754 38.218 163.314 37.8545 163.875 37.4915L163.604 37.0716L163.332 36.6517C162.77 37.0154 162.209 37.3796 161.649 37.7442L161.922 38.1631ZM165.272 35.9981L165.542 36.4191C166.098 36.0628 166.656 35.7071 167.217 35.3521L166.949 34.9298L166.681 34.5074C166.12 34.8633 165.56 35.2199 165.003 35.577L165.272 35.9981ZM168.637 33.8658L168.903 34.2895C169.467 33.9361 170.032 33.5835 170.601 33.232L170.338 32.8068L170.074 32.3816C169.505 32.7342 168.937 33.0877 168.372 33.4421L168.637 33.8658ZM172.039 31.7609L172.299 32.1876C172.861 31.8446 173.425 31.5026 173.991 31.1618L173.734 30.7334L173.476 30.305C172.908 30.647 172.342 30.9901 171.778 31.3341L172.039 31.7609ZM175.442 29.7126L175.697 30.1427C176.268 29.8042 176.842 29.467 177.418 29.131L177.166 28.6991L176.914 28.2672C176.336 28.6043 175.76 28.9428 175.187 29.2825L175.442 29.7126ZM178.906 27.6934L179.154 28.1272C179.725 27.7999 180.299 27.4739 180.876 27.1494L180.631 26.7136L180.385 26.2779C179.806 26.6037 179.23 26.931 178.657 27.2596L178.906 27.6934ZM182.362 25.7482L182.604 26.1859C183.183 25.8662 183.765 25.5481 184.349 25.2316L184.111 24.7919L183.873 24.3522C183.286 24.67 182.702 24.9895 182.121 25.3105L182.362 25.7482ZM185.878 23.8455L186.112 24.2872C186.702 23.9744 187.296 23.6633 187.892 23.354L187.662 22.9102L187.432 22.4663C186.832 22.777 186.237 23.0895 185.644 23.4037L185.878 23.8455ZM189.416 22.0108L189.642 22.4567C190.228 22.1594 190.818 21.8639 191.411 21.5703L191.189 21.1222L190.967 20.6742C190.371 20.9692 189.779 21.2661 189.19 21.5648L189.416 22.0108ZM192.981 20.2451L193.199 20.6953C193.798 20.4056 194.401 20.1178 195.007 19.8322L194.794 19.3799L194.581 18.9276C193.972 19.2146 193.366 19.5038 192.764 19.7949L192.981 20.2451ZM196.617 18.5318L196.826 18.9862C197.419 18.7141 198.015 18.4441 198.614 18.1761L198.41 17.7197L198.206 17.2632C197.604 17.5325 197.005 17.8039 196.409 18.0773L196.617 18.5318ZM200.224 16.9201L200.423 17.3787C201.03 17.115 201.64 16.8535 202.254 16.5942L202.059 16.1336L201.865 15.6731C201.248 15.9337 200.634 16.1965 200.025 16.4616L200.224 16.9201ZM203.916 15.3607L204.106 15.8233C204.724 15.57 205.345 15.319 205.971 15.0703L205.786 14.6057L205.601 14.1411C204.973 14.391 204.348 14.6434 203.727 14.8981L203.916 15.3607ZM207.614 13.89L207.794 14.3565C208.405 14.1208 209.02 13.8874 209.639 13.6564L209.464 13.188L209.289 12.7196C208.667 12.9519 208.049 13.1865 207.434 13.4234L207.614 13.89ZM211.336 12.5002L211.506 12.9705C212.132 12.7443 212.762 12.5205 213.396 12.2992L213.231 11.8271L213.066 11.355C212.429 11.5775 211.796 11.8025 211.166 12.03L211.336 12.5002ZM215.15 11.169L215.31 11.6428C215.926 11.4353 216.545 11.2302 217.168 11.0275L217.014 10.552L216.859 10.0765C216.233 10.2803 215.61 10.4866 214.99 10.6952L215.15 11.169ZM218.891 9.95245L219.041 10.4296C219.669 10.2327 220.3 10.0383 220.936 9.8464L220.792 9.36774L220.647 8.88907C220.008 9.08198 219.373 9.27743 218.742 9.47536L218.891 9.95245ZM222.715 8.79822L222.855 9.2784C223.498 9.09163 224.145 8.90745 224.797 8.72591L224.663 8.24426L224.528 7.76262C223.873 7.94511 223.223 8.13028 222.576 8.31804L222.715 8.79822ZM226.592 7.7174L226.722 8.20044C227.347 8.03308 227.977 7.86816 228.611 7.70573L228.486 7.2214L228.362 6.73707C227.725 6.90035 227.092 7.06613 226.463 7.23437L226.592 7.7174ZM230.403 6.74039L230.522 7.22597C231.163 7.06857 231.808 6.91372 232.457 6.76146L232.343 6.27468L232.228 5.78791C231.576 5.94095 230.928 6.0966 230.284 6.25482L230.403 6.74039ZM234.306 5.82459L234.415 6.31251C235.072 6.16549 235.732 6.02112 236.397 5.87944L236.293 5.39043L236.189 4.90141C235.521 5.0438 234.857 5.18891 234.197 5.33667L234.306 5.82459ZM238.231 4.98721L238.331 5.47723C238.966 5.34845 239.604 5.22213 240.246 5.0983L240.152 4.60734L240.057 4.11639C239.412 4.24083 238.77 4.36778 238.132 4.49719L238.231 4.98721ZM242.094 4.24247L242.184 4.73432C242.833 4.61551 243.487 4.49924 244.144 4.38555L244.059 3.89287L243.974 3.40019C243.313 3.51442 242.657 3.63125 242.004 3.75063L242.094 4.24247ZM246.047 3.55879L246.127 4.05227C246.792 3.94378 247.461 3.83792 248.134 3.73472L248.058 3.2405L247.982 2.74628C247.306 2.84996 246.634 2.95632 245.966 3.06532L246.047 3.55879ZM250.028 2.94759L250.099 3.44249C250.738 3.35046 251.381 3.26083 252.027 3.17362L251.96 2.67811L251.893 2.18261C251.244 2.27021 250.599 2.36025 249.957 2.4527L250.028 2.94759ZM253.913 2.42323L253.976 2.91931C254.629 2.83699 255.286 2.75713 255.946 2.67977L255.888 2.18317L255.83 1.68656C255.167 1.76426 254.507 1.84447 253.851 1.92716L253.913 2.42323ZM257.885 1.95814L257.939 2.45523C258.607 2.38291 259.279 2.31312 259.954 2.2459L259.904 1.74836L259.855 1.25082C259.177 1.31832 258.502 1.38841 257.831 1.46104L257.885 1.95814ZM261.945 1.55412L261.991 2.05207C262.629 1.99405 263.271 1.93832 263.916 1.8849L263.875 1.3866L263.834 0.888308C263.186 0.941949 262.541 0.997912 261.9 1.05617L261.945 1.55412ZM265.825 1.23299L265.862 1.73159C266.514 1.68282 267.17 1.63639 267.828 1.59233L267.795 1.09344L267.762 0.594557C267.1 0.638793 266.442 0.68541 265.788 0.734379L265.825 1.23299ZM269.786 0.968152L269.815 1.46728C270.481 1.42799 271.15 1.3911 271.823 1.35664L271.797 0.857292L271.772 0.357947C271.096 0.392541 270.425 0.429576 269.756 0.469021L269.786 0.968152ZM273.83 0.761042L273.852 1.26057C274.53 1.23107 275.211 1.20402 275.896 1.17944L275.878 0.679766L275.86 0.180087C275.173 0.204753 274.489 0.231905 273.808 0.261514L273.83 0.761042ZM277.812 0.617279L277.826 1.11707C278.472 1.09846 279.122 1.08203 279.775 1.06782L279.764 0.567934L279.753 0.0680522C279.098 0.0823201 278.446 0.0988062 277.797 0.117487L277.812 0.617279ZM281.735 0.531872L281.742 1.03182C282.401 1.02204 283.064 1.01451 283.729 1.00922L283.725 0.50924L283.721 0.00925571C283.053 0.0145548 282.389 0.02212 281.727 0.0319274L281.735 0.531872ZM285.735 0.50018L285.735 1.00018C286.407 0.99944 287.083 1.00098 287.761 1.00483L287.764 0.504838L287.767 0.00484568C287.086 0.000984699 286.409 -0.00056237 285.734 0.000180632L285.735 0.50018ZM289.813 0.523356L289.807 1.02332C290.465 1.03147 291.126 1.04177 291.79 1.05424L291.8 0.554327L291.809 0.054415C291.143 0.0419039 290.479 0.0315708 289.819 0.0233944L289.813 0.523356ZM293.74 0.596723L293.728 1.09657C294.376 1.11273 295.028 1.13093 295.683 1.15122L295.698 0.651457L295.714 0.151697C295.057 0.131352 294.403 0.113086 293.753 0.0968784L293.74 0.596723ZM297.674 0.718643L297.655 1.2183C298.316 1.24275 298.979 1.26929 299.646 1.29794L299.667 0.798397L299.689 0.298858C299.02 0.270124 298.355 0.243505 297.692 0.218985L297.674 0.718643ZM301.679 0.890835L301.654 1.39024C302.327 1.42313 303.002 1.45815 303.681 1.49533L303.708 0.996074L303.735 0.496822C303.055 0.459544 302.377 0.42442 301.703 0.391432L301.679 0.890835ZM305.756 1.11423L305.726 1.61331C306.385 1.65326 307.047 1.69521 307.711 1.73919L307.744 1.24028L307.777 0.741373C307.111 0.69727 306.447 0.655199 305.786 0.615143L305.756 1.11423ZM309.678 1.37332L309.642 1.87205C310.288 1.91822 310.937 1.9663 311.589 2.0163L311.627 1.51776L311.665 1.01923C311.012 0.969101 310.361 0.920894 309.713 0.87459L309.678 1.37332ZM313.592 1.67371L313.552 2.17204C314.209 2.22587 314.868 2.28164 315.531 2.33936L315.574 1.84125L315.618 1.34313C314.953 1.28527 314.292 1.22936 313.633 1.17538L313.592 1.67371ZM317.572 2.02047L317.526 2.51836C318.194 2.57998 318.865 2.64357 319.539 2.70913L319.587 2.21148L319.636 1.71384C318.96 1.64811 318.288 1.58437 317.618 1.52259L317.572 2.02047ZM321.618 2.41436L321.568 2.91176C322.247 2.98129 322.929 3.05281 323.613 3.12634L323.667 2.6292L323.72 2.13206C323.034 2.05836 322.35 1.98666 321.669 1.91696L321.618 2.41436ZM325.603 2.84168L325.547 3.33857C326.187 3.41024 326.829 3.48365 327.474 3.55881L327.532 3.06217L327.59 2.56554C326.944 2.49021 326.3 2.41663 325.659 2.34479L325.603 2.84168ZM329.475 3.29317L329.415 3.78955C330.064 3.86822 330.716 3.94865 331.371 4.03086L331.433 3.53476L331.495 3.03866C330.84 2.95627 330.186 2.87565 329.535 2.7968L329.475 3.29317ZM333.406 3.78701L333.342 4.28283C334.001 4.3686 334.663 4.45616 335.327 4.54552L335.394 4.04998L335.461 3.55444C334.795 3.46489 334.132 3.37714 333.471 3.29118L333.406 3.78701ZM337.397 4.32376L337.328 4.81901C337.998 4.91198 338.67 5.00676 339.345 5.10337L339.415 4.60842L339.486 4.11347C338.81 4.01666 338.137 3.92168 337.466 3.82851L337.397 4.32376ZM341.449 4.90403L341.376 5.39867C341.716 5.44881 342.056 5.4994 342.397 5.55046L342.471 5.05596L342.545 4.56147C342.204 4.51031 341.862 4.45962 341.522 4.40938L341.449 4.90403Z" fill="#00CFC8"/>
</svg>
