<svg width="1437" height="380" viewBox="0 0 1437 380" fill="none" xmlns="http://www.w3.org/2000/svg">
<path d="M0 109.059H32.1853C72.187 109.059 104.615 141.486 104.615 181.488V305.653C104.615 345.654 137.043 378.082 177.044 378.082H343.124C383.125 378.082 415.553 345.655 415.553 305.653V73.8787C415.553 33.877 447.981 1.44922 487.983 1.44922H643.891C683.893 1.44922 716.32 33.877 716.32 73.8786V305.653C716.32 345.654 748.748 378.082 788.75 378.082H946.111C986.113 378.082 1018.54 345.655 1018.54 305.653V73.8787C1018.54 33.877 1050.97 1.44922 1090.97 1.44922H1229.44C1269.44 1.44922 1301.87 33.877 1301.87 73.8786V185.894C1301.87 225.896 1334.3 258.323 1374.3 258.323H1437" stroke="#137DC5" stroke-width="2.89718" stroke-dasharray="5.79 5.79"/>
</svg>
