<svg width="1440" height="471" viewBox="0 0 1440 471" fill="none" xmlns="http://www.w3.org/2000/svg">
<path d="M73.3531 22.5507L0 32.9554V471H1440V32.9554L1337.06 19.9081C1233 6.71818 1127.51 9.98282 1024.47 29.5823L901.546 52.9622C781.531 75.789 658.35 76.4316 538.104 54.8583L390.383 28.3556C285.688 9.57217 178.666 7.61257 73.3531 22.5507Z" fill="#0A2342"/>
<path d="M530.915 268.389C538.018 274.376 544.891 280.578 551.747 286.837C554.595 289.358 554.595 289.358 557.5 291.93C568.054 301.302 578.255 310.846 588.153 320.891C624.052 357.158 665.431 380.951 718.273 381.64C784.2 381.064 827.491 346.057 871.649 301.954C921.364 252.37 978.917 217.023 1051.53 216.468C1054.17 216.48 1056.81 216.492 1059.53 216.504C1060.9 216.509 1062.28 216.514 1063.7 216.519C1122.89 216.858 1174.13 235.827 1218.37 274.538C1220.41 276.322 1222.45 278.106 1224.56 279.943C1236.25 290.322 1247.47 301.087 1258.49 312.148C1298.56 352.237 1336.74 377.874 1395.2 381.315C1409.39 382.363 1418.86 385.88 1429.3 395.861C1437.43 408.726 1440.52 420.514 1438.3 435.599C1435.21 448.454 1429.9 457.971 1418.36 465.169C1391.4 477.97 1350.23 466.911 1323.05 458.508C1274.04 441.2 1239.56 410.423 1203.55 374.715C1194.93 366.185 1186.12 358.066 1176.71 350.381C1174.99 348.914 1173.26 347.448 1171.49 345.937C1130.43 311.629 1088.02 302.202 1035.05 305.285C997.333 309.581 962.356 330.062 936.613 356.985C932.991 360.611 929.221 363.882 925.283 367.172C917.691 373.655 910.632 380.502 903.627 387.59C857.223 434.54 800.815 468.094 732.774 469.613C663.942 470.18 606.008 451.883 555.352 404.812C550.909 400.722 546.41 396.809 541.795 392.914C533.969 386.214 526.708 379.091 519.472 371.783C482.109 334.06 442.592 305.976 387.454 304.324C342.102 303.88 302.528 316.162 268.431 346.281C266.946 347.523 265.461 348.765 263.931 350.045C253.184 359.223 243.192 369.04 233.185 378.988C201.732 410.252 201.732 410.252 185.103 422.124C183.956 422.943 182.81 423.763 181.628 424.607C137.679 455.644 85.86 474.452 30.946 469.269C19.5983 465.961 12.5398 458.037 5.94752 448.771C-0.24382 436.007 -0.253208 420.852 3.86432 407.391C8.05723 397.632 16.0004 391.179 24.6964 385.227C30.1215 383.448 33.8982 382.798 39.4985 382.441C109.672 377.26 154.223 341.172 201.679 292.79C234.079 259.905 271.246 235.471 316.345 223.294C318.713 222.638 321.082 221.983 323.522 221.308C397.231 204.39 472.598 221.974 530.915 268.389Z" fill="url(#paint0_linear_3308_3354)" fill-opacity="0.07"/>
<defs>
<linearGradient id="paint0_linear_3308_3354" x1="-0.302442" y1="232.565" x2="1399.22" y2="1747.27" gradientUnits="userSpaceOnUse">
<stop offset="0.0001" stop-color="#08ACC7"/>
<stop offset="1"/>
</linearGradient>
</defs>
</svg>
