<svg width="100" height="100" viewBox="0 0 100 100" fill="none" xmlns="http://www.w3.org/2000/svg">
<rect width="100" height="100" rx="24" fill="#E6F7FF"/>
<path d="M51.75 33.666V28.416L62.25 38.916H57C53.3133 38.916 51.75 37.3527 51.75 33.666ZM63.7898 49.3227L49.8599 63.346C49.2065 63.9994 48.8333 64.886 48.8333 65.8193V67.966C48.8333 68.3627 48.5299 68.666 48.1332 68.666H36C31.3333 68.666 29 66.3327 29 61.666V33.666C29 28.9993 31.3333 26.666 36 26.666H48.25V33.666C48.25 39.3127 51.3533 42.416 57 42.416H64V48.8327C64 49.0193 63.9298 49.206 63.7898 49.3227ZM40.0833 56.9993C40.0833 56.0333 39.2993 55.2493 38.3333 55.2493C37.3673 55.2493 36.5833 56.0333 36.5833 56.9993C36.5833 57.9653 37.3673 58.7493 38.3333 58.7493C39.2993 58.7493 40.0833 57.9653 40.0833 56.9993ZM40.0833 47.666C40.0833 46.7 39.2993 45.916 38.3333 45.916C37.3673 45.916 36.5833 46.7 36.5833 47.666C36.5833 48.632 37.3673 49.416 38.3333 49.416C39.2993 49.416 40.0833 48.632 40.0833 47.666ZM49.4167 56.9993C49.4167 56.0333 48.6327 55.2493 47.6667 55.2493H44.1667C43.2007 55.2493 42.4167 56.0333 42.4167 56.9993C42.4167 57.9653 43.2007 58.7493 44.1667 58.7493H47.6667C48.6327 58.7493 49.4167 57.9653 49.4167 56.9993ZM56.4167 47.666C56.4167 46.7 55.6327 45.916 54.6667 45.916H44.1667C43.2007 45.916 42.4167 46.7 42.4167 47.666C42.4167 48.632 43.2007 49.416 44.1667 49.416H54.6667C55.6327 49.416 56.4167 48.632 56.4167 47.666ZM52.3333 65.8193V70.9993H57.5133L66.8466 61.7127L61.62 56.486L52.3333 65.8193ZM70.3933 55.2493L68.0833 52.9394C67.2667 52.1227 65.96 52.1227 65.1433 52.9394L63.2532 54.8527L68.4798 60.0794L70.3933 58.1894C71.21 57.3727 71.21 56.066 70.3933 55.2493Z" fill="#0A2342"/>
</svg>
