<svg width="100" height="100" viewBox="0 0 100 100" fill="none" xmlns="http://www.w3.org/2000/svg">
<rect width="100" height="100" rx="24" fill="#E6F7FF"/>
<path d="M50.0422 26.666C44.8155 29.2583 40.6667 31.3327 29 33.666C29 36.319 29 44.6372 29 47.4068C29 62.9632 42.223 70.7404 50 73.3327C57.777 70.7404 71 62.9632 71 47.4068C71 44.5485 71 36.452 71 33.666C59.3333 31.3327 55.1848 29.2583 50.0422 26.666ZM58.2646 46.5694L48.9313 55.9028C48.5906 56.2434 48.1426 56.416 47.6946 56.416C47.2466 56.416 46.7985 56.2458 46.4578 55.9028L41.7912 51.2361C41.1075 50.5524 41.1075 49.444 41.7912 48.7603C42.4748 48.0767 43.5833 48.0767 44.2669 48.7603L47.6969 52.1903L55.7935 44.0937C56.4771 43.41 57.5855 43.41 58.2692 44.0937C58.9529 44.7773 58.9483 45.8858 58.2646 46.5694Z" fill="#0A2342"/>
</svg>
