<svg width="120" height="124" viewBox="0 0 120 124" fill="none" xmlns="http://www.w3.org/2000/svg">
<path d="M78.0347 71.1283C79.4017 71.094 80.7686 71.0692 82.136 71.0526C82.6012 71.0465 83.0662 71.0369 83.5313 71.0244C84.1998 71.0076 84.868 70.9998 85.5367 70.9938C85.7446 70.9866 85.9526 70.9795 86.1668 70.9722C87.5727 70.9715 87.5727 70.9715 88.0546 71.4086C88.2833 71.7654 88.4509 72.1154 88.6127 72.5061C88.7619 72.7637 88.7619 72.7637 88.9141 73.0265C89.0042 73.1889 89.0943 73.3512 89.1871 73.5186C89.2901 73.7035 89.393 73.8884 89.4991 74.079C89.6071 74.2739 89.7152 74.4688 89.8266 74.6696C90.0594 75.088 90.2925 75.5061 90.5256 75.9243C90.584 76.029 90.6423 76.1336 90.7024 76.2414C91.2427 77.2099 91.7909 78.1737 92.341 79.1366C93.7212 81.5547 95.0764 83.9866 96.4323 86.4181C96.7338 86.9587 97.0355 87.4991 97.3373 88.0395C97.5075 88.3445 97.6774 88.6497 97.8474 88.9548C97.9503 89.139 98.0531 89.3232 98.1591 89.513C98.2497 89.6755 98.3403 89.8381 98.4336 90.0055C98.6159 90.3223 98.8136 90.6303 99.0173 90.9339C99.7184 89.8592 100.33 88.7498 100.932 87.6179C101.813 85.9643 102.71 84.3231 103.645 82.6995C104.479 81.2513 105.266 79.7847 106.035 78.3018C106.756 76.9173 107.521 75.5599 108.303 74.2088C108.391 74.0561 108.48 73.9033 108.57 73.7459C108.647 73.6142 108.724 73.4825 108.803 73.3468C109.203 72.6179 109.568 71.8708 109.942 71.1283C113.204 71.1283 116.466 71.1283 119.827 71.1283C119.968 75.6033 120.024 80.0688 120.018 84.5455C120.016 85.4167 120.016 86.2878 120.016 87.1589C120.016 88.797 120.014 90.435 120.012 92.0731C120.011 93.9429 120.01 95.8127 120.009 97.6825C120.007 101.518 120.004 105.354 120 109.189C116.395 109.189 112.79 109.189 109.075 109.189C109.018 103.677 108.961 98.1638 108.902 92.4839C108.215 93.791 107.528 95.0982 106.821 96.445C105.791 98.3287 105.791 98.3287 105.276 99.2604C104.894 99.9526 104.515 100.647 104.138 101.342C104.038 101.527 103.938 101.712 103.834 101.903C103.642 102.258 103.449 102.613 103.257 102.969C103.083 103.291 102.906 103.61 102.724 103.928C102.48 104.356 102.48 104.356 102.321 104.786C102.13 105.218 101.994 105.452 101.618 105.745C100.846 105.928 100.102 105.951 99.3135 105.934C98.9423 105.928 98.5738 105.938 98.2028 105.949C96.5118 105.962 96.5118 105.962 95.8766 105.449C95.5977 105.044 95.4001 104.644 95.2023 104.195C95.0429 103.91 94.8817 103.625 94.7187 103.342C94.5541 103.038 94.3902 102.734 94.2269 102.43C93.1959 100.531 92.1232 98.66 91.0405 96.7894C90.3537 95.5959 89.667 94.4024 88.9595 93.1728C88.9023 98.4583 88.8451 103.744 88.7861 109.189C85.2381 109.189 81.6902 109.189 78.0347 109.189C77.9091 104.749 77.8346 100.316 77.838 95.8737C77.8384 95.0936 77.838 94.3135 77.8377 93.5334C77.8374 92.2307 77.8378 90.9279 77.8387 89.6252C77.8396 88.1268 77.8393 86.6283 77.8383 85.1299C77.8375 83.8279 77.8374 82.5258 77.8379 81.2238C77.8382 80.4526 77.8382 79.6814 77.8376 78.9102C77.8371 78.1889 77.8375 77.4676 77.8385 76.7463C77.8387 76.4841 77.8386 76.2218 77.8383 75.9595C77.8361 74.3409 77.895 72.7413 78.0347 71.1283Z" fill="url(#paint0_linear_585_4567)"/>
<path d="M0 71.1283C3.26185 71.1283 6.5237 71.1283 9.88439 71.1283C10.5711 72.3786 11.2578 73.629 11.9653 74.9172C12.3282 75.5608 12.6917 76.2034 13.06 76.8439C13.9959 78.4806 14.9189 80.1241 15.8379 81.7702C16.585 83.1079 17.3356 84.4436 18.0889 85.778C19.0578 87.4942 20.0222 89.2129 20.9827 90.9339C21.3646 90.4498 21.675 89.9605 21.9676 89.4188C22.056 89.2559 22.1444 89.0929 22.2355 88.925C22.3299 88.7496 22.4244 88.5743 22.5217 88.3936C22.7253 88.018 22.929 87.6424 23.1327 87.2667C23.3409 86.8817 23.5491 86.4967 23.7572 86.1116C24.1323 85.4188 24.508 84.7263 24.8844 84.0342C24.9771 83.8637 25.0698 83.6931 25.1654 83.5174C25.9027 82.1665 26.6649 80.8307 27.4316 79.4961C28.1786 78.1881 28.8852 76.8618 29.5692 75.5203C30.3463 74.0114 31.2092 72.6001 32.0809 71.1283C35.3428 71.1283 38.6046 71.1283 41.9653 71.1283C41.9653 83.6885 41.9653 96.2487 41.9653 109.189C38.4173 109.189 34.8694 109.189 31.2139 109.189C31.0963 108.139 31.0126 107.138 31.0049 106.088C31.0031 105.942 31.0014 105.795 30.9996 105.645C30.9942 105.167 30.9899 104.688 30.9856 104.21C30.982 103.877 30.9784 103.543 30.9747 103.209C30.9651 102.335 30.9566 101.461 30.9482 100.587C30.9394 99.6937 30.9298 98.8001 30.9202 97.9065C30.9016 96.1564 30.884 94.4062 30.867 92.6561C30.7938 92.792 30.7206 92.928 30.6451 93.068C30.3682 93.582 30.0911 94.096 29.8141 94.6099C29.6951 94.8306 29.5762 95.0512 29.4574 95.2719C28.5483 96.9592 27.6309 98.6416 26.7052 100.32C26.3228 101.014 25.9442 101.711 25.5672 102.408C25.4642 102.598 25.3611 102.789 25.255 102.985C25.0551 103.354 24.8556 103.724 24.6567 104.094C24.5669 104.259 24.477 104.425 24.3845 104.596C24.3051 104.743 24.2257 104.89 24.1439 105.042C23.9306 105.401 23.9306 105.401 23.5838 105.745C21.9634 106.019 19.3057 106.372 17.8239 105.526C17.2179 104.897 16.9518 104.098 16.6619 103.29C16.305 102.392 15.7895 101.574 15.3035 100.74C15.0966 100.372 14.8903 100.005 14.6843 99.6372C13.7722 98.0208 12.8277 96.4231 11.8816 94.8263C11.5591 94.2772 11.2424 93.7247 10.9249 93.1728C10.8676 98.4583 10.8104 103.744 10.7514 109.189C7.20347 109.189 3.65549 109.189 0 109.189C0 96.6293 0 84.0691 0 71.1283Z" fill="url(#paint1_linear_585_4567)"/>
<path d="M44.2196 4.30602C44.811 4.80902 45.3831 5.33016 45.9538 5.85602C46.1908 6.06782 46.1908 6.06782 46.4327 6.28389C47.3112 7.07138 48.1604 7.87322 48.9843 8.71716C51.9726 11.7644 55.4171 13.7634 59.8157 13.8213C65.3037 13.7729 68.9073 10.8316 72.5831 7.12616C76.7215 2.9601 81.5124 -0.00967555 87.5564 -0.0563417C87.7763 -0.0553566 87.9961 -0.0543714 88.2225 -0.0533564C88.3371 -0.052928 88.4517 -0.0524996 88.5698 -0.0520582C93.4971 -0.0235966 97.7627 1.57015 101.445 4.82269C101.615 4.97254 101.785 5.1224 101.96 5.27679C102.933 6.1488 103.867 7.05331 104.785 7.98261C108.12 11.3509 111.298 13.5049 116.165 13.794C117.346 13.882 118.134 14.1775 119.003 15.0161C119.68 16.097 119.937 17.0874 119.753 18.3549C119.495 19.435 119.053 20.2345 118.092 20.8394C115.849 21.9148 112.421 20.9857 110.159 20.2796C106.079 18.8254 103.209 16.2396 100.211 13.2394C99.4936 12.5228 98.7605 11.8406 97.9769 11.1949C97.8336 11.0717 97.6903 10.9485 97.5427 10.8215C94.1249 7.93899 90.594 7.147 86.185 7.40602C83.0453 7.76695 80.1338 9.48775 77.9909 11.7498C77.6894 12.0545 77.3755 12.3293 77.0477 12.6057C76.4158 13.1504 75.8282 13.7257 75.245 14.3212C71.3822 18.2659 66.6868 21.0851 61.0228 21.2127C55.2932 21.2604 50.4706 19.7231 46.2538 15.7682C45.884 15.4246 45.5095 15.0957 45.1253 14.7685C44.4739 14.2056 43.8694 13.6072 43.2671 12.9931C40.1569 9.82367 36.8675 7.46403 32.2777 7.3253C28.5025 7.28792 25.2082 8.31988 22.3699 10.8505C22.2463 10.9548 22.1227 11.0592 21.9953 11.1667C21.1007 11.9378 20.269 12.7627 19.436 13.5985C16.8177 16.2252 16.8177 16.2252 15.4335 17.2227C15.3381 17.2915 15.2426 17.3604 15.1443 17.4313C11.4859 20.0391 7.17232 21.6193 2.60116 21.1838C1.65656 20.9058 1.06899 20.2402 0.520232 19.4616C0.0048511 18.3891 0.00406969 17.1159 0.346822 15.9849C0.695849 15.1649 1.35706 14.6227 2.08093 14.1227C2.53252 13.9732 2.84691 13.9186 3.31309 13.8886C9.15452 13.4533 12.863 10.4212 16.8134 6.35617C19.5104 3.59322 22.6043 1.5403 26.3584 0.51713C26.5555 0.462073 26.7527 0.407015 26.9558 0.35029C33.0915 -1.07113 39.3653 0.406297 44.2196 4.30602Z" fill="url(#paint2_linear_585_4567)"/>
<path d="M12.3121 47.3502C15.0199 48.747 17.1885 50.7597 19.2973 52.9198C19.8434 53.4742 20.4172 53.9856 21.009 54.4911C21.4347 54.8579 21.8413 55.2438 22.2507 55.6283C25.0886 58.1901 28.4775 59.3183 32.2808 59.282C35.8171 59.0858 38.7638 57.7571 41.3503 55.3478C41.7064 55.0184 42.0681 54.7034 42.4375 54.3891C43.1107 53.8067 43.7348 53.1862 44.358 52.5517C48.5015 48.3349 53.171 45.4822 59.2338 45.3945C66.1491 45.3454 70.9439 47.9875 75.7803 52.7005C76.1335 53.0538 76.4848 53.4089 76.8358 53.7643C79.3426 56.296 82.0498 58.4436 85.6647 59.0727C85.8865 59.1118 86.1082 59.1509 86.3367 59.1911C90.3388 59.5747 93.9499 58.6698 97.1098 56.145C98.4377 55.0401 99.6421 53.8033 100.86 52.5821C101.93 51.5099 103.004 50.5106 104.22 49.6005C104.376 49.4811 104.532 49.3616 104.692 49.2386C105.755 48.4445 106.847 47.7819 108.035 47.1894C108.256 47.0752 108.256 47.0752 108.481 46.9586C110.748 45.8515 113.254 45.4396 115.762 45.4133C115.922 45.4084 116.081 45.4034 116.246 45.3982C117.245 45.3889 117.822 45.487 118.613 46.1561C119.401 46.9386 119.81 47.9085 119.838 49.0139C119.741 50.324 119.312 51.1921 118.403 52.1327C117.493 52.7868 116.406 52.7689 115.329 52.8404C111.108 53.1882 108.16 55.278 105.259 58.207C104.633 58.8387 103.995 59.4379 103.313 60.0099C102.978 60.3026 102.674 60.6149 102.366 60.9349C98.751 64.5605 93.9203 66.6091 88.7971 66.6921C82.9763 66.7124 78.1485 64.666 73.9622 60.6975C73.6915 60.4431 73.4174 60.1931 73.1419 59.9439C72.292 59.1747 71.4544 58.401 70.6526 57.582C67.8604 54.7364 64.5896 52.9118 60.5432 52.7916C56.6405 52.7557 53.3665 53.8592 50.4624 56.4894C50.227 56.6955 50.227 56.6955 49.9869 56.9058C49.0614 57.7291 48.1784 58.5843 47.3081 59.465C43.1317 63.6836 38.2797 66.599 32.1949 66.6921C25.5649 66.7132 20.5929 63.9752 15.9538 59.4172C15.6011 59.0637 15.25 58.7088 14.899 58.3537C11.587 55.0121 8.29074 52.9744 3.51833 52.7449C2.49022 52.6649 1.82751 52.4429 1.07298 51.7102C0.261906 50.5135 -0.0377233 49.4811 0.173411 48.0505C0.519204 47.0414 0.967452 46.2045 1.90751 45.6394C5.16518 44.5609 9.36902 45.9051 12.3121 47.3502Z" fill="url(#paint3_linear_585_4567)"/>
<path d="M5.02657 24.4113C5.21991 24.4106 5.41324 24.4099 5.61243 24.4093C6.26385 24.4075 6.91524 24.4082 7.56667 24.4088C8.03699 24.4082 8.50731 24.4072 8.97762 24.4061C10.0021 24.404 11.0265 24.4033 12.0509 24.4034C13.5743 24.4035 15.0977 24.4017 16.6211 24.3995C19.6587 24.3953 22.6963 24.3938 25.7339 24.3929C25.8913 24.3928 26.0486 24.3928 26.2107 24.3928C26.4472 24.3927 26.4472 24.3927 26.6884 24.3926C28.4348 24.3921 30.1812 24.391 31.9276 24.3898C37.2014 24.3864 42.4752 24.3836 47.7489 24.3831C47.9177 24.3831 48.0864 24.3831 48.2602 24.3831C48.9439 24.383 49.6276 24.383 50.3113 24.3829C50.8259 24.3828 51.3405 24.3828 51.8551 24.3828C52.0252 24.3827 52.1952 24.3827 52.3704 24.3827C57.714 24.3822 63.0576 24.3784 68.4013 24.3722C74.4031 24.3651 80.405 24.3611 86.4068 24.361C87.0467 24.361 87.6866 24.361 88.3264 24.3609C88.5627 24.3609 88.5628 24.3609 88.8039 24.3609C91.3405 24.3607 93.877 24.3577 96.4136 24.3537C98.9626 24.3498 101.511 24.3491 104.06 24.3516C105.575 24.353 107.09 24.352 108.604 24.3476C109.616 24.3449 110.628 24.3453 111.639 24.3483C112.216 24.3499 112.792 24.3496 113.369 24.3465C113.99 24.3434 114.611 24.3456 115.233 24.3491C115.411 24.347 115.589 24.3448 115.773 24.3426C116.986 24.3572 117.957 24.6152 118.96 25.3172C119.891 26.4204 120.122 27.5201 120 28.9338C119.804 29.9902 119.287 30.5798 118.479 31.2682C117.425 31.9466 116.362 31.9104 115.151 31.9049C114.958 31.9054 114.765 31.9059 114.566 31.9065C113.916 31.9077 113.266 31.9065 112.616 31.9053C112.147 31.9055 111.678 31.9063 111.209 31.907C110.187 31.9082 109.164 31.9082 108.142 31.9073C106.622 31.906 105.103 31.9067 103.583 31.9077C100.868 31.9095 98.1538 31.9094 95.4395 31.9084C93.064 31.9075 90.6885 31.9073 88.313 31.9077C88.1556 31.9077 87.9981 31.9077 87.8359 31.9078C87.1967 31.9079 86.5576 31.908 85.9184 31.9081C79.9203 31.9092 73.9221 31.9082 67.9239 31.9063C62.5931 31.9047 57.2623 31.9049 51.9315 31.9065C45.9447 31.9083 39.9579 31.9091 33.9711 31.908C33.3331 31.9079 32.695 31.9078 32.057 31.9077C31.8213 31.9077 31.8213 31.9076 31.5809 31.9076C29.2068 31.9072 26.8328 31.9077 24.4587 31.9086C21.7596 31.9095 19.0604 31.9093 16.3613 31.9074C14.8501 31.9064 13.3389 31.9063 11.8277 31.9076C10.8188 31.9084 9.80998 31.9079 8.80114 31.9064C8.22594 31.9056 7.65077 31.9055 7.07557 31.9066C6.45632 31.9076 5.8371 31.9066 5.21784 31.9049C5.03882 31.9058 4.8598 31.9066 4.67536 31.9074C3.26849 31.9001 2.18599 31.7607 1.1292 30.7724C0.239584 29.793 0.245776 28.7216 0.27434 27.4504C0.406068 26.3904 0.886787 25.8059 1.63656 25.0803C2.72905 24.3923 3.77374 24.4067 5.02657 24.4113Z" fill="url(#paint4_linear_585_4567)"/>
<path d="M4.69156 34.8956C4.88616 34.8948 5.08077 34.8939 5.28127 34.893C5.93704 34.8908 6.59275 34.8923 7.24851 34.8937C7.72194 34.8931 8.19537 34.8918 8.6688 34.8905C9.70002 34.8881 10.7312 34.8876 11.7624 34.8884C13.2959 34.8896 14.8294 34.8878 16.3628 34.8855C19.2607 34.8812 22.1586 34.8804 25.0566 34.8808C27.2941 34.881 29.5316 34.8803 31.7692 34.8791C32.0904 34.8789 32.4117 34.8787 32.733 34.8785C32.8925 34.8784 33.052 34.8783 33.2163 34.8782C33.376 34.8782 33.5358 34.8781 33.7004 34.878C33.8604 34.8779 34.0205 34.8778 34.1853 34.8777C38.6874 34.8752 43.1894 34.8738 47.6914 34.8745C47.8612 34.8746 48.031 34.8746 48.2059 34.8746C49.0664 34.8748 49.927 34.875 50.7875 34.8751C50.9584 34.8752 51.1293 34.8752 51.3054 34.8752C51.651 34.8753 51.9967 34.8754 52.3423 34.8754C57.7208 34.8765 63.0993 34.8738 68.4779 34.8683C74.5185 34.862 80.5591 34.8587 86.5997 34.8596C87.2435 34.8596 87.8874 34.8597 88.5312 34.8598C88.769 34.8598 88.769 34.8598 89.0116 34.8598C91.4069 34.86 93.8021 34.858 96.1973 34.8548C98.9208 34.8511 101.644 34.8504 104.368 34.8538C105.892 34.8556 107.417 34.855 108.942 34.8509C109.96 34.8485 110.978 34.8492 111.996 34.8524C112.576 34.8541 113.156 34.8541 113.737 34.8511C114.362 34.8482 114.987 34.8505 115.612 34.8542C115.792 34.8521 115.972 34.85 116.158 34.8478C117.311 34.862 118.064 35.0878 118.96 35.8227C119.751 36.6299 120.013 37.4358 120.065 38.546C120.04 39.5768 119.763 40.4925 119.053 41.2652C118.328 41.8906 117.71 42.2379 116.751 42.2383C116.585 42.2392 116.42 42.2401 116.249 42.2411C115.976 42.2399 115.976 42.2399 115.697 42.2388C115.503 42.2393 115.308 42.2399 115.108 42.2404C114.451 42.2419 113.794 42.2408 113.138 42.2398C112.664 42.2402 112.191 42.241 111.718 42.2418C110.685 42.2433 109.653 42.2436 108.621 42.243C107.086 42.242 105.551 42.2431 104.016 42.2445C101.116 42.2471 98.2156 42.2474 95.3151 42.247C93.0758 42.2467 90.8364 42.247 88.597 42.2477C88.2756 42.2478 87.9542 42.2479 87.6328 42.248C87.1484 42.2482 86.6641 42.2484 86.1798 42.2485C81.6752 42.25 77.1705 42.2507 72.6659 42.25C72.496 42.25 72.3261 42.2499 72.151 42.2499C71.2898 42.2498 70.4285 42.2496 69.5673 42.2495C69.3962 42.2495 69.2252 42.2494 69.0489 42.2494C68.703 42.2493 68.3571 42.2493 68.0112 42.2492C62.6281 42.2483 57.2449 42.2497 51.8618 42.2528C45.8174 42.2564 39.773 42.2583 33.7286 42.2576C33.0845 42.2575 32.4403 42.2574 31.7962 42.2574C31.6376 42.2574 31.479 42.2573 31.3155 42.2573C28.9182 42.2571 26.5208 42.2583 24.1234 42.2601C21.3978 42.2622 18.6722 42.2624 15.9466 42.2603C14.4203 42.2592 12.894 42.2595 11.3678 42.2618C10.3491 42.2632 9.33043 42.2627 8.31176 42.2608C7.73079 42.2597 7.14988 42.2597 6.5689 42.2614C5.94374 42.2631 5.31866 42.2617 4.69349 42.2595C4.51225 42.2607 4.33101 42.262 4.14427 42.2633C3.01981 42.2549 2.22762 42.1344 1.37306 41.3446C1.27403 41.2274 1.175 41.1102 1.07298 40.9894C0.971715 40.8722 0.870452 40.7549 0.766122 40.6342C0.291676 39.9903 0.313429 39.3847 0.303468 38.6106C0.296762 38.2999 0.296762 38.2999 0.28992 37.9829C0.39276 36.8801 0.903378 36.1882 1.7341 35.4783C2.69779 34.8521 3.57931 34.8888 4.69156 34.8956Z" fill="url(#paint5_linear_585_4567)"/>
<path d="M69.6876 73.5008C72.0488 75.596 73.3154 78.3374 73.5152 81.4616C73.6533 85.0158 72.7307 88.0837 70.578 90.9339C70.4368 91.1221 70.4368 91.1221 70.2926 91.3141C68.9439 93.0278 67.352 94.5194 65.7984 96.0467C64.8005 97.0306 63.8027 98.0146 62.7746 99.0283C68.4399 99.1136 68.4399 99.1136 74.2196 99.2005C74.2196 102.497 74.2196 105.793 74.2196 109.189C64.9491 109.189 55.6786 109.189 46.1272 109.189C46.1272 101.095 46.1272 101.095 48.0191 98.4316C49.3468 97.2036 49.3468 97.2036 49.839 96.8074C50.4855 96.2783 51.1037 95.7222 51.7207 95.1597C52.3907 94.5518 53.0663 93.9533 53.7574 93.3692C54.5488 92.6999 55.2687 92.0218 55.935 91.2295C56.272 90.8309 56.6415 90.4726 57.0195 90.1124C57.1666 89.97 57.3137 89.8276 57.4652 89.6809C57.7668 89.3906 58.0693 89.1013 58.3729 88.813C59.8602 87.3663 61.1957 85.7224 61.392 83.5989C61.3814 82.6674 61.1123 81.8977 60.4769 81.2141C59.2775 80.5373 58.2048 80.5201 56.8786 80.7727C55.2267 81.2588 54.0546 82.3223 53.2045 83.786C53.158 83.8714 53.1115 83.9569 53.0636 84.045C49.9961 82.562 46.9683 80.9729 44.0462 79.2227C44.9045 76.2416 47.6598 73.7982 50.2921 72.308C56.0404 69.2233 64.5074 69.2038 69.6876 73.5008Z" fill="url(#paint6_linear_585_4567)"/>
<path d="M37.9769 113.543C38.8925 113.532 39.8081 113.522 40.7514 113.511C41.0376 113.506 41.3237 113.501 41.6185 113.496C43.3547 113.48 44.7255 113.609 46.1272 114.748C46.9652 115.886 47.1066 116.993 46.9942 118.365C46.7654 119.459 46.2283 120.019 45.4335 120.776C45.4861 120.858 45.5386 120.94 45.5927 121.024C45.8295 121.393 46.065 121.763 46.3006 122.132C46.3833 122.261 46.466 122.39 46.5512 122.522C46.6294 122.645 46.7077 122.768 46.7883 122.895C46.8609 123.009 46.9336 123.123 47.0084 123.24C47.1676 123.532 47.1676 123.532 47.1676 123.876C44.0389 124.232 44.0389 124.232 43.2174 123.662C42.652 123.026 42.1387 122.155 42.1387 121.293C41.8526 121.293 41.5665 121.293 41.2717 121.293C41.2717 122.145 41.2717 122.998 41.2717 123.876C40.1844 123.876 39.0971 123.876 37.9769 123.876C37.9769 120.466 37.9769 117.056 37.9769 113.543ZM42.0412 116.643C41.9344 116.692 41.8277 116.741 41.7177 116.792C41.4533 116.914 41.1891 117.037 40.9249 117.16C40.9249 117.273 40.9249 117.387 40.9249 117.504C42.1266 118.015 42.1266 118.015 43.3526 118.537C43.3526 117.742 43.3526 116.946 43.3526 116.126C42.9289 116.126 42.4103 116.472 42.0412 116.643Z" fill="url(#paint7_linear_585_4567)"/>
<path d="M57.9191 113.495C58.8347 113.484 59.7503 113.474 60.6936 113.463C60.9798 113.458 61.2659 113.453 61.5607 113.448C63.2969 113.432 64.6677 113.562 66.0694 114.701C66.5422 115.329 66.8611 115.982 66.9364 116.767C66.9474 116.88 66.9583 116.994 66.9696 117.11C67.0369 118.356 66.6757 119.349 65.8743 120.309C65.5491 120.556 65.5491 120.556 65.2023 120.556C65.2601 120.649 65.3179 120.742 65.3774 120.838C65.6374 121.257 65.8967 121.676 66.1561 122.095C66.247 122.242 66.338 122.388 66.4318 122.539C66.5178 122.678 66.6039 122.818 66.6926 122.961C66.7725 123.09 66.8524 123.219 66.9347 123.352C67.1098 123.656 67.1098 123.656 67.1098 123.828C63.9811 124.184 63.9811 124.184 63.1596 123.614C62.5942 122.978 62.0809 122.107 62.0809 121.245C61.7948 121.245 61.5087 121.245 61.2139 121.245C61.2139 122.098 61.2139 122.95 61.2139 123.828C60.1266 123.828 59.0393 123.828 57.9191 123.828C57.9191 120.418 57.9191 117.008 57.9191 113.495ZM61.2139 116.078C61.2139 116.874 61.2139 117.67 61.2139 118.489C61.4857 118.383 61.7575 118.276 62.0376 118.167C62.1905 118.107 62.3434 118.047 62.5009 117.985C62.8914 117.824 63.2664 117.649 63.6416 117.456C63.6416 117.342 63.6416 117.229 63.6416 117.112C63.2697 116.939 62.8976 116.767 62.5253 116.595C62.3181 116.499 62.1108 116.403 61.8973 116.304C61.454 116.067 61.454 116.067 61.2139 116.078Z" fill="url(#paint8_linear_585_4567)"/>
<path d="M92.6011 113.495C95.1763 113.495 97.7514 113.495 100.405 113.495C100.405 114.404 100.405 115.314 100.405 116.251C98.9167 116.251 97.4289 116.251 95.8959 116.251C95.8959 116.592 95.8959 116.933 95.8959 117.284C97.1549 117.284 98.4139 117.284 99.711 117.284C99.711 118.136 99.711 118.989 99.711 119.867C98.452 119.867 97.1931 119.867 95.8959 119.867C95.8959 120.265 95.8959 120.663 95.8959 121.073C97.441 121.073 98.9861 121.073 100.578 121.073C100.578 121.982 100.578 122.891 100.578 123.828C97.9456 123.828 95.3133 123.828 92.6011 123.828C92.6011 120.418 92.6011 117.008 92.6011 113.495Z" fill="url(#paint9_linear_585_4567)"/>
<path d="M19.0751 113.495C21.5931 113.495 24.111 113.495 26.7052 113.495C26.8786 114.012 26.8786 114.012 26.8786 116.251C25.3335 116.251 23.7884 116.251 22.1965 116.251C22.1965 116.592 22.1965 116.933 22.1965 117.284C23.5127 117.284 24.8289 117.284 26.185 117.284C26.185 118.136 26.185 118.989 26.185 119.867C24.926 119.867 23.667 119.867 22.3699 119.867C22.3699 120.265 22.3699 120.663 22.3699 121.073C23.8578 121.073 25.3457 121.073 26.8786 121.073C27.052 123.139 27.052 123.139 26.8786 123.828C24.3035 123.828 21.7283 123.828 19.0751 123.828C19.0751 120.418 19.0751 117.008 19.0751 113.495Z" fill="url(#paint10_linear_585_4567)"/>
<path d="M118.623 113.794C118.96 114.012 118.96 114.012 119.122 114.313C119.138 114.874 118.939 115.267 118.71 115.777C118.628 115.963 118.546 116.148 118.462 116.339C118.397 116.481 118.332 116.622 118.266 116.767C118.146 116.73 118.027 116.693 117.903 116.654C116.827 116.337 115.92 116.196 114.798 116.251C114.74 116.421 114.683 116.592 114.624 116.767C114.728 116.797 114.832 116.826 114.939 116.856C115.417 116.994 115.893 117.139 116.369 117.284C116.533 117.33 116.696 117.376 116.865 117.423C118.045 117.791 118.822 118.289 119.48 119.351C119.781 120.294 119.697 121.161 119.343 122.081C118.87 122.912 118.152 123.481 117.279 123.857C116.55 124.039 115.871 124.066 115.123 124.065C114.978 124.065 114.833 124.065 114.684 124.065C113.341 124.042 112.185 123.736 110.983 123.139C111.065 122.101 111.537 121.285 112.023 120.384C112.215 120.458 112.215 120.458 112.411 120.535C113.652 120.986 114.693 121.166 116.012 121.073C116.012 120.902 116.012 120.732 116.012 120.556C115.869 120.513 115.869 120.513 115.723 120.469C115.288 120.338 114.853 120.205 114.418 120.072C114.268 120.027 114.119 119.982 113.964 119.936C112.942 119.62 112.13 119.36 111.449 118.5C110.993 117.625 111.009 116.69 111.156 115.734C111.53 114.759 112.13 114.149 113.064 113.667C114.905 113.053 116.816 113.12 118.623 113.794Z" fill="url(#paint11_linear_585_4567)"/>
<path d="M0.520231 113.495C3.03815 113.495 5.55607 113.495 8.15029 113.495C8.15029 114.404 8.15029 115.314 8.15029 116.251C6.71965 116.251 5.28902 116.251 3.81503 116.251C3.81503 116.762 3.81503 117.274 3.81503 117.801C5.07399 117.801 6.33295 117.801 7.63006 117.801C7.63006 118.71 7.63006 119.619 7.63006 120.556C6.3711 120.556 5.11214 120.556 3.81503 120.556C3.81503 121.636 3.81503 122.716 3.81503 123.828C2.72775 123.828 1.64046 123.828 0.520231 123.828C0.36901 121.933 0.319635 120.055 0.324213 118.154C0.325155 117.688 0.32421 117.221 0.323112 116.754C0.323227 116.455 0.323448 116.156 0.32379 115.856C0.323439 115.718 0.323088 115.58 0.322726 115.438C0.323546 115.243 0.323546 115.243 0.324382 115.045C0.32452 114.933 0.324658 114.82 0.3248 114.704C0.346821 114.356 0.346821 114.356 0.520231 113.495Z" fill="url(#paint12_linear_585_4567)"/>
<path d="M77.8613 113.495C78.9485 113.495 80.0358 113.495 81.1561 113.495C81.1561 116.905 81.1561 120.315 81.1561 123.828C80.126 123.828 79.0959 123.828 78.0347 123.828C77.8613 123.656 77.8613 123.656 77.8404 123.25C77.8408 123.07 77.8412 122.889 77.8416 122.704C77.8416 122.5 77.8416 122.297 77.8416 122.087C77.8425 121.866 77.8434 121.645 77.8443 121.417C77.8446 121.191 77.8448 120.966 77.8451 120.734C77.8457 120.134 77.8474 119.534 77.8493 118.934C77.8511 118.322 77.8519 117.71 77.8528 117.099C77.8547 115.897 77.8577 114.696 77.8613 113.495Z" fill="url(#paint13_linear_585_4567)"/>
<defs>
<linearGradient id="paint0_linear_585_4567" x1="1.23046e-06" y1="1.29614" x2="117.668" y2="127.471" gradientUnits="userSpaceOnUse">
<stop stop-color="#00CFC8"/>
<stop offset="1" stop-color="#137DC5"/>
</linearGradient>
<linearGradient id="paint1_linear_585_4567" x1="1.23046e-06" y1="1.29614" x2="117.668" y2="127.471" gradientUnits="userSpaceOnUse">
<stop stop-color="#00CFC8"/>
<stop offset="1" stop-color="#137DC5"/>
</linearGradient>
<linearGradient id="paint2_linear_585_4567" x1="1.23046e-06" y1="1.29614" x2="117.668" y2="127.471" gradientUnits="userSpaceOnUse">
<stop stop-color="#00CFC8"/>
<stop offset="1" stop-color="#137DC5"/>
</linearGradient>
<linearGradient id="paint3_linear_585_4567" x1="1.23046e-06" y1="1.29614" x2="117.668" y2="127.471" gradientUnits="userSpaceOnUse">
<stop stop-color="#00CFC8"/>
<stop offset="1" stop-color="#137DC5"/>
</linearGradient>
<linearGradient id="paint4_linear_585_4567" x1="1.23046e-06" y1="1.29614" x2="117.668" y2="127.471" gradientUnits="userSpaceOnUse">
<stop stop-color="#00CFC8"/>
<stop offset="1" stop-color="#137DC5"/>
</linearGradient>
<linearGradient id="paint5_linear_585_4567" x1="1.23046e-06" y1="1.29614" x2="117.668" y2="127.471" gradientUnits="userSpaceOnUse">
<stop stop-color="#00CFC8"/>
<stop offset="1" stop-color="#137DC5"/>
</linearGradient>
<linearGradient id="paint6_linear_585_4567" x1="1.23046e-06" y1="1.29614" x2="117.668" y2="127.471" gradientUnits="userSpaceOnUse">
<stop stop-color="#00CFC8"/>
<stop offset="1" stop-color="#137DC5"/>
</linearGradient>
<linearGradient id="paint7_linear_585_4567" x1="1.23046e-06" y1="1.29614" x2="117.668" y2="127.471" gradientUnits="userSpaceOnUse">
<stop stop-color="#00CFC8"/>
<stop offset="1" stop-color="#137DC5"/>
</linearGradient>
<linearGradient id="paint8_linear_585_4567" x1="1.23046e-06" y1="1.29614" x2="117.668" y2="127.471" gradientUnits="userSpaceOnUse">
<stop stop-color="#00CFC8"/>
<stop offset="1" stop-color="#137DC5"/>
</linearGradient>
<linearGradient id="paint9_linear_585_4567" x1="1.23046e-06" y1="1.29614" x2="117.668" y2="127.471" gradientUnits="userSpaceOnUse">
<stop stop-color="#00CFC8"/>
<stop offset="1" stop-color="#137DC5"/>
</linearGradient>
<linearGradient id="paint10_linear_585_4567" x1="1.23046e-06" y1="1.29614" x2="117.668" y2="127.471" gradientUnits="userSpaceOnUse">
<stop stop-color="#00CFC8"/>
<stop offset="1" stop-color="#137DC5"/>
</linearGradient>
<linearGradient id="paint11_linear_585_4567" x1="1.23046e-06" y1="1.29614" x2="117.668" y2="127.471" gradientUnits="userSpaceOnUse">
<stop stop-color="#00CFC8"/>
<stop offset="1" stop-color="#137DC5"/>
</linearGradient>
<linearGradient id="paint12_linear_585_4567" x1="1.23046e-06" y1="1.29614" x2="117.668" y2="127.471" gradientUnits="userSpaceOnUse">
<stop stop-color="#00CFC8"/>
<stop offset="1" stop-color="#137DC5"/>
</linearGradient>
<linearGradient id="paint13_linear_585_4567" x1="1.23046e-06" y1="1.29614" x2="117.668" y2="127.471" gradientUnits="userSpaceOnUse">
<stop stop-color="#00CFC8"/>
<stop offset="1" stop-color="#137DC5"/>
</linearGradient>
</defs>
</svg>
