<svg width="100" height="100" viewBox="0 0 100 100" fill="none" xmlns="http://www.w3.org/2000/svg">
<rect width="100" height="100" rx="24" fill="#E6F7FF"/>
<path d="M49.9994 26.666C37.1124 26.666 26.666 37.1124 26.666 49.9994C26.666 62.8864 37.1124 73.3327 49.9994 73.3327C62.8864 73.3327 73.3327 62.8864 73.3327 49.9994C73.3327 37.1124 62.8864 26.666 49.9994 26.666ZM55.1397 59.0271C54.1947 59.9721 52.993 60.5482 51.698 60.7349V61.666C51.698 62.632 50.914 63.416 49.948 63.416C48.982 63.416 48.198 62.632 48.198 61.666V60.7303C45.531 60.2963 43.4147 58.1474 43.102 55.3801C42.9947 54.4188 43.6853 53.5531 44.6467 53.4458C45.594 53.3268 46.4737 54.0291 46.581 54.9904C46.7304 56.3204 47.8504 57.3238 49.185 57.3238H50.8184C51.5137 57.3238 52.1694 57.0506 52.6664 56.5536C53.1634 56.0566 53.4363 55.4009 53.4363 54.7056C53.4363 53.5039 52.6197 52.461 51.4507 52.1646L47.6987 51.2338C46.3687 50.8955 45.1833 50.123 44.3527 49.052C43.5267 48.0067 43.0647 46.6673 43.0647 45.2976C43.0647 42.262 45.293 39.7537 48.198 39.28V38.3327C48.198 37.3667 48.982 36.5827 49.948 36.5827C50.914 36.5827 51.698 37.3667 51.698 38.3327V39.2567C54.414 39.651 56.584 41.8139 56.899 44.6186C57.0064 45.5799 56.3157 46.4456 55.3544 46.5529C54.3837 46.6649 53.5274 45.9696 53.42 45.0083C53.2707 43.6783 52.1507 42.6749 50.816 42.6749H49.1827C47.7383 42.6749 46.5647 43.8488 46.5647 45.2931C46.5647 45.8788 46.7583 46.4479 47.1083 46.8913C47.477 47.3673 47.9717 47.6894 48.5503 47.8341L52.3023 48.7649C55.0323 49.4556 56.9363 51.8964 56.9363 54.7011C56.934 56.3344 56.297 57.8697 55.1397 59.0271Z" fill="#0A2342"/>
</svg>
